<svg width="1421" height="1530" viewBox="0 0 1421 1530" fill="none" xmlns="http://www.w3.org/2000/svg">
<path d="M1171.9 665.795C1164.46 623.299 1154.91 581.265 1143.28 539.876C1108.38 420.077 1039.04 298.84 919.87 258.08C831.939 228.001 736.959 248.9 662.612 310.1C546.09 406.154 461.2 537.214 333.622 620.446C227.104 689.908 171.344 802.179 207.182 960.84C243.019 1119.5 362.582 1212 493.428 1200.62C602.248 1191.17 715.985 1201.26 810.055 1258.15C894.093 1308.95 1042.64 1264.85 1165.5 1125.96C1237.07 1045.05 1230.16 942.205 1206.83 845.998C1192.45 786.757 1183.07 726.016 1171.9 665.795Z" fill="#1687A7"/>
<path opacity="0.7" d="M1171.9 665.795C1164.46 623.299 1154.91 581.265 1143.28 539.876C1108.38 420.077 1039.04 298.84 919.87 258.08C831.939 228.001 736.959 248.9 662.612 310.1C546.09 406.154 461.2 537.214 333.622 620.446C227.104 689.908 171.344 802.179 207.182 960.84C243.019 1119.5 362.582 1212 493.428 1200.62C602.248 1191.17 715.985 1201.26 810.055 1258.15C894.093 1308.95 1042.64 1264.85 1165.5 1125.96C1237.07 1045.05 1230.16 942.205 1206.83 845.998C1192.45 786.757 1183.07 726.016 1171.9 665.795Z" fill="white"/>
<path d="M405.839 291.159C405.839 291.159 419.139 279.868 422.521 272.615C425.363 266.495 427.523 257.713 424.539 251.195C423.891 249.615 422.939 248.2 421.747 247.044C420.554 245.888 419.148 245.017 417.621 244.488C416.093 243.959 414.479 243.784 412.884 243.975C411.289 244.166 409.75 244.718 408.368 245.596C400.183 251.073 399.302 269.77 401.405 278.766C401.576 279.47 405.696 291.281 405.839 291.159Z" fill="#1687A7"/>
<path d="M282.921 385.346C283.461 385.897 292.954 393.271 293.01 393.118C293.067 392.965 298.297 375.799 297.416 367.72C296.677 360.835 293.948 352.42 288.094 348.595C286.743 347.666 285.224 347.055 283.638 346.802C282.052 346.549 280.434 346.66 278.891 347.129C277.347 347.597 275.914 348.411 274.683 349.518C273.453 350.625 272.454 352 271.752 353.552C267.717 362.977 276.584 379.073 282.921 385.346Z" fill="#1687A7"/>
<path d="M561.466 308.295C561.466 308.295 512.811 362.396 513.152 428.828C513.493 495.261 562.518 548.903 562.518 548.903C562.518 548.903 611.201 494.833 610.832 428.369C610.462 361.906 561.466 308.295 561.466 308.295Z" fill="#1687A7"/>
<path d="M492.093 468.608C492.733 467.87 493.322 467.083 493.855 466.252C497.379 460.469 500.42 452.054 498.147 445.138C497.671 443.489 496.876 441.968 495.815 440.673C494.754 439.378 493.451 438.34 491.991 437.626C490.531 436.912 488.947 436.539 487.343 436.531C485.739 436.523 484.152 436.881 482.686 437.58C476.064 440.946 472.824 452.36 472.142 461.693C469.499 461.05 467.112 460.561 465.066 460.163C464.213 458.051 463.332 455.94 462.423 453.798C461.513 451.656 460.803 449.361 459.95 447.097C458.785 443.792 457.762 440.303 456.71 436.815C460.547 434.979 471.745 429.318 475.922 424.361C480.1 419.404 484.448 411.386 483.141 404.195C482.9 402.491 482.328 400.86 481.461 399.41C480.594 397.96 479.452 396.723 478.111 395.781C476.769 394.839 475.258 394.213 473.676 393.944C472.094 393.675 470.477 393.769 468.931 394.22C459.666 397.28 454.238 414.967 454.067 424.238C454.067 424.514 454.067 426.472 454.38 428.828C453.47 425.401 452.504 421.974 451.68 418.455C449.293 408.51 447.161 398.29 445.001 388.069C444.547 385.958 444.063 383.816 443.609 381.704C446.849 380.144 459.041 374.146 463.503 368.944C467.965 363.742 472.029 355.97 470.721 348.779C470.481 347.074 469.908 345.443 469.041 343.993C468.175 342.543 467.033 341.307 465.691 340.365C464.35 339.423 462.838 338.797 461.256 338.528C459.674 338.259 458.057 338.353 456.511 338.803C447.275 341.863 441.847 359.55 441.648 368.822C441.648 369.128 441.818 371.484 442.046 374.116C440.795 368.577 439.488 363.069 438.01 357.653C435.557 348.333 432.519 339.203 428.916 330.327C430.081 329.807 444.518 323.075 449.378 317.291C453.669 312.151 457.904 304.317 456.568 297.126C456.328 295.421 455.755 293.79 454.888 292.34C454.021 290.89 452.88 289.654 451.538 288.712C450.196 287.77 448.685 287.144 447.103 286.875C445.521 286.606 443.904 286.7 442.358 287.15C433.122 290.21 427.694 307.897 427.495 317.169C427.495 317.812 428.205 326.349 428.546 329.409C428.535 329.307 428.535 329.205 428.546 329.103C424.817 320.487 420.385 312.243 415.302 304.47C410.782 297.504 405.895 290.822 400.666 284.458C395.863 278.338 391.145 273.381 386.939 268.882C384.637 266.465 382.477 264.292 380.459 262.303H380.658C380.829 262.303 376.168 250.736 375.799 250.063C371.479 242.046 358.747 229.286 349.34 231.489C347.774 231.861 346.3 232.585 345.013 233.613C343.726 234.642 342.655 235.952 341.871 237.458C341.088 238.963 340.609 240.63 340.465 242.349C340.322 244.068 340.518 245.8 341.041 247.432C343.144 254.408 350.306 259.09 356.359 261.355C362.413 263.619 376.253 262.548 379.578 262.212C381.625 264.354 383.813 266.649 386.172 269.219C390.293 273.809 394.897 279.042 399.558 285.07C400.808 286.692 402.087 288.466 403.338 290.18C400.666 287.762 396.915 284.549 396.517 284.274C389.27 279.317 372.502 274.299 365.113 280.908C363.891 282.041 362.906 283.442 362.225 285.016C361.545 286.591 361.183 288.303 361.164 290.04C361.145 291.776 361.47 293.497 362.116 295.088C362.763 296.68 363.716 298.104 364.914 299.268C369.745 304.409 378.129 305.021 384.495 304.011C390.861 303.001 402.968 294.831 405.554 293.209C408.396 297.004 411.039 301.012 413.682 305.449C418.54 313.195 422.753 321.386 426.273 329.929C426.471 330.419 426.614 330.97 426.812 331.459C425.676 330.021 418.912 322.677 418.286 322.279C411.579 316.465 395.55 309.519 387.394 315.211C386.077 316.195 384.968 317.469 384.141 318.947C383.313 320.426 382.785 322.076 382.592 323.79C382.399 325.503 382.545 327.242 383.019 328.89C383.494 330.539 384.288 332.061 385.348 333.356C389.639 339.048 397.881 340.639 404.304 340.394C411.721 340.119 426.301 332.194 426.841 331.888C430.118 340.561 432.871 349.454 435.083 358.51C436.731 365.211 438.181 372.065 439.545 378.95C438.038 377.114 431.729 370.291 431.218 369.77C424.51 363.987 408.482 357.01 400.325 362.732C399.008 363.717 397.899 364.99 397.072 366.469C396.244 367.947 395.717 369.598 395.523 371.311C395.33 373.025 395.476 374.763 395.951 376.412C396.425 378.061 397.219 379.583 398.279 380.878C402.57 386.539 410.812 388.161 417.235 387.916C424.482 387.61 438.493 380.083 439.658 379.44L441.534 388.865C443.495 399.116 445.428 409.397 447.616 419.465C448.383 422.953 449.236 426.38 450.088 429.808C447.73 427.145 443.353 422.402 442.927 422.035C436.22 416.252 420.191 409.275 412.034 414.997C410.717 415.982 409.608 417.255 408.781 418.734C407.953 420.212 407.426 421.863 407.232 423.576C407.039 425.29 407.185 427.028 407.66 428.677C408.134 430.326 408.928 431.848 409.988 433.143C414.279 438.804 422.521 440.426 428.944 440.15C435.367 439.875 447.303 433.847 450.657 432.103C452.106 437.794 453.669 443.394 455.46 448.841C456.284 451.166 456.966 453.614 457.876 455.787L459.24 459.275L457.563 459C457.563 459 457.421 462.244 457.705 467.507C450.628 462.091 440.426 457.409 433.775 460.683C432.336 461.442 431.062 462.519 430.037 463.845C429.011 465.171 428.258 466.715 427.826 468.377C427.394 470.038 427.293 471.779 427.53 473.486C427.766 475.192 428.336 476.825 429.2 478.278C429.617 479.068 430.113 479.806 430.678 480.481C431.932 488.527 435.083 496.092 439.829 502.452C440.198 502.88 445.001 507.685 447.502 510.071C445.087 508.633 442.671 507.256 440.17 505.726C436.561 503.584 432.809 501.167 429.143 498.841L423.459 494.986C421.526 493.731 419.821 492.262 417.974 490.885C415.302 488.835 412.631 486.54 409.988 484.276C412.233 480.42 418.684 468.976 419.622 462.427C420.56 455.879 420.049 446.576 415.302 441.344C414.236 440.041 412.924 438.998 411.454 438.284C409.984 437.569 408.389 437.2 406.776 437.2C405.164 437.2 403.569 437.569 402.099 438.284C400.629 438.998 399.317 440.041 398.25 441.344C392.055 449.3 396.63 467.354 401.234 475.187C401.234 475.463 402.513 476.993 403.849 478.829C401.32 476.534 398.79 474.239 396.289 471.791C389.213 464.906 382.079 457.654 375.145 450.371L370.711 445.873C372.644 442.66 379.721 430.42 380.715 423.473C381.71 416.527 381.142 407.623 376.395 402.359C375.329 401.057 374.017 400.014 372.547 399.299C371.077 398.585 369.482 398.215 367.869 398.215C366.257 398.215 364.662 398.585 363.192 399.299C361.722 400.014 360.41 401.057 359.343 402.359C353.148 410.315 357.723 428.369 362.185 436.234C362.356 436.509 363.72 438.345 365.255 440.395C361.361 436.54 357.439 432.715 353.432 429.073C346.613 422.764 339.406 416.957 331.861 411.692C332.572 410.56 341.155 396.392 342.235 388.681C343.201 381.827 342.661 372.83 337.915 367.567C336.848 366.265 335.536 365.222 334.066 364.507C332.596 363.793 331.002 363.423 329.389 363.423C327.776 363.423 326.182 363.793 324.712 364.507C323.242 365.222 321.93 366.265 320.863 367.567C314.667 375.523 319.243 393.577 323.705 401.441C324.017 401.992 328.962 408.632 330.781 410.927L330.526 410.744C323.005 405.753 315.082 401.503 306.852 398.045C299.515 394.923 292.019 392.257 284.4 390.058C277.352 387.947 270.787 386.478 264.961 385.223C261.806 384.581 258.907 384.03 256.207 383.571C256.207 383.571 246.516 376.564 245.862 376.227C238.161 372.096 220.995 369.005 214.288 376.441C213.17 377.707 212.317 379.217 211.786 380.867C211.255 382.518 211.059 384.271 211.209 386.011C211.36 387.75 211.855 389.434 212.66 390.95C213.466 392.467 214.563 393.78 215.879 394.801C221.194 399.361 229.578 399.024 235.773 397.28C241.969 395.536 252.825 386.509 255.667 384.244C258.509 384.795 261.351 385.407 264.762 386.141C270.446 387.549 277.068 389.201 284.03 391.435C285.906 392.017 287.867 392.751 289.714 393.424C286.247 393.027 281.473 392.567 281.018 392.567C272.492 392.72 255.866 398.504 253.081 408.418C252.662 410.078 252.573 411.815 252.82 413.515C253.066 415.214 253.643 416.839 254.512 418.283C255.38 419.726 256.522 420.956 257.862 421.893C259.202 422.83 260.711 423.452 262.289 423.718C268.968 425.126 276.243 420.658 281.046 416.068C285.849 411.478 291.846 397.525 293.068 394.648C297.331 396.209 301.594 397.892 306.084 399.942C314.144 403.555 321.886 407.938 329.218 413.039C329.616 413.314 330.042 413.681 330.44 413.987C328.763 413.467 319.356 411.356 318.674 411.295C310.148 410.438 293.096 414.355 289.288 423.749C288.691 425.353 288.416 427.076 288.481 428.803C288.547 430.53 288.951 432.222 289.668 433.769C290.385 435.315 291.398 436.681 292.64 437.776C293.883 438.87 295.326 439.669 296.876 440.12C303.384 442.292 311.086 438.743 316.316 434.704C322.341 430.052 330.526 414.783 330.724 414.202C337.897 419.503 344.75 425.288 351.244 431.521C356.047 436.111 360.764 441.007 365.454 445.934C363.237 445.322 354.484 443.333 353.83 443.272C345.304 442.415 328.252 446.332 324.444 455.756C323.851 457.359 323.58 459.079 323.648 460.802C323.716 462.526 324.121 464.214 324.838 465.757C325.554 467.3 326.566 468.662 327.805 469.755C329.045 470.847 330.485 471.646 332.032 472.097C338.54 474.269 346.242 470.72 351.471 466.681C357.354 462.152 365.17 447.556 365.823 446.332C367.955 448.565 370.086 450.799 372.189 453.064C379.095 460.469 385.973 467.905 392.993 475.004C395.408 477.482 397.881 479.808 400.353 482.164C397.028 481.338 390.946 479.992 390.406 479.93C381.88 479.074 364.828 482.99 361.02 492.415C360.428 494.018 360.157 495.737 360.224 497.461C360.292 499.184 360.698 500.873 361.414 502.416C362.131 503.959 363.142 505.321 364.382 506.414C365.622 507.506 367.062 508.304 368.608 508.756C375.088 510.959 382.818 507.379 388.019 503.37C393.22 499.361 400.098 487.183 401.973 483.755C406.123 487.611 410.3 491.375 414.592 494.863C416.468 496.301 418.287 497.923 420.276 499.208L425.818 503.186C429.683 505.787 433.264 508.174 436.93 510.469C438.749 511.663 440.511 512.734 442.33 513.835C439.062 512.458 433.804 510.408 433.378 510.255C425.022 508.021 407.657 508.97 402.57 517.783C401.756 519.271 401.243 520.928 401.065 522.645C400.888 524.362 401.051 526.1 401.542 527.745C402.033 529.39 402.842 530.904 403.916 532.188C404.989 533.471 406.303 534.496 407.771 535.194C413.881 538.407 421.981 536.143 427.665 533.021C434.003 529.564 443.523 516.895 444.717 515.335C449.151 518.058 453.47 520.628 457.563 522.985C468.476 529.288 478.025 534.307 485.415 538.04C509.458 560.439 543.278 562.887 543.278 562.887C543.278 562.887 545.068 519.251 521.224 490.549C513.075 481.085 503.144 473.605 492.093 468.608ZM449.179 511.173C449.918 509.368 455.687 495.506 456.085 487.703L460.064 486.815C462.506 500.593 467.588 513.672 474.984 525.218C470.608 522.995 465.871 520.506 460.774 517.752C457.108 515.702 453.186 513.499 449.179 511.173Z" fill="#1687A7"/>
<path d="M669.378 460.285C669.378 460.285 628.823 461.601 604.012 489.386C579.201 517.17 579.514 560.806 579.514 560.806C579.514 560.806 620.041 559.46 644.88 531.705C669.719 503.951 669.378 460.285 669.378 460.285Z" fill="#1687A7"/>
<g opacity="0.5">
<path opacity="0.5" d="M405.839 291.159C405.839 291.159 419.139 279.868 422.521 272.615C425.363 266.495 427.523 257.713 424.539 251.195C423.891 249.615 422.939 248.2 421.747 247.044C420.554 245.888 419.148 245.017 417.621 244.488C416.093 243.959 414.479 243.784 412.884 243.975C411.289 244.166 409.75 244.718 408.368 245.596C400.183 251.073 399.302 269.77 401.405 278.766C401.576 279.47 405.696 291.281 405.839 291.159Z" fill="white"/>
<path opacity="0.5" d="M282.921 385.346C283.461 385.897 292.954 393.271 293.01 393.118C293.067 392.965 298.297 375.799 297.416 367.72C296.677 360.835 293.948 352.42 288.094 348.595C286.743 347.666 285.224 347.055 283.638 346.802C282.052 346.549 280.434 346.66 278.891 347.129C277.347 347.597 275.914 348.411 274.683 349.518C273.453 350.625 272.454 352 271.752 353.552C267.717 362.977 276.584 379.073 282.921 385.346Z" fill="white"/>
<path opacity="0.5" d="M561.466 308.295C561.466 308.295 512.811 362.396 513.152 428.828C513.493 495.261 562.518 548.903 562.518 548.903C562.518 548.903 611.201 494.833 610.832 428.369C610.462 361.906 561.466 308.295 561.466 308.295Z" fill="white"/>
<path opacity="0.5" d="M492.093 468.608C492.733 467.87 493.322 467.083 493.855 466.252C497.379 460.469 500.42 452.054 498.147 445.138C497.671 443.489 496.876 441.968 495.815 440.673C494.754 439.378 493.451 438.34 491.991 437.626C490.531 436.912 488.947 436.539 487.343 436.531C485.739 436.523 484.152 436.881 482.686 437.58C476.064 440.946 472.824 452.36 472.142 461.693C469.499 461.05 467.112 460.561 465.066 460.163C464.213 458.051 463.332 455.94 462.423 453.798C461.513 451.656 460.803 449.361 459.95 447.097C458.785 443.792 457.762 440.303 456.71 436.815C460.547 434.979 471.745 429.318 475.922 424.361C480.1 419.404 484.448 411.386 483.141 404.195C482.9 402.491 482.328 400.86 481.461 399.41C480.594 397.96 479.452 396.723 478.111 395.781C476.769 394.839 475.258 394.213 473.676 393.944C472.094 393.675 470.477 393.769 468.931 394.22C459.666 397.28 454.238 414.967 454.067 424.238C454.067 424.514 454.067 426.472 454.38 428.828C453.47 425.401 452.504 421.974 451.68 418.455C449.293 408.51 447.161 398.29 445.001 388.069C444.547 385.958 444.063 383.816 443.609 381.704C446.849 380.144 459.041 374.146 463.503 368.944C467.965 363.742 472.029 355.97 470.721 348.779C470.481 347.074 469.908 345.443 469.041 343.993C468.175 342.543 467.033 341.307 465.691 340.365C464.35 339.423 462.838 338.797 461.256 338.528C459.674 338.259 458.057 338.353 456.511 338.803C447.275 341.863 441.847 359.55 441.648 368.822C441.648 369.128 441.818 371.484 442.046 374.116C440.795 368.577 439.488 363.069 438.01 357.653C435.557 348.333 432.519 339.203 428.916 330.327C430.081 329.807 444.518 323.075 449.378 317.291C453.669 312.151 457.904 304.317 456.568 297.126C456.328 295.421 455.755 293.79 454.888 292.34C454.021 290.89 452.88 289.654 451.538 288.712C450.196 287.77 448.685 287.144 447.103 286.875C445.521 286.606 443.904 286.7 442.358 287.15C433.122 290.21 427.694 307.897 427.495 317.169C427.495 317.812 428.205 326.349 428.546 329.409C428.535 329.307 428.535 329.205 428.546 329.103C424.817 320.487 420.385 312.243 415.302 304.47C410.782 297.504 405.895 290.822 400.666 284.458C395.863 278.338 391.145 273.381 386.939 268.882C384.637 266.465 382.477 264.292 380.459 262.303H380.658C380.829 262.303 376.168 250.736 375.799 250.063C371.479 242.046 358.747 229.286 349.34 231.489C347.774 231.861 346.3 232.585 345.013 233.613C343.726 234.642 342.655 235.952 341.871 237.458C341.088 238.963 340.609 240.63 340.465 242.349C340.322 244.068 340.518 245.8 341.041 247.432C343.144 254.408 350.306 259.09 356.359 261.355C362.413 263.619 376.253 262.548 379.578 262.212C381.625 264.354 383.813 266.649 386.172 269.219C390.293 273.809 394.897 279.042 399.558 285.07C400.808 286.692 402.087 288.466 403.338 290.18C400.666 287.762 396.915 284.549 396.517 284.274C389.27 279.317 372.502 274.299 365.113 280.908C363.891 282.041 362.906 283.442 362.225 285.016C361.545 286.591 361.183 288.303 361.164 290.04C361.145 291.776 361.47 293.497 362.116 295.088C362.763 296.68 363.716 298.104 364.914 299.268C369.745 304.409 378.129 305.021 384.495 304.011C390.861 303.001 402.968 294.831 405.554 293.209C408.396 297.004 411.039 301.012 413.682 305.449C418.54 313.195 422.753 321.386 426.273 329.929C426.471 330.419 426.614 330.97 426.812 331.459C425.676 330.021 418.912 322.677 418.286 322.279C411.579 316.465 395.55 309.519 387.394 315.211C386.077 316.195 384.968 317.469 384.141 318.947C383.313 320.426 382.785 322.076 382.592 323.79C382.399 325.503 382.545 327.242 383.019 328.89C383.494 330.539 384.288 332.061 385.348 333.356C389.639 339.048 397.881 340.639 404.304 340.394C411.721 340.119 426.301 332.194 426.841 331.888C430.118 340.561 432.871 349.454 435.083 358.51C436.731 365.211 438.181 372.065 439.545 378.95C438.038 377.114 431.729 370.291 431.218 369.77C424.51 363.987 408.482 357.01 400.325 362.732C399.008 363.717 397.899 364.99 397.072 366.469C396.244 367.947 395.717 369.598 395.523 371.311C395.33 373.025 395.476 374.763 395.951 376.412C396.425 378.061 397.219 379.583 398.279 380.878C402.57 386.539 410.812 388.161 417.235 387.916C424.482 387.61 438.493 380.083 439.658 379.44L441.534 388.865C443.495 399.116 445.428 409.397 447.616 419.465C448.383 422.953 449.236 426.38 450.088 429.808C447.73 427.145 443.353 422.402 442.927 422.035C436.22 416.252 420.191 409.275 412.034 414.997C410.717 415.982 409.608 417.255 408.781 418.734C407.953 420.212 407.426 421.863 407.232 423.576C407.039 425.29 407.185 427.028 407.66 428.677C408.134 430.326 408.928 431.848 409.988 433.143C414.279 438.804 422.521 440.426 428.944 440.15C435.367 439.875 447.303 433.847 450.657 432.103C452.106 437.794 453.669 443.394 455.46 448.841C456.284 451.166 456.966 453.614 457.876 455.787L459.24 459.275L457.563 459C457.563 459 457.421 462.244 457.705 467.507C450.628 462.091 440.426 457.409 433.775 460.683C432.336 461.442 431.062 462.519 430.037 463.845C429.011 465.171 428.258 466.715 427.826 468.377C427.394 470.038 427.293 471.779 427.53 473.486C427.766 475.192 428.336 476.825 429.2 478.278C429.617 479.068 430.113 479.806 430.678 480.481C431.932 488.527 435.083 496.092 439.829 502.452C440.198 502.88 445.001 507.685 447.502 510.071C445.087 508.633 442.671 507.256 440.17 505.726C436.561 503.584 432.809 501.167 429.143 498.841L423.459 494.986C421.526 493.731 419.821 492.262 417.974 490.885C415.302 488.835 412.631 486.54 409.988 484.276C412.233 480.42 418.684 468.976 419.622 462.427C420.56 455.879 420.049 446.576 415.302 441.344C414.236 440.041 412.924 438.998 411.454 438.284C409.984 437.569 408.389 437.2 406.776 437.2C405.164 437.2 403.569 437.569 402.099 438.284C400.629 438.998 399.317 440.041 398.25 441.344C392.055 449.3 396.63 467.354 401.234 475.187C401.234 475.463 402.513 476.993 403.849 478.829C401.32 476.534 398.79 474.239 396.289 471.791C389.213 464.906 382.079 457.654 375.145 450.371L370.711 445.873C372.644 442.66 379.721 430.42 380.715 423.473C381.71 416.527 381.142 407.623 376.395 402.359C375.329 401.057 374.017 400.014 372.547 399.299C371.077 398.585 369.482 398.215 367.869 398.215C366.257 398.215 364.662 398.585 363.192 399.299C361.722 400.014 360.41 401.057 359.343 402.359C353.148 410.315 357.723 428.369 362.185 436.234C362.356 436.509 363.72 438.345 365.255 440.395C361.361 436.54 357.439 432.715 353.432 429.073C346.613 422.764 339.406 416.957 331.861 411.692C332.572 410.56 341.155 396.392 342.235 388.681C343.201 381.827 342.661 372.83 337.915 367.567C336.848 366.265 335.536 365.222 334.066 364.507C332.596 363.793 331.002 363.423 329.389 363.423C327.776 363.423 326.182 363.793 324.712 364.507C323.242 365.222 321.93 366.265 320.863 367.567C314.667 375.523 319.243 393.577 323.705 401.441C324.017 401.992 328.962 408.632 330.781 410.927L330.526 410.744C323.005 405.753 315.082 401.503 306.852 398.045C299.515 394.923 292.019 392.257 284.4 390.058C277.352 387.947 270.787 386.478 264.961 385.223C261.806 384.581 258.907 384.03 256.207 383.571C256.207 383.571 246.516 376.564 245.862 376.227C238.161 372.096 220.995 369.005 214.288 376.441C213.17 377.707 212.317 379.217 211.786 380.867C211.255 382.518 211.059 384.271 211.209 386.011C211.36 387.75 211.855 389.434 212.66 390.95C213.466 392.467 214.563 393.78 215.879 394.801C221.194 399.361 229.578 399.024 235.773 397.28C241.969 395.536 252.825 386.509 255.667 384.244C258.509 384.795 261.351 385.407 264.762 386.141C270.446 387.549 277.068 389.201 284.03 391.435C285.906 392.017 287.867 392.751 289.714 393.424C286.247 393.027 281.473 392.567 281.018 392.567C272.492 392.72 255.866 398.504 253.081 408.418C252.662 410.078 252.573 411.815 252.82 413.515C253.066 415.214 253.643 416.839 254.512 418.283C255.38 419.726 256.522 420.956 257.862 421.893C259.202 422.83 260.711 423.452 262.289 423.718C268.968 425.126 276.243 420.658 281.046 416.068C285.849 411.478 291.846 397.525 293.068 394.648C297.331 396.209 301.594 397.892 306.084 399.942C314.144 403.555 321.886 407.938 329.218 413.039C329.616 413.314 330.042 413.681 330.44 413.987C328.763 413.467 319.356 411.356 318.674 411.295C310.148 410.438 293.096 414.355 289.288 423.749C288.691 425.353 288.416 427.076 288.481 428.803C288.547 430.53 288.951 432.222 289.668 433.769C290.385 435.315 291.398 436.681 292.64 437.776C293.883 438.87 295.326 439.669 296.876 440.12C303.384 442.292 311.086 438.743 316.316 434.704C322.341 430.052 330.526 414.783 330.724 414.202C337.897 419.503 344.75 425.288 351.244 431.521C356.047 436.111 360.764 441.007 365.454 445.934C363.237 445.322 354.484 443.333 353.83 443.272C345.304 442.415 328.252 446.332 324.444 455.756C323.851 457.359 323.58 459.079 323.648 460.802C323.716 462.526 324.121 464.214 324.838 465.757C325.554 467.3 326.566 468.662 327.805 469.755C329.045 470.847 330.485 471.646 332.032 472.097C338.54 474.269 346.242 470.72 351.471 466.681C357.354 462.152 365.17 447.556 365.823 446.332C367.955 448.565 370.086 450.799 372.189 453.064C379.095 460.469 385.973 467.905 392.993 475.004C395.408 477.482 397.881 479.808 400.353 482.164C397.028 481.338 390.946 479.992 390.406 479.93C381.88 479.074 364.828 482.99 361.02 492.415C360.428 494.018 360.157 495.737 360.224 497.461C360.292 499.184 360.698 500.873 361.414 502.416C362.131 503.959 363.142 505.321 364.382 506.414C365.622 507.506 367.062 508.304 368.608 508.756C375.088 510.959 382.818 507.379 388.019 503.37C393.22 499.361 400.098 487.183 401.973 483.755C406.123 487.611 410.3 491.375 414.592 494.863C416.468 496.301 418.287 497.923 420.276 499.208L425.818 503.186C429.683 505.787 433.264 508.174 436.93 510.469C438.749 511.663 440.511 512.734 442.33 513.835C439.062 512.458 433.804 510.408 433.378 510.255C425.022 508.021 407.657 508.97 402.57 517.783C401.756 519.271 401.243 520.928 401.065 522.645C400.888 524.362 401.051 526.1 401.542 527.745C402.033 529.39 402.842 530.904 403.916 532.188C404.989 533.471 406.303 534.496 407.771 535.194C413.881 538.407 421.981 536.143 427.665 533.021C434.003 529.564 443.523 516.895 444.717 515.335C449.151 518.058 453.47 520.628 457.563 522.985C468.476 529.288 478.025 534.307 485.415 538.04C509.458 560.439 543.278 562.887 543.278 562.887C543.278 562.887 545.068 519.251 521.224 490.549C513.075 481.085 503.144 473.605 492.093 468.608ZM449.179 511.173C449.918 509.368 455.687 495.506 456.085 487.703L460.064 486.815C462.506 500.593 467.588 513.672 474.984 525.218C470.608 522.995 465.871 520.506 460.774 517.752C457.108 515.702 453.186 513.499 449.179 511.173Z" fill="white"/>
<path opacity="0.5" d="M669.378 460.285C669.378 460.285 628.823 461.601 604.012 489.386C579.201 517.17 579.514 560.806 579.514 560.806C579.514 560.806 620.041 559.46 644.88 531.705C669.719 503.951 669.378 460.285 669.378 460.285Z" fill="white"/>
</g>
<path d="M563.485 488.407L603.302 449.85L601.596 447.8L563.457 484.704L563.258 434.214L563.457 434.367L597.163 381.337L595.031 379.777L563.258 429.838L562.746 308.295H560.217L560.53 390.793L535.179 367.169L533.502 369.25L560.558 394.465L560.785 453.431L522.361 416.833L520.656 418.883L560.785 457.133L561.013 510.836L532.138 486.448L530.575 488.59L561.041 514.355L561.155 548.903H563.713L563.485 488.376V488.407Z" fill="white"/>
<path d="M526.795 503.279L524.266 502.973L521.054 533.481L503.945 512.918H504.002L499.654 475.953L497.125 476.32L500.99 509.368L458.502 458.205L456.598 460.041L485.444 494.741L467.17 494.986L467.227 497.74L487.689 497.465L507.924 521.792L479.362 521.823V524.576L510.198 524.546L528.586 546.67L508.436 547.986L508.606 550.709L530.745 549.271L542.994 564.02L544.899 562.184L523.328 536.235L526.795 503.279Z" fill="white"/>
<path d="M623.025 514.172L656.902 506.736L656.39 504.044L626.094 510.684L670.288 461.234L668.44 459.337L638.457 492.875L636.866 473.291L634.336 473.535L636.098 495.506L615.067 519.038L612.908 488.376L610.35 488.591L612.709 521.7L593.582 543.059L590.882 521.547L588.324 521.914L591.308 545.598L578.576 559.858L580.423 561.755L602.847 536.663L633.654 537.918L633.739 535.194L605.234 534.001L622.997 514.111L623.025 514.172Z" fill="white"/>
<path d="M640.332 407.745C653.626 407.745 664.403 396.017 664.403 381.551C664.403 367.085 653.626 355.357 640.332 355.357C627.037 355.357 616.26 367.085 616.26 381.551C616.26 396.017 627.037 407.745 640.332 407.745Z" fill="#263238" stroke="#263238" stroke-linecap="round" stroke-linejoin="round"/>
<path d="M707.146 453.217C707.146 453.217 718.514 452.697 721.356 474.392C724.198 496.088 736.078 552.667 737.073 560.592C738.067 568.518 733.634 578.065 722.863 581.768C712.091 585.47 706.152 574.362 705.157 569.069C704.162 563.775 694.67 499.331 694.67 499.331L707.146 453.217Z" fill="#263238" stroke="#263238" stroke-linecap="round" stroke-linejoin="round"/>
<path d="M596.507 505.971C596.507 505.971 546.715 528.645 546.715 536.877C546.715 545.108 577.38 625.617 577.38 625.617L709.505 588.499L694.698 499.392C694.698 499.392 675.031 472.984 596.507 505.971Z" fill="#1687A7" stroke="#263238" stroke-linecap="round" stroke-linejoin="round"/>
<path d="M641.922 457.317C641.922 457.317 627.712 466.834 616.344 473.688C604.976 480.542 587.924 490.09 587.924 509.153C587.924 528.217 600.713 603.83 600.713 611.755C600.478 615.292 600.641 618.847 601.196 622.343C601.196 620.752 687.65 590.06 687.65 590.06C690.31 577.889 693.592 565.886 697.483 554.105C701.916 542.477 697.483 532.409 702.4 513.376C707.316 494.343 716.61 481.644 712.716 467.476C708.823 453.308 707.799 453.737 693.561 453.186C679.323 452.635 655.677 452.543 641.922 457.317Z" fill="#263238" stroke="#263238" stroke-linecap="round" stroke-linejoin="round"/>
<path d="M635.442 448.994C635.442 448.994 629.048 452.697 626.575 469.619C624.972 483.127 624.156 496.73 624.131 510.347C624.131 510.347 650.647 494.497 654.597 493.946C658.547 493.395 687.024 506.186 687.024 506.186C684.713 492.18 681.426 478.381 677.191 464.906C671.308 447.923 641.325 441.589 635.442 448.994Z" fill="white" stroke="#263238" stroke-linecap="round" stroke-linejoin="round"/>
<path d="M630.525 444.771L631.009 446.577C632.913 453.737 640.046 480.237 644.281 493.425C649.197 508.725 656.558 515.121 656.558 515.121L663.919 483.48C663.919 483.48 634.93 453.217 630.525 444.771Z" fill="white" stroke="#263238" stroke-linecap="round" stroke-linejoin="round"/>
<path d="M656.502 377.053C656.502 377.053 632.43 372.83 624.075 406.674C615.72 440.518 642.747 469.618 650.591 480.726C658.435 491.834 669.803 495.383 676.169 484.429C686.002 467.507 688.958 459.031 690.379 436.815C691.8 414.599 689.384 399.789 680.062 388.161C677.049 384.674 673.403 381.89 669.351 379.98C665.299 378.069 660.926 377.073 656.502 377.053Z" fill="white" stroke="#263238" stroke-linecap="round" stroke-linejoin="round"/>
<path d="M680.148 388.161C677.131 384.671 673.481 381.884 669.424 379.973C665.366 378.063 660.988 377.069 656.56 377.053C656.56 377.053 632.488 372.83 624.132 406.674C621.844 416.273 622.071 426.367 624.786 435.836C625.667 433.418 627.003 431.521 629.049 431.521C634.932 431.521 635.444 440.518 637.405 439.997C639.366 439.477 647.209 432.072 645.76 425.187C644.311 418.302 646.243 415.15 656.56 415.15C666.876 415.15 669.32 419.893 672.759 418.853C676.198 417.812 678.67 410.377 682.109 410.377C683.645 410.435 685.155 410.822 686.551 411.515C687.946 412.209 689.2 413.195 690.237 414.416C689.48 404.751 685.954 395.577 680.148 388.161Z" fill="#263238" stroke="#263238" stroke-linecap="round" stroke-linejoin="round"/>
<path d="M637.404 443.18C637.404 443.18 633.454 432.592 629.049 431.521C624.644 430.45 622.171 433.663 624.616 442.629C627.06 451.595 630.527 455.328 632.488 455.328C634.449 455.328 635.33 452.268 635.33 452.268" fill="white"/>
<path d="M637.404 443.18C637.404 443.18 633.454 432.592 629.049 431.521C624.644 430.45 622.171 433.663 624.616 442.629C627.06 451.595 630.527 455.328 632.488 455.328C634.449 455.328 635.33 452.268 635.33 452.268" stroke="#263238" stroke-linecap="round" stroke-linejoin="round"/>
<path d="M601.537 551.596C601.537 551.596 603.981 568.548 614.809 576.076C625.637 583.603 640.387 579.778 640.387 579.778" stroke="#263238" stroke-linecap="round" stroke-linejoin="round"/>
<path d="M656.502 515.12C656.502 515.12 663.38 543.15 661.902 555.298" stroke="#263238" stroke-linecap="round" stroke-linejoin="round"/>
<path d="M509.741 507.96C509.741 507.96 515.71 510.623 520.2 527.238C524.69 543.854 536.598 574.362 539.583 586.143C542.567 597.924 541.572 612.918 528.641 616.743C515.71 620.568 501.784 582.471 499.794 579.258C497.805 576.045 492.832 546.057 495.333 529.992C497.833 513.927 504.285 505.849 509.741 507.96Z" fill="white" stroke="#263238" stroke-linecap="round" stroke-linejoin="round"/>
<path d="M438.919 563.591C438.919 563.591 361.219 645.201 361.219 657.441C361.219 669.681 406.947 770.906 419.736 768.611C432.525 766.316 490.075 700.281 490.075 700.281L438.919 563.591Z" fill="#1687A7" stroke="#263238" stroke-linecap="round" stroke-linejoin="round"/>
<path d="M441.108 520.842C426.344 534.906 412.392 549.928 399.33 565.824C381.909 587.765 383.415 624.729 388.872 649.883C394.328 675.036 404.304 746.273 416.723 748.965C429.143 751.658 439.118 723.261 461.002 703.065C482.885 682.869 500.306 665.58 501.784 652.178C503.262 638.775 501.301 595.965 502.296 592.752C504.662 576.981 505.991 561.05 506.275 545.078C506.275 529.563 495.333 512.427 484.391 508.664C473.45 504.9 445.57 517.14 441.108 520.842Z" fill="white" stroke="#263238" stroke-linecap="round" stroke-linejoin="round"/>
<path d="M541.857 1024.58C541.857 1024.58 525.771 1060.2 502.751 1082.87C479.73 1105.55 443.609 1133.61 443.609 1133.61C443.609 1133.61 481.691 1146.58 489.734 1147.65C497.777 1148.72 495.731 1153.04 486.722 1157.38C477.713 1161.73 466.657 1164.94 441.591 1164.94C416.524 1164.94 400.495 1164.94 399.472 1158.46C398.449 1151.97 414.535 1135.78 426.557 1122.84C438.578 1109.89 484.704 1028.89 488.711 1024.58C492.718 1020.27 520.797 1006.22 541.857 1024.58Z" fill="white" stroke="#263238" stroke-linecap="round" stroke-linejoin="round"/>
<path d="M489.734 1147.65C483.112 1146.77 456.141 1137.83 446.82 1134.71L439.601 1151.97C434.152 1152.92 428.573 1152.49 423.305 1150.71C418.037 1148.94 413.225 1145.87 409.248 1141.75C403.252 1148.75 398.932 1155 399.443 1158.45C400.467 1164.94 416.495 1164.94 441.562 1164.94C466.628 1164.94 477.655 1161.7 486.693 1157.38C495.73 1153.07 497.748 1148.72 489.734 1147.65Z" fill="#263238" stroke="#263238" stroke-linecap="round" stroke-linejoin="round"/>
<path d="M829.523 1024.58C829.523 1024.58 845.581 1060.2 868.629 1082.87C891.678 1105.55 927.8 1133.61 927.8 1133.61C927.8 1133.61 889.689 1146.58 881.674 1147.65C873.66 1148.72 875.649 1153.04 884.687 1157.38C893.724 1161.73 904.581 1164.94 929.789 1164.94C954.998 1164.94 970.913 1164.94 971.908 1158.46C972.902 1151.97 956.873 1135.78 944.823 1122.84C932.773 1109.89 886.676 1028.89 882.669 1024.58C878.662 1020.27 850.583 1006.22 829.523 1024.58Z" fill="white" stroke="#263238" stroke-linecap="round" stroke-linejoin="round"/>
<path d="M881.674 1147.65C888.267 1146.77 915.266 1137.83 924.588 1134.71L931.807 1151.97C937.251 1152.91 942.824 1152.47 948.086 1150.7C953.348 1148.93 958.156 1145.86 962.131 1141.75C968.099 1148.75 972.447 1155 971.907 1158.45C970.913 1164.94 954.855 1164.94 929.789 1164.94C904.723 1164.94 893.696 1161.7 884.686 1157.38C875.677 1153.07 873.66 1148.72 881.674 1147.65Z" fill="#263238" stroke="#263238" stroke-linecap="round" stroke-linejoin="round"/>
<path d="M310.233 1039.7C310.233 1039.7 324.273 1067.76 323.278 1077.49C322.454 1085.41 304.919 1145.94 298.524 1167.85C298.273 1168.71 298.224 1169.63 298.381 1170.52C298.538 1171.41 298.897 1172.25 299.425 1172.95C299.954 1173.66 300.636 1174.21 301.41 1174.56C302.185 1174.92 303.029 1175.06 303.867 1174.98C304.866 1174.88 305.816 1174.47 306.599 1173.79C307.383 1173.12 307.964 1172.21 308.272 1171.18L336.323 1078.56C336.323 1078.56 341.325 1072.07 357.382 1068.86C369.659 1066.35 430.819 1063.26 458.728 1061.94C463.877 1061.63 468.94 1063.47 472.848 1067.1C476.755 1070.73 479.203 1075.84 479.673 1081.37C479.673 1081.53 479.673 1081.65 479.673 1081.8C480.554 1094.26 499.567 1158.67 503.887 1172.93C504.122 1173.71 504.61 1174.38 505.262 1174.8C505.914 1175.23 506.687 1175.39 507.44 1175.25C507.864 1175.18 508.27 1175.01 508.632 1174.76C508.994 1174.51 509.305 1174.18 509.547 1173.8C509.789 1173.42 509.956 1172.98 510.038 1172.53C510.12 1172.07 510.116 1171.61 510.026 1171.15C506.615 1154.45 491.979 1082.41 486.693 1046.18C486.693 1046.18 380.402 1051.57 356.331 1045.08C341.862 1041.19 328.012 1035 315.235 1026.72C315.235 1026.72 309.239 1026.75 310.233 1039.7Z" fill="#263238" stroke="#263238" stroke-linecap="round" stroke-linejoin="round"/>
<path d="M301.252 849.701C301.252 849.701 265.13 971.673 271.127 993.276C277.123 1014.88 306.226 1045.08 317.252 1045.08C328.279 1045.08 337.317 926.354 337.317 915.552C337.317 904.75 318.304 865.98 312.251 849.701C306.197 833.422 301.252 849.701 301.252 849.701Z" fill="#1687A7" stroke="#263238" stroke-linecap="round" stroke-linejoin="round"/>
<path d="M498.601 1032.14C498.232 1044.38 496.47 1053.74 491.724 1053.74C482.715 1053.74 384.438 1064.51 361.39 1063.44C338.341 1062.37 321.289 1049.58 321.289 1031.22C321.289 1012.86 322.284 931.893 339.336 921.06C356.388 910.228 446.621 909.188 467.68 909.188C493.6 909.188 494.708 963.105 495.816 981.373C496.129 986.636 499.17 1012.86 498.601 1032.14Z" fill="#1687A7" stroke="#263238" stroke-linecap="round" stroke-linejoin="round"/>
<path d="M472.681 1033.21C472.681 1033.21 536.854 1035.38 541.855 1024.58C546.857 1013.78 541.855 991.103 528.839 986.789C515.823 982.474 461.654 985.718 461.654 985.718L472.681 1033.21Z" fill="white" stroke="#263238" stroke-linecap="round" stroke-linejoin="round"/>
<path d="M317.252 931.74C313.436 946.167 311.748 961.15 312.251 976.14C313.245 999.917 319.27 1023.66 349.197 1043.09C379.123 1062.52 477.541 1039.85 477.541 1039.85L470.522 898.417C470.522 898.417 405.354 889.787 369.261 897.346C333.168 904.904 318.304 927.425 317.252 931.74Z" fill="#263238" stroke="#263238" stroke-linecap="round" stroke-linejoin="round"/>
<path d="M787.234 434.122C780.017 442.306 774.359 451.932 770.58 462.458C765.208 478.676 747.474 527.269 748.014 536.51C748.554 545.751 756.057 557.349 763.588 550.984C771.119 544.619 789.365 510.5 790.445 508.756C791.525 507.012 792.605 482.715 792.605 467.66C792.605 452.605 793.543 433.541 787.234 434.122Z" fill="white" stroke="#263238" stroke-linecap="round" stroke-linejoin="round"/>
<path d="M804.57 486.081C810.453 484.857 944.795 516.681 944.795 532.991C944.795 549.301 914.47 639.081 914.47 639.081L785.643 602.361C785.643 602.361 788.229 489.6 804.57 486.081Z" fill="#1687A7" stroke="#263238" stroke-linecap="round" stroke-linejoin="round"/>
<path d="M849.958 415.61C849.958 415.61 820.941 412.121 800.507 423.137C780.073 434.153 780.101 452.636 781.181 470.567C782.261 488.499 787.803 585.225 789.423 592.172C791.043 599.118 827.932 597.282 849.418 601.902C870.903 606.523 885.966 587.429 889.206 579.901C892.446 572.373 930.045 498.903 930.045 483.297C930.045 467.691 914.471 438.162 892.417 424.269C879.676 416.023 864.617 412.952 849.958 415.61Z" fill="white" stroke="#263238" stroke-linecap="round" stroke-linejoin="round"/>
<path d="M829.522 475.187L835.434 489.08L812.328 575.861L817.7 592.63L833.302 579.901L841.885 490.824L853.708 476.932L847.796 461.295L829.522 475.187Z" fill="#263238" stroke="#263238" stroke-linecap="round" stroke-linejoin="round"/>
<path d="M831.143 439.324C827.965 445.839 825.266 452.612 823.072 459.581C821.624 467.193 820.91 474.945 820.94 482.715C820.94 482.715 838.134 474.025 842.966 474.025C847.797 474.025 857.46 497.77 857.46 497.77C857.46 497.77 871.983 474.606 874.143 457.99C876.303 441.374 859.62 429.073 847.797 429.073C844.427 429.039 841.108 429.97 838.182 431.771C835.255 433.573 832.826 436.179 831.143 439.324Z" fill="white" stroke="#263238" stroke-linecap="round" stroke-linejoin="round"/>
<path d="M892.388 422.555C892.388 422.555 897.788 413.865 898.84 421.974C899.891 430.083 893.468 436.417 889.717 438.743C888.768 439.447 887.643 439.824 886.491 439.824C885.339 439.824 884.214 439.447 883.266 438.743" fill="white"/>
<path d="M892.388 422.555C892.388 422.555 897.788 413.865 898.84 421.974C899.891 430.083 893.468 436.417 889.717 438.743C888.768 439.447 887.643 439.824 886.491 439.824C885.339 439.824 884.214 439.447 883.266 438.743" stroke="#263238" stroke-linecap="round" stroke-linejoin="round"/>
<path d="M837.595 388.987C837.595 388.987 832.223 384.367 829.069 393.608C825.914 402.849 831.229 414.446 831.229 414.446L836.6 402.206" fill="white"/>
<path d="M837.595 388.987C837.595 388.987 832.223 384.367 829.069 393.608C825.914 402.849 831.229 414.446 831.229 414.446L836.6 402.206" stroke="#263238" stroke-linecap="round" stroke-linejoin="round"/>
<path d="M837.595 466.527C837.352 467.413 837.308 468.349 837.466 469.257C837.624 470.166 837.979 471.021 838.503 471.752C839.027 472.484 839.705 473.071 840.481 473.466C841.257 473.861 842.109 474.052 842.967 474.024C849.958 474.606 864.452 458.418 865.532 454.93C866.612 451.441 837.595 466.527 837.595 466.527Z" fill="white" stroke="#263238" stroke-linecap="round" stroke-linejoin="round"/>
<path d="M862.86 353.706C862.86 353.706 844.046 362.886 839.755 377.421C835.463 391.956 828.387 421.393 828.387 432.501C828.387 443.609 831.598 466.161 838.589 469.527C845.581 472.893 868.686 456.797 875.109 452.177C881.532 447.556 889.092 429.625 897.163 419.19C905.234 408.755 911.657 389.692 908.531 374.086C905.405 358.48 881.646 339.814 862.86 353.706Z" fill="white" stroke="#263238" stroke-linecap="round" stroke-linejoin="round"/>
<path d="M908.53 373.963C905.29 358.326 881.645 339.813 862.859 353.705C862.859 353.705 844.045 362.885 839.754 377.42C837.708 384.305 835.064 394.556 832.848 404.624C836.514 398.504 842.596 387.947 842.965 385.529C843.505 382.041 843.505 381.46 847.257 381.46C851.008 381.46 857.999 393.026 867.691 395.352C877.382 397.678 890.256 395.933 890.256 401.717C890.256 407.5 882.725 416.772 887.556 419.648C891.336 421.913 887.954 429.716 888.295 433.112C890.972 428.212 893.964 423.519 897.247 419.067C905.29 408.663 911.741 389.569 908.53 373.963Z" fill="#263238" stroke="#263238" stroke-linecap="round" stroke-linejoin="round"/>
<path d="M838.134 409.826C838.134 409.826 856.948 419.649 866.071 423.137C875.194 426.625 884.345 430.634 881.105 436.999C877.865 443.364 867.151 446.179 860.7 443.364C854.248 440.548 855.868 426.013 852.174 425.432C848.479 424.851 845.751 432.378 838.76 432.378C831.768 432.378 824.237 420.811 825.317 412.703C826.397 404.594 838.134 409.826 838.134 409.826Z" fill="white" stroke="#263238" stroke-linecap="round" stroke-linejoin="round"/>
<path d="M882.725 431.215L895.087 417.904" stroke="#263238" stroke-linecap="round" stroke-linejoin="round"/>
<path d="M828.471 409.244L834.893 393.607" stroke="#263238" stroke-linecap="round" stroke-linejoin="round"/>
<path d="M978.529 531.95C978.529 531.95 942.89 566.1 933.654 575.984C924.417 585.867 923.991 604.87 932.772 609.124C941.554 613.377 969.292 595.874 973.669 592.079C978.046 588.285 989.953 534.306 978.529 531.95Z" fill="#263238" stroke="#263238" stroke-linecap="round" stroke-linejoin="round"/>
<path d="M1067.63 617.324C1067.63 617.324 1115.51 668.855 1105.94 685.348C1096.36 701.841 1004.45 753.402 1004.45 753.402L987.197 672.986L1067.63 617.324Z" fill="#1687A7" stroke="#263238" stroke-linecap="round" stroke-linejoin="round"/>
<path d="M1006.21 528.646C1006.21 528.646 986.004 526.749 978.53 531.951C971.055 537.153 965.769 585.47 964.32 614.356C962.87 643.243 959.488 666.376 961.25 672.099C963.013 677.821 1008.74 739.816 1015.25 748.354C1021.76 756.891 1075.07 669.742 1082.55 652.209C1090.02 634.675 1085.19 618.549 1075.5 594.466C1065.81 570.384 1045.17 548.046 1032.87 535.745C1029.34 532.233 1025.05 529.74 1020.39 528.499C1015.73 527.257 1010.85 527.308 1006.21 528.646Z" fill="#263238" stroke="#263238" stroke-linecap="round" stroke-linejoin="round"/>
<path d="M1005.78 585.929L1005.47 587.765C1004.9 591.161 1003.68 598.934 1002.63 607.716C1001.29 619.558 1001.75 635.256 1005.27 635.256C1008.8 635.256 1054.95 599.27 1055.83 566.62C1056.71 533.97 1009.31 572.22 1005.78 585.929Z" fill="white" stroke="#263238" stroke-linecap="round" stroke-linejoin="round"/>
<path d="M1003.6 521.547C1003.6 521.547 999.191 539.05 999.191 541.896C999.523 545.257 1000.11 548.584 1000.95 551.841C1000.95 551.841 993.478 564.631 994.359 566.039C995.403 567.427 996.574 568.698 997.855 569.833C997.855 569.833 997.002 587.826 1000.5 591.621C1003.99 595.415 1018.54 593.028 1018.54 593.028C1018.54 593.028 1011.5 602.514 1019.43 602.973C1027.35 603.432 1048.44 584.613 1054.61 573.628C1060.78 562.643 1060.29 542.844 1054.61 532.899C1048.93 522.954 1015.02 509.215 1003.6 521.547Z" fill="white" stroke="#263238" stroke-linecap="round" stroke-linejoin="round"/>
<path d="M1041.85 487.428C1041.85 487.428 1007.97 492.171 1001.83 506.369C995.695 520.567 1009.73 538.101 1019.85 540.488C1025.33 541.876 1030.94 542.503 1036.56 542.355C1036.56 542.355 1026.02 552.3 1032.61 554.595C1039.21 556.89 1042.28 555.543 1042.28 557.9C1042.28 560.256 1035.68 567.844 1041.39 568.334C1047.11 568.824 1048.87 557.9 1052.39 560.286C1055.92 562.673 1051.09 572.098 1052.85 572.526C1054.61 572.955 1071.32 554.166 1078.43 534.154C1085.53 514.141 1075.78 501.963 1068.76 495.353C1061.74 488.743 1050.2 485.071 1041.85 487.428Z" fill="#263238" stroke="#263238" stroke-linecap="round" stroke-linejoin="round"/>
<path d="M1041.85 570.292C1041.85 570.292 1048.02 554.992 1051.97 558.48C1055.92 561.969 1054.61 572.679 1050.2 576.473C1045.8 580.267 1037.44 575.983 1037.44 575.983" fill="white"/>
<path d="M1041.85 570.292C1041.85 570.292 1048.02 554.992 1051.97 558.48C1055.92 561.969 1054.61 572.679 1050.2 576.473C1045.8 580.267 1037.44 575.983 1037.44 575.983" stroke="#263238" stroke-linecap="round" stroke-linejoin="round"/>
<path d="M1002.71 611.969L1016.78 604.411L1014.59 627.116" fill="white"/>
<path d="M1002.71 611.969L1016.78 604.411L1014.59 627.116" stroke="#263238" stroke-linecap="round" stroke-linejoin="round"/>
<path d="M1114.63 1014.15C1114.63 1014.15 1089.34 1067.76 1090.33 1077.49C1091.16 1085.41 1108.69 1145.94 1115.11 1167.85C1115.36 1168.72 1115.4 1169.63 1115.24 1170.52C1115.08 1171.41 1114.72 1172.25 1114.19 1172.95C1113.66 1173.65 1112.98 1174.21 1112.2 1174.56C1111.43 1174.91 1110.58 1175.06 1109.74 1174.98C1108.74 1174.88 1107.79 1174.47 1107.01 1173.79C1106.23 1173.12 1105.65 1172.21 1105.34 1171.18L1077.32 1078.56C1077.32 1078.56 1072.29 1072.07 1056.26 1068.86C1043.95 1066.35 982.82 1063.26 954.883 1061.94C949.738 1061.63 944.682 1063.49 940.781 1067.11C936.879 1070.74 934.436 1075.85 933.966 1081.37C933.952 1081.52 933.952 1081.66 933.966 1081.8C933.056 1094.26 914.072 1158.67 909.723 1172.93C909.489 1173.71 909.001 1174.38 908.349 1174.8C907.696 1175.23 906.924 1175.39 906.171 1175.25C905.747 1175.18 905.341 1175.01 904.979 1174.76C904.617 1174.51 904.305 1174.18 904.063 1173.8C903.822 1173.42 903.655 1172.98 903.572 1172.53C903.49 1172.07 903.494 1171.61 903.585 1171.15C906.995 1154.45 921.631 1082.41 926.946 1046.18C926.946 1046.18 1033.21 1051.57 1057.28 1045.08C1081.35 1038.59 1109.66 1001.17 1109.66 1001.17C1109.66 1001.17 1115.63 1001.17 1114.63 1014.15Z" fill="#263238" stroke="#263238" stroke-linecap="round" stroke-linejoin="round"/>
<path d="M1131.6 836.39C1131.6 836.39 1159.28 960.901 1151.81 981.954C1144.33 1003.01 1113.3 1030.91 1102.3 1030C1091.3 1029.08 1090.36 909.983 1091.1 899.212C1091.84 888.441 1113.5 851.2 1120.6 835.38C1127.71 819.56 1131.6 836.39 1131.6 836.39Z" fill="#1687A7" stroke="#263238" stroke-linecap="round" stroke-linejoin="round"/>
<path d="M915.124 1032.14C915.465 1044.38 917.255 1053.74 921.973 1053.74C931.011 1053.74 1029.26 1064.51 1052.34 1063.44C1075.41 1062.37 1092.35 1049.58 1092.35 1031.22C1092.35 1012.86 1091.33 931.74 1074.28 921.06C1057.22 910.381 966.99 909.188 945.931 909.188C920.012 909.188 918.875 963.105 917.795 981.373C917.483 986.636 914.47 1012.86 915.124 1032.14Z" fill="#1687A7" stroke="#263238" stroke-linecap="round" stroke-linejoin="round"/>
<path d="M1085.19 931.708C1085.19 931.708 1076.89 953.526 1076.89 970.846C1076.89 988.165 1069.1 1022.25 1053.02 1032.29C1036.93 1042.33 1018.91 1047.96 992.285 1044.04C965.655 1040.12 907.707 1030.06 907.707 1030.06C907.707 1030.06 967.389 984.157 982.423 961.329C997.457 938.501 1002.66 919.438 1014.59 906.586C1026.53 893.734 1084.14 880.882 1085.19 931.708Z" fill="#263238" stroke="#263238" stroke-linecap="round" stroke-linejoin="round"/>
<path d="M728.093 1105.21C904.279 1105.21 1047.11 986.363 1047.11 839.756C1047.11 693.149 904.279 574.301 728.093 574.301C551.906 574.301 409.078 693.149 409.078 839.756C409.078 986.363 551.906 1105.21 728.093 1105.21Z" fill="#263238" stroke="#263238" stroke-linecap="round" stroke-linejoin="round"/>
<path d="M728.093 1097.25C904.279 1097.25 1047.11 978.406 1047.11 831.8C1047.11 685.193 904.279 566.345 728.093 566.345C551.906 566.345 409.078 685.193 409.078 831.8C409.078 978.406 551.906 1097.25 728.093 1097.25Z" fill="#1687A7" stroke="#263238" stroke-linecap="round" stroke-linejoin="round"/>
<path d="M886.164 668.794L926.634 716.622L854.93 772.008L813.607 718.029L886.164 668.794Z" fill="white" stroke="#263238" stroke-linecap="round" stroke-linejoin="round"/>
<path d="M667.273 672.925L601.055 709.584L659.714 786.971L727.808 738.103L667.273 672.925Z" fill="white" stroke="#263238" stroke-linecap="round" stroke-linejoin="round"/>
<path d="M767.68 750.435L701.49 787.093L760.121 864.481L828.215 815.613L767.68 750.435Z" fill="white" stroke="#263238" stroke-linecap="round" stroke-linejoin="round"/>
<path d="M760.292 756.064L688.986 779.014L733.435 866.683L808.691 832.075L760.292 756.064Z" fill="white" stroke="#263238" stroke-linecap="round" stroke-linejoin="round"/>
<path d="M675.203 629.442C675.203 629.442 688.077 624.27 688.077 627.728C688.077 631.186 688.077 634.644 682.393 636.388C676.709 638.132 657.469 633.787 662.3 631.186C666.421 629.555 670.834 628.958 675.203 629.442Z" fill="white" stroke="#263238" stroke-linecap="round" stroke-linejoin="round"/>
<path d="M603.982 480.727C603.982 480.727 587.299 487.061 578.944 498.199C570.588 509.338 566.666 538.377 564.734 551.076C562.801 563.775 553.934 611.909 558.851 617.723C563.767 623.537 616.316 643.121 626.632 646.303C636.949 649.486 649.368 654.229 656.132 653.708C661.074 652.945 665.783 650.954 669.888 647.894C669.888 647.894 681.682 653.708 684.609 653.708C687.536 653.708 691.487 647.894 688.048 642.05C684.609 636.205 675.032 627.729 669.632 627.729C664.232 627.729 644.338 630.942 644.338 630.942C644.338 630.942 610.433 612.429 600.6 605.024C594.436 600.309 588.681 595.004 583.406 589.173L603.555 521.455" fill="#263238"/>
<path d="M603.982 480.727C603.982 480.727 587.299 487.061 578.944 498.199C570.588 509.338 566.666 538.377 564.734 551.076C562.801 563.775 553.934 611.909 558.851 617.723C563.767 623.537 616.316 643.121 626.632 646.303C636.949 649.486 649.368 654.229 656.132 653.708C661.074 652.945 665.783 650.954 669.888 647.894C669.888 647.894 681.682 653.708 684.609 653.708C687.536 653.708 691.487 647.894 688.048 642.05C684.609 636.205 675.032 627.729 669.632 627.729C664.232 627.729 644.338 630.942 644.338 630.942C644.338 630.942 610.433 612.429 600.6 605.024C594.436 600.309 588.681 595.004 583.406 589.173L603.555 521.455" stroke="#263238" stroke-linecap="round" stroke-linejoin="round"/>
<path d="M669.575 627.728C664.175 627.728 644.281 630.941 644.281 630.941C644.281 630.941 640.53 628.922 635.187 625.923C631.038 628.954 627.861 633.294 626.093 638.346C625.462 640.78 625.109 643.287 625.041 645.813L626.576 646.302C636.892 649.362 649.312 654.228 656.076 653.708C661.017 652.944 665.727 650.954 669.831 647.894C669.831 647.894 681.625 653.708 684.553 653.708C687.48 653.708 691.43 647.894 687.991 642.049C684.553 636.204 674.975 627.728 669.575 627.728Z" fill="white" stroke="#263238" stroke-linecap="round" stroke-linejoin="round"/>
<path d="M444.574 533.144C443.067 533.633 431.642 547.067 430.648 562.611C429.653 578.156 440.595 603.83 442.584 608.114C444.574 612.398 442.101 619.895 447.075 619.895C452.048 619.895 467.48 595.262 467.48 595.262C467.48 595.262 484.873 596.333 486.863 591.528C488.852 586.724 472.937 559.919 469.469 548.688C466.002 537.458 453.043 530.481 444.574 533.144Z" fill="white" stroke="#263238" stroke-linecap="round" stroke-linejoin="round"/>
<path d="M443.58 525.126C443.614 532.493 442.948 539.845 441.59 547.066C439.601 554.563 439.118 558.327 446.564 570.108C454.041 580.697 462.189 590.717 470.948 600.096C470.948 600.096 471.943 587.856 472.455 580.818C472.966 573.78 482.885 569.557 484.874 566.344C486.864 563.131 473.932 560.989 468.959 551.35C463.985 541.711 463.985 525.126 457.022 523.504C450.06 521.883 446.194 517.629 443.58 525.126Z" fill="white" stroke="#263238" stroke-linecap="round" stroke-linejoin="round"/>
<path d="M510.252 492.446C510.252 492.446 524.178 488.162 521.62 473.168C519.063 458.174 493.769 446.944 466.429 449.606C439.089 452.268 426.641 471.577 424.14 490.855C421.639 510.133 440.538 528.86 442.527 532.073C444.517 535.286 442.044 538.499 448.012 540.641C452.074 541.869 456.371 541.869 460.432 540.641C461.903 542.919 463.955 544.689 466.341 545.737C468.727 546.786 471.344 547.067 473.875 546.547C482.401 544.405 479.843 526.198 483.339 524.056C486.834 521.914 489.307 514.876 499.737 508.511C510.167 502.146 510.252 492.446 510.252 492.446Z" fill="#263238" stroke="#263238" stroke-linecap="round" stroke-linejoin="round"/>
<path d="M467.963 536.908C467.963 536.908 468.958 528.34 459.011 527.269C449.064 526.198 451.565 536.449 453.554 541.192C455.544 545.935 462.478 549.76 462.478 549.76C462.478 549.76 464.979 562 468.475 563.132C471.97 564.264 492.831 573.842 496.895 572.312C500.959 570.782 504.852 550.892 504.852 550.892C504.852 550.892 511.815 547.128 511.815 543.395C511.815 539.662 508.717 528.86 508.717 526.32C508.717 523.78 514.202 516.13 515.197 510.255C516.192 504.38 510.224 492.568 510.224 492.568C510.224 492.568 507.723 502.207 499.765 502.207C494.375 502.074 489.024 501.179 483.85 499.545C483.85 499.545 487.829 510.775 484.845 515.61C481.861 520.445 476.887 519.343 475.892 521.485C474.898 523.627 475.409 533.266 474.898 535.408C474.386 537.55 470.947 544.925 467.963 536.908Z" fill="white" stroke="#263238" stroke-linecap="round" stroke-linejoin="round"/>
<path d="M516.221 595.262C516.221 595.262 518.693 616.682 523.667 625.25C528.64 633.818 549.529 667.019 549.529 667.019C549.529 667.019 548.051 678.28 549.529 681.493C552.507 688.236 555.006 695.212 557.003 702.362C557.003 704.504 560.982 706.126 561.465 702.913C561.798 700.43 561.969 697.925 561.977 695.416L570.503 709.339C570.503 709.339 574.993 713.072 576.471 709.859C577.949 706.646 576.983 689.51 577.977 682.564C578.972 675.618 573.999 665.948 570.02 661.664C566.041 657.38 561.067 649.883 559.561 648.292C558.055 646.701 551.604 621.517 548.62 604.381C545.635 587.245 537.678 576.535 531.71 575.464" fill="white"/>
<path d="M516.221 595.262C516.221 595.262 518.693 616.682 523.667 625.25C528.64 633.818 549.529 667.019 549.529 667.019C549.529 667.019 548.051 678.28 549.529 681.493C552.507 688.236 555.006 695.212 557.003 702.362C557.003 704.504 560.982 706.126 561.465 702.913C561.798 700.43 561.969 697.925 561.977 695.416L570.503 709.339C570.503 709.339 574.993 713.072 576.471 709.859C577.949 706.646 576.983 689.51 577.977 682.564C578.972 675.618 573.999 665.948 570.02 661.664C566.041 657.38 561.067 649.883 559.561 648.292C558.055 646.701 551.604 621.517 548.62 604.381C545.635 587.245 537.678 576.535 531.71 575.464" stroke="#263238" stroke-linecap="round" stroke-linejoin="round"/>
<path d="M576.386 709.92C577.892 706.86 576.897 689.571 577.892 682.625C578.887 675.679 573.913 666.009 569.934 661.725C567.066 658.445 564.363 655.003 561.835 651.413C555.82 653.239 550.423 656.894 546.289 661.939L549.529 667.08C549.529 667.08 548.051 678.341 549.529 681.554C552.507 688.297 555.006 695.273 557.003 702.423C557.003 704.565 560.982 706.187 561.465 702.974C561.798 700.491 561.969 697.986 561.977 695.477L570.503 709.4C570.503 709.4 574.908 712.98 576.386 709.92Z" fill="white" stroke="#263238" stroke-linecap="round" stroke-linejoin="round"/>
<path d="M396.83 573.842C390.338 579.382 385.78 587.126 383.898 595.813C380.431 610.807 391.856 671.854 394.84 689.51C397.824 707.166 412.745 766.01 417.235 769.835C421.725 773.66 473.933 766.622 492.832 762.889C511.732 759.155 552.514 743.611 561.04 740.918C569.566 738.225 573.971 724.333 576.444 721.64C578.916 718.947 584.402 709.859 581.417 706.646C578.433 703.433 570.049 706.646 566.497 706.646C562.944 706.646 556.55 706.126 549.587 706.126C546.139 706.225 542.816 707.535 540.123 709.854C537.43 712.174 535.514 715.378 534.667 718.978C533.714 723.038 532.024 726.855 529.693 730.208C529.693 730.208 478.537 737.705 467.538 737.705C460.381 737.649 453.234 737.117 446.138 736.114C446.138 736.114 440.17 699.149 435.68 676.138C431.189 653.126 427.154 635.44 423.743 629.534" fill="white"/>
<path d="M396.83 573.842C390.338 579.382 385.78 587.126 383.898 595.813C380.431 610.807 391.856 671.854 394.84 689.51C397.824 707.166 412.745 766.01 417.235 769.835C421.725 773.66 473.933 766.622 492.832 762.889C511.732 759.155 552.514 743.611 561.04 740.918C569.566 738.225 573.971 724.333 576.444 721.64C578.916 718.947 584.402 709.859 581.417 706.646C578.433 703.433 570.049 706.646 566.497 706.646C562.944 706.646 556.55 706.126 549.587 706.126C546.139 706.225 542.816 707.535 540.123 709.854C537.43 712.174 535.514 715.378 534.667 718.978C533.714 723.038 532.024 726.855 529.693 730.208C529.693 730.208 478.537 737.705 467.538 737.705C460.381 737.649 453.234 737.117 446.138 736.114C446.138 736.114 440.17 699.149 435.68 676.138C431.189 653.126 427.154 635.44 423.743 629.534" stroke="#263238" stroke-linecap="round" stroke-linejoin="round"/>
<path d="M566.439 706.646C562.971 706.646 556.492 706.126 549.529 706.126C546.081 706.225 542.758 707.535 540.064 709.854C537.371 712.174 535.455 715.378 534.608 718.978C533.656 723.038 531.965 726.855 529.635 730.208L526.025 730.728C527.46 733.927 528.346 737.379 528.64 740.918C528.789 744.787 528.57 748.663 527.986 752.484C542.708 747.466 556.406 742.356 560.982 740.918C569.508 738.256 573.913 724.333 576.386 721.64C578.858 718.947 584.343 709.859 581.359 706.646C578.375 703.433 569.934 706.646 566.439 706.646Z" fill="white" stroke="#263238" stroke-linecap="round" stroke-linejoin="round"/>
<path d="M532.789 807.564C532.789 807.564 545.606 808.696 549.841 808.696C554.076 808.696 583.49 805.269 579.227 800.098C574.964 794.926 542.85 790.306 542.85 790.306L532.789 807.564Z" fill="white" stroke="#263238" stroke-linecap="round" stroke-linejoin="round"/>
<path d="M596.848 776.506L503.432 823.079L539.724 902.394L631.549 852.394L596.848 776.506Z" fill="white" stroke="#263238" stroke-linecap="round" stroke-linejoin="round"/>
<path d="M534.297 802.944C534.297 802.944 545.494 802.944 548.166 804.688C550.837 806.433 562.035 817.326 563.655 814.45C565.275 811.573 558.852 804.688 556.18 801.812C553.509 798.936 550.837 796.641 550.837 796.641" fill="white"/>
<path d="M534.297 802.944C534.297 802.944 545.494 802.944 548.166 804.688C550.837 806.433 562.035 817.326 563.655 814.45C565.275 811.573 558.852 804.688 556.18 801.812C553.509 798.936 550.837 796.641 550.837 796.641" stroke="#263238" stroke-linecap="round" stroke-linejoin="round"/>
<path d="M446.62 763.317L542.821 790.307L527.759 814.052L426.498 801.108C426.498 801.108 402.483 765.49 446.62 763.317Z" fill="white" stroke="#263238" stroke-linecap="round" stroke-linejoin="round"/>
<path d="M378.526 767.846C378.526 767.846 355.079 789.266 347.264 815.276C339.448 841.286 334.475 893.306 334.475 893.306C334.475 893.306 309.607 931.556 309.607 935.381C309.607 939.206 330.212 935.381 330.212 935.381L310.318 972.101C310.318 972.101 310.318 1002.7 325.949 1018.77C333.165 1026.15 341.824 1031.69 351.29 1035C360.757 1038.31 370.791 1039.3 380.657 1037.89C397.709 1034.83 428.971 993.521 432.524 991.226C436.076 988.931 423.998 953.741 421.156 940.736C418.314 927.731 423.998 918.551 427.55 916.256C431.103 913.961 451.707 900.191 455.97 890.246C460.233 880.301 459.523 863.471 458.102 850.466C456.681 837.461 438.918 792.326 423.287 778.556C407.656 764.786 393.446 755.606 378.526 767.846Z" fill="white" stroke="#263238" stroke-linecap="round" stroke-linejoin="round"/>
<path d="M392.736 764.021C392.736 764.021 382.078 780.851 382.078 793.091C382.078 805.331 391.315 825.221 398.42 834.401C402.596 839.821 407.106 844.933 411.919 849.701L427.55 845.876L428.261 858.881C428.261 858.881 431.813 851.996 441.76 856.586C451.707 861.176 458.102 858.116 458.102 855.821C461.499 840.998 461.499 825.509 458.102 810.686C452.418 783.911 446.023 779.321 436.787 769.376C427.55 759.431 406.235 755.606 392.736 764.021Z" fill="white" stroke="#263238" stroke-linecap="round" stroke-linejoin="round"/>
<path d="M399.841 767.846C399.841 767.846 392.025 782.381 396.288 793.856C400.551 805.331 414.051 819.101 424.708 829.046C435.366 838.991 448.865 849.701 448.865 849.701C451.276 841.236 452.078 832.335 451.223 823.528C450.369 814.722 447.875 806.192 443.892 798.446C430.392 770.906 406.235 762.491 399.841 767.846Z" fill="white" stroke="#263238" stroke-linecap="round" stroke-linejoin="round"/>
<path d="M461.655 698.23C463.647 703.198 465.309 708.31 466.629 713.53V718.885C466.629 718.885 476.576 725.005 475.155 727.3C473.734 729.595 468.05 739.541 468.05 739.541C468.828 747.953 468.589 756.439 467.339 764.786C465.208 774.731 468.05 779.321 460.234 779.321H440.34C440.34 779.321 438.209 811.451 433.235 811.451C428.262 811.451 405.526 799.976 401.263 793.856C397 787.736 395.579 781.616 397 777.026C401.421 764.763 405.216 752.25 408.368 739.541C411.21 725.77 432.525 715.06 437.498 712.765C442.472 710.47 461.655 698.23 461.655 698.23Z" fill="white" stroke="#263238" stroke-linecap="round" stroke-linejoin="round"/>
<path d="M382.789 752.545C382.789 752.545 365.737 749.485 357.211 751.015C348.685 752.545 338.027 765.55 338.027 778.555C338.027 791.56 347.264 799.21 362.184 800.74C377.105 802.27 387.052 788.5 387.052 780.85C387.06 771.229 385.62 761.671 382.789 752.545Z" fill="#263238" stroke="#263238" stroke-linecap="round" stroke-linejoin="round"/>
<path d="M426.13 748.721C426.13 748.721 453.129 717.356 461.655 698.231C470.181 679.106 467.339 659.216 453.84 659.216C440.34 659.216 425.42 654.626 399.842 664.571C374.264 674.516 363.606 706.646 365.027 723.476C366.448 740.306 389.895 774.731 401.973 777.026C414.052 779.321 414.052 756.371 414.052 756.371L426.13 748.721Z" fill="#263238" stroke="#263238" stroke-linecap="round" stroke-linejoin="round"/>
<path d="M429.682 754.076C429.682 754.076 423.288 738.776 415.472 743.366C407.657 747.956 414.762 764.786 419.735 768.611C424.709 772.436 432.524 766.316 432.524 766.316" fill="white"/>
<path d="M429.682 754.076C429.682 754.076 423.288 738.776 415.472 743.366C407.657 747.956 414.762 764.786 419.735 768.611C424.709 772.436 432.524 766.316 432.524 766.316" stroke="#263238" stroke-linecap="round" stroke-linejoin="round"/>
<path d="M466.629 718.886C466.629 718.886 463.787 728.831 460.234 730.361" stroke="#263238" stroke-linecap="round" stroke-linejoin="round"/>
<path d="M521.11 857.412C521.11 857.412 515.653 853.495 514.943 858.575C514.232 863.654 519.661 869.132 519.661 869.132C519.661 869.132 512.754 860.931 512.385 865.613C512.015 870.295 516.392 875.405 516.392 875.405C516.392 875.405 510.936 872.651 510.936 875.007C510.936 877.363 518.581 885.564 518.922 889.45C519.263 893.336 526.197 881.249 527.647 871.886C527.955 869.053 527.503 866.185 526.344 863.62C525.186 861.055 523.37 858.901 521.11 857.412Z" fill="white" stroke="#263238" stroke-linecap="round" stroke-linejoin="round"/>
<path d="M510.68 915.491C512.395 908.724 513.583 901.815 514.232 894.836C514.232 888.716 520.627 878.006 523.469 871.886C526.311 865.766 514.232 855.056 519.916 851.996C525.6 848.936 529.863 855.056 534.837 861.941C539.81 868.826 541.231 883.361 536.968 893.306C532.948 902.508 527.68 911.016 521.337 918.551C519.256 920.95 516.863 923.011 514.232 924.671L510.68 915.491Z" fill="white" stroke="#263238" stroke-linecap="round" stroke-linejoin="round"/>
<path d="M516.051 900.803V881.433C516.051 871.733 521.109 857.412 521.109 857.412C521.941 857.291 522.788 857.396 523.573 857.715C524.359 858.035 525.058 858.56 525.608 859.243C526.157 859.926 526.541 860.745 526.723 861.628C526.905 862.51 526.88 863.427 526.651 864.297C526.186 870.592 526.54 876.926 527.703 883.116" fill="white"/>
<path d="M516.051 900.803V881.433C516.051 871.733 521.109 857.412 521.109 857.412C521.941 857.291 522.788 857.396 523.573 857.715C524.359 858.035 525.058 858.56 525.608 859.243C526.157 859.926 526.541 860.745 526.723 861.628C526.905 862.51 526.88 863.427 526.651 864.297C526.186 870.592 526.54 876.926 527.703 883.116" stroke="#263238" stroke-linecap="round" stroke-linejoin="round"/>
<path d="M358.632 889.481C358.632 889.481 348.685 904.781 353.658 921.611C358.632 938.44 429.682 1040.19 439.629 1040.19C449.576 1040.19 521.336 939.97 525.599 933.851C529.862 927.731 511.389 912.431 511.389 912.431L439.629 982.81C439.629 982.81 420.445 900.191 412.63 884.891C404.814 869.591 386.341 868.061 386.341 868.061" fill="white"/>
<path d="M358.632 889.481C358.632 889.481 348.685 904.781 353.658 921.611C358.632 938.44 429.682 1040.19 439.629 1040.19C449.576 1040.19 521.336 939.97 525.599 933.85C529.862 927.731 511.389 912.431 511.389 912.431L439.629 982.81C439.629 982.81 420.445 900.191 412.63 884.891C404.814 869.591 386.341 868.061 386.341 868.061" stroke="#263238" stroke-linecap="round" stroke-linejoin="round"/>
<path d="M702.258 565.365C702.258 565.365 712.063 553.737 722.38 551.595C732.696 549.453 738.096 556.889 735.169 570.108C732.242 583.327 722.891 586.51 717.463 585.99C712.035 585.469 703.253 582.93 700.781 575.953C699.988 574.238 699.705 572.302 699.969 570.408C700.234 568.514 701.033 566.753 702.258 565.365Z" fill="#263238" stroke="#263238" stroke-linecap="round" stroke-linejoin="round"/>
<path d="M708.141 562.184C708.141 562.184 687.025 565.244 682.109 569.069C677.192 572.894 665.881 593.396 665.881 596.027C665.881 598.659 672.758 601.321 676.197 601.321C679.636 601.321 688.503 588.622 688.503 588.622L684.07 601.872C684.07 601.872 688.503 601.321 688.986 599.21C689.469 597.098 696.347 582.808 696.347 582.808C696.347 582.808 709.136 583.359 712.575 576.994C716.014 570.629 718.458 566.406 708.141 562.184Z" fill="white" stroke="#263238" stroke-linecap="round" stroke-linejoin="round"/>
<path d="M750.543 527.269C750.543 527.269 744.632 548.689 744.632 561.969C744.632 575.249 753.129 618.12 753.129 618.12C751.953 625.375 749.011 632.164 744.604 637.796C737.612 645.905 739.772 656.89 742.984 660.348C746.195 663.806 752.675 670.201 754.806 666.131C756.938 662.062 755.346 654.565 757.506 651.688C759.666 648.812 767.709 644.161 768.874 635.47C770.039 626.78 768.334 600.188 768.334 585.715C768.334 571.241 775.325 549.851 767.794 534.827" fill="white"/>
<path d="M750.543 527.269C750.543 527.269 744.632 548.689 744.632 561.969C744.632 575.249 753.129 618.12 753.129 618.12C751.953 625.375 749.011 632.164 744.604 637.796C737.612 645.905 739.772 656.89 742.984 660.348C746.195 663.806 752.675 670.201 754.806 666.131C756.938 662.062 755.346 654.565 757.506 651.688C759.666 648.812 767.709 644.161 768.874 635.47C770.039 626.78 768.334 600.188 768.334 585.715C768.334 571.241 775.325 549.851 767.794 534.827" stroke="#263238" stroke-linecap="round" stroke-linejoin="round"/>
<path d="M768.902 611.266C760.177 609.399 755.374 612.581 752.817 616.009C753.072 617.324 753.243 618.09 753.243 618.09C752.067 625.344 749.125 632.134 744.717 637.765C737.725 645.874 739.885 656.86 743.097 660.318C746.308 663.775 752.788 670.171 754.92 666.101C757.051 662.031 755.46 654.534 757.62 651.658C759.779 648.781 767.822 644.13 768.988 635.44C769.409 627.387 769.38 619.315 768.902 611.266Z" fill="white" stroke="#263238" stroke-linecap="round" stroke-linejoin="round"/>
<path d="M783.852 610.562L732.27 673.628L784.392 713.561L834.354 645.293L783.852 610.562Z" fill="white" stroke="#263238" stroke-linecap="round" stroke-linejoin="round"/>
<path d="M761.287 636.48C761.287 636.48 761.827 656.156 761.827 659.063C761.827 661.97 767.738 665.428 768.278 658.482C768.365 654.602 768.726 650.735 769.358 646.915C769.898 645.171 773.11 634.185 768.818 626.076" fill="white"/>
<path d="M761.287 636.48C761.287 636.48 761.827 656.156 761.827 659.063C761.827 661.97 767.738 665.428 768.278 658.482C768.365 654.602 768.726 650.735 769.358 646.915C769.898 645.171 773.11 634.185 768.818 626.076" stroke="#263238" stroke-linecap="round" stroke-linejoin="round"/>
<path d="M906.371 483.297C906.371 483.297 891.877 500.647 884.886 516.957C877.894 533.267 872.523 574.791 872.523 574.791C872.523 574.791 844.586 623.965 840.806 628.035C837.026 632.105 839.215 631.493 830.063 636.113C820.912 640.734 809.118 643.059 807.498 645.966C805.878 648.873 799.967 662.735 798.375 664.479C796.783 666.224 800.506 669.681 802.666 667.356C804.826 665.03 812.329 655.789 812.329 655.789L803.206 678.923C803.223 679.347 803.321 679.764 803.495 680.145C803.669 680.526 803.915 680.865 804.217 681.138C804.519 681.412 804.871 681.614 805.25 681.733C805.629 681.852 806.027 681.885 806.418 681.83C810.359 681.04 814.182 679.681 817.786 677.79C817.786 677.79 826.937 675.465 830.149 670.844C833.36 666.224 845.211 641.315 845.211 641.315C845.211 641.315 876.473 619.895 887.642 605.452C896.385 594.04 903.292 581.132 908.076 567.263C909.668 561.48 929.562 497.281 929.022 486.846C928.482 476.412 923.65 474.606 923.65 474.606" fill="white"/>
<path d="M906.371 483.297C906.371 483.297 891.877 500.647 884.886 516.957C877.894 533.267 872.523 574.791 872.523 574.791C872.523 574.791 844.586 623.965 840.806 628.035C837.026 632.105 839.215 631.493 830.063 636.113C820.912 640.734 809.118 643.059 807.498 645.966C805.878 648.873 799.967 662.735 798.375 664.479C796.783 666.224 800.506 669.681 802.666 667.356C804.826 665.03 812.329 655.789 812.329 655.789L803.206 678.923C803.223 679.347 803.321 679.764 803.495 680.145C803.669 680.526 803.915 680.865 804.217 681.138C804.519 681.412 804.871 681.614 805.25 681.733C805.629 681.852 806.027 681.885 806.418 681.83C810.359 681.04 814.182 679.681 817.786 677.79C817.786 677.79 826.937 675.465 830.149 670.844C833.36 666.224 845.211 641.315 845.211 641.315C845.211 641.315 876.473 619.895 887.642 605.452C896.385 594.04 903.292 581.132 908.076 567.263C909.668 561.48 929.562 497.281 929.022 486.846C928.482 476.412 923.65 474.606 923.65 474.606" stroke="#263238" stroke-linecap="round" stroke-linejoin="round"/>
<path d="M839.215 629.778C837.453 631.951 837.509 632.257 830.063 635.898C820.94 640.55 809.118 642.845 807.498 645.752C805.878 648.659 799.967 662.52 798.375 664.265C796.783 666.009 800.506 669.467 802.666 667.141C804.826 664.815 812.329 655.574 812.329 655.574L803.206 678.708C803.223 679.132 803.321 679.549 803.495 679.93C803.669 680.312 803.915 680.65 804.217 680.923C804.519 681.197 804.871 681.4 805.25 681.519C805.629 681.638 806.026 681.67 806.418 681.615C810.359 680.825 814.182 679.466 817.786 677.576C817.786 677.576 826.937 675.25 830.149 670.629C833.36 666.009 845.211 641.1 845.211 641.1C845.211 641.1 847.144 639.785 850.27 637.551C847.406 633.808 843.549 631.096 839.215 629.778Z" fill="white" stroke="#263238" stroke-linecap="round" stroke-linejoin="round"/>
<path d="M1052.39 647.955C1052.39 647.955 1040.51 672.099 1038.33 681.615C1036.14 691.132 1032.64 701.505 1032.64 701.505C1032.64 701.505 1010.64 697.711 991.745 695.385C972.845 693.06 946.017 687.796 939.395 686.389C932.773 684.981 920.496 681.156 917.853 683.543C915.209 685.93 916.971 685.44 920.069 686.848C922.628 687.69 925.338 687.858 927.97 687.337C927.97 687.337 923.565 688.745 918.734 690.642C913.902 692.539 905.092 695.844 903.785 697.742C902.477 699.639 905.547 706.279 910.378 706.279C914.041 706.029 917.714 706.029 921.377 706.279C924.02 706.738 925.327 709.584 934.137 709.584C942.947 709.584 955.225 701.995 955.225 701.995C955.225 701.995 996.576 722.375 1019.88 726.628C1043.18 730.881 1046.71 725.22 1056.4 717.142C1066.09 709.064 1094.2 659.4 1092.01 649.455C1090.58 643.23 1088.2 637.305 1084.96 631.921" fill="#263238"/>
<path d="M1052.39 647.955C1052.39 647.955 1040.51 672.099 1038.33 681.615C1036.14 691.132 1032.64 701.505 1032.64 701.505C1032.64 701.505 1010.64 697.711 991.745 695.385C972.845 693.06 946.017 687.796 939.395 686.389C932.773 684.981 920.496 681.156 917.853 683.543C915.209 685.93 916.971 685.44 920.069 686.848C922.628 687.69 925.338 687.858 927.97 687.337C927.97 687.337 923.565 688.745 918.734 690.642C913.902 692.539 905.092 695.844 903.785 697.742C902.477 699.639 905.547 706.279 910.378 706.279C914.041 706.029 917.714 706.029 921.377 706.279C924.02 706.738 925.327 709.584 934.137 709.584C942.947 709.584 955.225 701.995 955.225 701.995C955.225 701.995 996.576 722.375 1019.88 726.628C1043.18 730.881 1046.71 725.22 1056.4 717.142C1066.09 709.064 1094.2 659.4 1092.01 649.455C1090.58 643.23 1088.2 637.305 1084.96 631.921" stroke="#263238" stroke-linecap="round" stroke-linejoin="round"/>
<path d="M964.688 691.132C953.178 689.112 943.089 687.123 939.366 686.328C932.772 684.889 920.466 681.095 917.823 683.482C915.18 685.869 916.942 685.379 920.04 686.787C922.599 687.629 925.309 687.796 927.941 687.276C927.941 687.276 923.536 688.684 918.704 690.581C913.873 692.478 905.063 695.783 903.755 697.68C902.448 699.577 905.517 706.218 910.349 706.218C914.011 705.967 917.685 705.967 921.347 706.218C923.99 706.677 925.298 709.522 934.108 709.522C942.918 709.522 955.195 701.934 955.195 701.934C955.195 701.934 958.435 703.525 963.579 705.912L964.688 691.132Z" fill="white" stroke="#263238" stroke-linecap="round" stroke-linejoin="round"/>
<path d="M936.298 575.035C936.298 575.035 915.636 585.929 907.707 593.395C899.778 600.862 879.998 648.781 879.571 652.086C879.145 655.391 894.52 657.319 896.282 656.37C898.044 655.422 929.278 616.59 937.179 609.95C939.361 608.42 940.99 606.129 941.792 603.461C942.593 600.793 942.52 597.909 941.584 595.292" fill="#263238"/>
<path d="M936.298 575.035C936.298 575.035 915.636 585.929 907.707 593.395C899.778 600.862 879.998 648.781 879.571 652.086C879.145 655.391 894.52 657.319 896.282 656.37C898.044 655.422 929.278 616.59 937.179 609.95C939.361 608.42 940.99 606.129 941.792 603.461C942.593 600.793 942.52 597.909 941.584 595.292" stroke="#263238" stroke-linecap="round" stroke-linejoin="round"/>
<path d="M887.045 642.294C880.499 643.785 874.037 645.675 867.691 647.956C862.405 650.342 850.099 667.387 853.168 668.335C856.238 669.284 864.536 658.39 864.536 658.39C861.616 662.846 859.112 667.602 857.062 672.589C856.181 676.383 855.3 684.829 858.824 683.482C862.348 682.136 869.368 671.64 869.368 671.64C869.368 671.64 878.149 665.948 885.198 665.948C892.246 665.948 897.077 651.75 897.077 651.75C897.077 651.75 902.761 645.63 900.601 638.959C898.441 632.288 887.045 642.294 887.045 642.294Z" fill="white" stroke="#263238" stroke-linecap="round" stroke-linejoin="round"/>
<path d="M898.925 638.5C897.185 638.576 895.453 638.231 893.854 637.489C892.255 636.748 890.832 635.629 889.688 634.216C886.164 629.503 884.004 634.216 884.004 638.959C884.058 640.34 884.508 641.67 885.291 642.766C886.075 643.862 887.154 644.67 888.381 645.079C888.381 645.079 880.907 652.668 885.312 655.024C886.766 655.644 888.345 655.84 889.892 655.593C891.439 655.346 892.898 654.664 894.122 653.616" fill="white"/>
<path d="M898.925 638.5C897.185 638.576 895.453 638.231 893.854 637.489C892.255 636.748 890.832 635.629 889.688 634.216C886.164 629.503 884.004 634.216 884.004 638.959C884.058 640.34 884.508 641.67 885.291 642.766C886.075 643.862 887.154 644.67 888.381 645.079C888.381 645.079 880.907 652.668 885.312 655.024C886.766 655.644 888.345 655.84 889.892 655.593C891.439 655.346 892.898 654.664 894.122 653.616" stroke="#263238" stroke-linecap="round" stroke-linejoin="round"/>
<path d="M1053.53 761.94C1053.53 761.94 1031.73 757.473 1023.94 755.82C1016.16 754.168 990.722 765.337 983.475 768.06C976.228 770.784 983.475 773.109 991.262 774.762C999.049 776.414 1014.59 773.109 1014.59 773.109C1014.59 773.109 997.543 780.912 1001.64 782.044C1005.73 783.177 1014.08 780.912 1021.36 780.361C1028.63 779.811 1035.88 772.528 1035.88 772.528C1035.88 772.528 1070.67 790.888 1074.82 790.888C1078.97 790.888 1085.19 777.485 1076.35 771.885C1069.07 767.77 1061.42 764.439 1053.53 761.94Z" fill="white" stroke="#263238" stroke-linecap="round" stroke-linejoin="round"/>
<path d="M1061.32 782.534C1047.69 793.642 1035.63 806.814 1025.51 821.64C1010.44 844.56 1007.86 890.919 1010.98 904.26C1014.11 917.602 1016.16 933.3 1031.22 944.04C1046.28 954.781 1057.17 959.126 1083.11 944.04C1109.06 928.955 1122.56 878.679 1120.06 840C1117.56 801.322 1095.68 774.608 1084.25 771.273C1072.83 767.937 1061.32 782.534 1061.32 782.534Z" fill="white" stroke="#263238" stroke-linecap="round" stroke-linejoin="round"/>
<path d="M1062.91 789.786C1062.91 789.786 1053.56 790.918 1048.9 797.619C1044.24 804.321 1045.77 806.554 1048.9 808.237C1049.87 808.915 1050.7 809.813 1051.33 810.87C1051.95 811.926 1052.35 813.117 1052.51 814.357C1052.51 814.357 1041.62 833.36 1047.33 837.246C1053.05 841.132 1078.45 828.311 1085.22 818.886C1091.98 809.461 1088.86 793.733 1084.71 789.265C1080.56 784.798 1062.91 789.786 1062.91 789.786Z" fill="white" stroke="#263238" stroke-linecap="round" stroke-linejoin="round"/>
<path d="M1056.63 717.172C1053.62 721.024 1050.13 724.403 1046.25 727.209C1042.1 729.443 1036.93 731.677 1041.08 735.043C1043.45 736.917 1045.7 738.962 1047.82 741.163C1047.82 741.163 1042.62 759.523 1044.72 770.202C1044.9 771.566 1045.36 772.872 1046.05 774.031C1046.74 775.189 1047.66 776.173 1048.74 776.916C1049.82 777.66 1051.03 778.144 1052.3 778.337C1053.57 778.53 1054.86 778.428 1056.09 778.036C1056.09 778.036 1054.52 805.974 1052.45 814.358C1050.37 822.742 1060.24 822.161 1068.02 817.143C1075.81 812.124 1076.86 791.439 1079.96 776.353C1083.06 761.267 1101.76 743.397 1088.8 726.628C1075.84 709.859 1056.63 717.172 1056.63 717.172Z" fill="white" stroke="#263238" stroke-linecap="round" stroke-linejoin="round"/>
<path d="M1141.23 698.17C1122.02 676.934 1092.92 681.952 1088.83 683.085C1088.83 683.085 1072.63 678.831 1063.25 680.514C1053.87 682.197 1050.38 711.114 1056.09 727.21C1058.13 732.988 1061.98 737.816 1066.97 740.857C1066.03 739.97 1060.49 734.34 1065.84 729.872C1069.01 727.068 1072.78 725.155 1076.81 724.303C1076.81 724.303 1072.29 740.276 1074.22 743.091C1082.12 754.413 1046.6 807.81 1045.2 806.953C1045.2 806.953 1055.58 813.257 1068.56 819.958C1097.24 834.799 1131.09 803.128 1141.72 776.384C1150.19 755.27 1158.34 717.081 1141.23 698.17Z" fill="#263238" stroke="#263238" stroke-linecap="round" stroke-linejoin="round"/>
<path d="M861.809 777.791L835.605 895.815L889.206 922.101L909.469 811.145L861.809 777.791Z" fill="white" stroke="#263238" stroke-linecap="round" stroke-linejoin="round"/>
<path d="M863.627 790L841.857 888.073L886.392 909.921L903.245 817.693L863.627 790Z" fill="#263238" stroke="#263238" stroke-linecap="round" stroke-linejoin="round"/>
<path d="M909.469 811.145L982.735 815L968.44 928.526L889.205 922.1L909.469 811.145Z" fill="white" stroke="#263238" stroke-linecap="round" stroke-linejoin="round"/>
<path d="M931.039 861.574L936.354 861.819L936.894 858.147L931.664 857.749L931.039 861.574Z" fill="#263238"/>
<path d="M943.373 887.339L944.226 881.739L936.837 881.372L936.041 886.788L943.373 887.339Z" fill="#263238"/>
<path d="M930.3 845.508L930.953 841.561L924.303 841.071L923.621 845.202L930.3 845.508Z" fill="#263238"/>
<path d="M933.598 845.693L938.656 845.937L939.196 842.204L934.223 841.837L933.598 845.693Z" fill="#263238"/>
<path d="M929.676 870.173L935.076 870.601L935.843 865.307L930.472 865.062L929.676 870.173Z" fill="#263238"/>
<path d="M948.233 855.453L949.086 849.976L941.441 849.578L940.674 854.903L948.233 855.453Z" fill="#263238"/>
<path d="M926.236 829.321L932.858 829.658L933.824 823.538L927.259 823.171L926.236 829.321Z" fill="#263238"/>
<path d="M940.957 830.056L941.838 823.997L937.121 823.722L936.154 829.811L940.957 830.056Z" fill="#263238"/>
<path d="M925.667 832.81L924.871 837.614L931.493 838.103L932.289 833.116L925.667 832.81Z" fill="#263238"/>
<path d="M938.173 849.425L933.029 849.181L932.205 854.26L937.406 854.658L938.173 849.425Z" fill="#263238"/>
<path d="M940.474 833.544L935.586 833.299L934.762 838.348L939.707 838.715L940.474 833.544Z" fill="#263238"/>
<path d="M945.817 871.396L946.67 865.857L939.138 865.49L938.371 870.845L945.817 871.396Z" fill="#263238"/>
<path d="M915.777 872.651L910.349 872.253L909.639 876.506L915.095 876.782L915.777 872.651Z" fill="#263238"/>
<path d="M914.528 880.271L909.071 879.995L908.332 884.677L913.732 885.105L914.528 880.271Z" fill="#263238"/>
<path d="M913.162 888.563L907.762 888.165L907.08 892.388L912.48 892.663L913.162 888.563Z" fill="#263238"/>
<path d="M911.912 896.151L906.484 895.876L905.717 900.588L911.088 901.017L911.912 896.151Z" fill="#263238"/>
<path d="M917.142 864.389L911.657 864.113L910.918 868.764L916.346 869.193L917.142 864.389Z" fill="#263238"/>
<path d="M919.756 848.508L914.243 848.232L913.504 852.853L918.989 853.251L919.756 848.508Z" fill="#263238"/>
<path d="M922.399 832.626L916.829 832.351L916.09 836.941L921.603 837.338L922.399 832.626Z" fill="#263238"/>
<path d="M918.392 856.739L912.935 856.341L912.225 860.625L917.71 860.9L918.392 856.739Z" fill="#263238"/>
<path d="M921.035 840.827L915.521 840.398L914.811 844.744L920.324 845.019L921.035 840.827Z" fill="#263238"/>
<path d="M951.501 834.095L943.742 833.697L942.975 838.961L950.676 839.542L951.501 834.095Z" fill="#263238"/>
<path d="M910.521 904.475L905.178 904.077L904.098 910.564L909.441 911.146L910.521 904.475Z" fill="#263238"/>
<path d="M939.65 862.002L947.182 862.369L947.722 858.942L940.162 858.391L939.65 862.002Z" fill="#263238"/>
<path d="M935.018 893.765L942.35 894.133L942.862 890.797L935.529 890.246L935.018 893.765Z" fill="#263238"/>
<path d="M937.32 877.884L944.766 878.251L945.278 874.885L937.86 874.334L937.32 877.884Z" fill="#263238"/>
<path d="M934.591 874.058L929.106 873.66L928.48 877.455L934.051 877.73L934.591 874.058Z" fill="#263238"/>
<path d="M941.81 897.621L934.534 897.254L933.738 902.701L940.957 903.252L941.81 897.621Z" fill="#263238"/>
<path d="M933.228 906.188L932.148 913.624L939.253 914.389L940.419 906.739L933.228 906.188Z" fill="#263238"/>
<path d="M922.258 853.526L928.936 854.016L929.76 848.997L923.054 848.691L922.258 853.526Z" fill="#263238"/>
<path d="M922.969 829.137L923.992 822.987L918.393 822.681L917.398 828.892L922.969 829.137Z" fill="#263238"/>
<path d="M941.953 846.09L949.627 846.488L950.138 843.03L942.465 842.448L941.953 846.09Z" fill="#263238"/>
<path d="M944.254 830.209L952.041 830.607L952.95 824.609L945.106 824.181L944.254 830.209Z" fill="#263238"/>
<path d="M933.539 881.219L927.941 880.913L927.088 886.085L932.772 886.513L933.539 881.219Z" fill="#263238"/>
<path d="M924.645 880.76L917.796 880.424L917 885.35L923.821 885.84L924.645 880.76Z" fill="#263238"/>
<path d="M926.548 889.572L925.951 893.306L931.749 893.612L932.289 890.001L926.548 889.572Z" fill="#263238"/>
<path d="M931.239 897.1L925.384 896.794L924.531 902.027L930.471 902.455L931.239 897.1Z" fill="#263238"/>
<path d="M914.385 901.262L921.262 901.782L922.087 896.641L915.181 896.305L914.385 901.262Z" fill="#263238"/>
<path d="M923.28 889.328L916.431 888.808L915.777 892.816L922.655 893.153L923.28 889.328Z" fill="#263238"/>
<path d="M918.393 876.935L925.213 877.271L925.839 873.416L919.046 872.896L918.393 876.935Z" fill="#263238"/>
<path d="M913.788 904.72L912.68 911.482L919.586 912.247L920.722 905.24L913.788 904.72Z" fill="#263238"/>
<path d="M929.958 905.943L923.99 905.484L922.854 912.614L928.907 913.257L929.958 905.943Z" fill="#263238"/>
<path d="M928.397 857.504L921.69 856.983L921.008 861.053L927.772 861.39L928.397 857.504Z" fill="#263238"/>
<path d="M927.203 864.879L920.439 864.542L919.615 869.438L926.379 869.928L927.203 864.879Z" fill="#263238"/>
<path d="M1063.9 883.667C1063.9 883.667 1057.22 884.34 1045.86 894.285C1034.49 904.23 989.301 989.145 989.301 989.145C989.301 989.145 948.291 961.605 937.917 953.955C927.544 946.305 919.246 932.168 913.533 923.784C907.821 915.399 906.769 914.267 898.982 913.716C891.195 913.165 885.511 907.596 884.459 911.482C883.408 915.369 886.534 917.082 888.609 918.184C890.423 918.934 892.35 919.318 894.293 919.316C889.396 920.111 884.4 918.91 880.282 915.95C872.495 910.932 870.42 909.83 870.42 915.399C870.42 920.968 876.104 929.934 880.282 935.503C884.459 941.073 908.304 943.337 908.304 943.337C916.958 961.325 926.669 978.7 937.377 995.357C952.923 1018.83 986.146 1043.98 995.496 1040.61C1004.85 1037.25 1054.13 970.785 1067.63 952.333C1081.13 933.882 1098.89 912.094 1094.6 899.824" fill="white"/>
<path d="M1063.9 883.667C1063.9 883.667 1057.22 884.34 1045.86 894.285C1034.49 904.23 989.301 989.145 989.301 989.145C989.301 989.145 948.291 961.605 937.917 953.955C927.544 946.305 919.246 932.168 913.533 923.784C907.821 915.399 906.769 914.267 898.982 913.716C891.195 913.165 885.511 907.596 884.459 911.482C883.408 915.369 886.534 917.082 888.609 918.184C890.423 918.934 892.35 919.318 894.293 919.316C889.396 920.111 884.4 918.91 880.282 915.95C872.495 910.932 870.42 909.83 870.42 915.399C870.42 920.968 876.104 929.934 880.282 935.503C884.459 941.073 908.304 943.337 908.304 943.337C916.958 961.325 926.669 978.7 937.377 995.357C952.923 1018.83 986.146 1043.98 995.496 1040.61C1004.85 1037.25 1054.13 970.785 1067.63 952.333C1081.13 933.882 1098.89 912.094 1094.6 899.824" stroke="#263238" stroke-linecap="round" stroke-linejoin="round"/>
<path d="M923.822 939.144C919.757 933.667 916.262 928.067 913.42 923.844C907.736 915.46 906.656 914.328 898.869 913.777C891.082 913.226 885.398 907.657 884.346 911.543C883.295 915.429 886.421 917.143 888.495 918.245C890.309 918.995 892.236 919.379 894.179 919.377C889.283 920.171 884.287 918.971 880.168 916.011C872.381 910.992 870.307 909.891 870.307 915.46C870.307 921.029 875.991 929.995 880.168 935.564C884.346 941.133 908.191 943.398 908.191 943.398C908.191 943.398 909.242 945.601 911.033 949.181C914.406 944.688 918.816 941.228 923.822 939.144Z" fill="white" stroke="#263238" stroke-linecap="round" stroke-linejoin="round"/>
</svg>
