<svg width="611" height="507" viewBox="0 0 611 507" fill="none" xmlns="http://www.w3.org/2000/svg">
<path d="M518.824 222.847C520.694 180.847 502.511 138.34 462.429 118.111C442.645 108.123 419.513 102.272 396.368 103.134C371.537 104.057 348.16 112.442 324.746 119.358C301.333 126.273 275.976 131.8 251.842 126.892C234.38 123.343 219.019 114.572 201.74 110.577C133.662 94.8496 74.3831 158.944 107.695 209.898C115.87 222.39 128.469 232.409 139.064 243.593C149.658 254.778 158.542 268.284 157.112 282.45C155.89 294.182 147.874 304.626 144.538 316.064C138.159 337.976 150.819 362.079 172.705 375.434C194.591 388.788 224.115 391.901 250.51 386.405C276.905 380.909 300.123 367.463 318.417 350.814C328.193 341.89 337.773 331.466 351.838 328.435C365.341 325.535 379.26 330.26 392.958 332.43C405.623 334.374 418.633 334.153 431.191 331.782C443.75 329.411 455.593 324.939 465.997 318.639C499.053 298.349 517.138 260.801 518.824 222.847Z" fill="#2CB93B"/>
<path opacity="0.7" d="M518.824 222.847C520.694 180.847 502.511 138.34 462.429 118.111C442.645 108.123 419.513 102.272 396.368 103.134C371.537 104.057 348.16 112.442 324.746 119.358C301.333 126.273 275.976 131.8 251.842 126.892C234.38 123.343 219.019 114.572 201.74 110.577C133.662 94.8496 74.3831 158.944 107.695 209.898C115.87 222.39 128.469 232.409 139.064 243.593C149.658 254.778 158.542 268.284 157.112 282.45C155.89 294.182 147.874 304.626 144.538 316.064C138.159 337.976 150.819 362.079 172.705 375.434C194.591 388.788 224.115 391.901 250.51 386.405C276.905 380.909 300.123 367.463 318.417 350.814C328.193 341.89 337.773 331.466 351.838 328.435C365.341 325.535 379.26 330.26 392.958 332.43C405.623 334.374 418.633 334.153 431.191 331.782C443.75 329.411 455.593 324.939 465.997 318.639C499.053 298.349 517.138 260.801 518.824 222.847Z" fill="white"/>
<path d="M301.089 455.489C392.341 455.489 466.315 443.213 466.315 428.07C466.315 412.927 392.341 400.652 301.089 400.652C209.836 400.652 135.862 412.927 135.862 428.07C135.862 443.213 209.836 455.489 301.089 455.489Z" fill="#2CB93B"/>
<path opacity="0.5" d="M301.089 455.489C392.341 455.489 466.315 443.213 466.315 428.07C466.315 412.927 392.341 400.652 301.089 400.652C209.836 400.652 135.862 412.927 135.862 428.07C135.862 443.213 209.836 455.489 301.089 455.489Z" fill="white"/>
<path d="M476.494 63.3243H357.362C353.292 63.3243 349.993 66.0618 349.993 69.4387V178.413C349.993 181.79 353.292 184.528 357.362 184.528H476.494C480.564 184.528 483.863 181.79 483.863 178.413V69.4387C483.863 66.0618 480.564 63.3243 476.494 63.3243Z" fill="white" stroke="#263238" stroke-linecap="round" stroke-linejoin="round"/>
<path d="M357.362 63.3243H476.482C478.427 63.3243 480.292 63.9653 481.667 65.1063C483.042 66.2472 483.814 67.7947 483.814 69.4083V75.7559H349.993V69.4387C349.988 68.6346 350.175 67.8377 350.544 67.0941C350.913 66.3504 351.455 65.6748 352.14 65.1062C352.826 64.5376 353.64 64.0874 354.536 63.7815C355.432 63.4757 356.393 63.3203 357.362 63.3243Z" fill="#263238" stroke="#263238" stroke-linecap="round" stroke-linejoin="round"/>
<path d="M357.288 128.038H411.154" stroke="#263238" stroke-linecap="round" stroke-linejoin="round"/>
<path d="M357.288 133.807H411.154" stroke="#263238" stroke-linecap="round" stroke-linejoin="round"/>
<path d="M357.288 139.577H411.154" stroke="#263238" stroke-linecap="round" stroke-linejoin="round"/>
<path d="M357.288 145.347H411.154" stroke="#263238" stroke-linecap="round" stroke-linejoin="round"/>
<path d="M357.288 151.116H411.154" stroke="#263238" stroke-linecap="round" stroke-linejoin="round"/>
<path d="M357.288 156.896H411.154" stroke="#263238" stroke-linecap="round" stroke-linejoin="round"/>
<path d="M357.288 162.666H411.154" stroke="#263238" stroke-linecap="round" stroke-linejoin="round"/>
<path d="M357.288 168.436H411.154" stroke="#263238" stroke-linecap="round" stroke-linejoin="round"/>
<path d="M357.288 174.205H411.154" stroke="#263238" stroke-linecap="round" stroke-linejoin="round"/>
<path d="M420.625 128.038H474.49" stroke="#263238" stroke-linecap="round" stroke-linejoin="round"/>
<path d="M420.625 133.807H474.49" stroke="#263238" stroke-linecap="round" stroke-linejoin="round"/>
<path d="M420.625 139.577H474.49" stroke="#263238" stroke-linecap="round" stroke-linejoin="round"/>
<path d="M420.625 145.347H474.49" stroke="#263238" stroke-linecap="round" stroke-linejoin="round"/>
<path d="M420.625 151.116H474.49" stroke="#263238" stroke-linecap="round" stroke-linejoin="round"/>
<path d="M420.625 156.896H474.49" stroke="#263238" stroke-linecap="round" stroke-linejoin="round"/>
<path d="M420.625 162.666H474.49" stroke="#263238" stroke-linecap="round" stroke-linejoin="round"/>
<path d="M420.625 168.436H474.49" stroke="#263238" stroke-linecap="round" stroke-linejoin="round"/>
<path d="M420.625 174.205H474.49" stroke="#263238" stroke-linecap="round" stroke-linejoin="round"/>
<path d="M393.313 91.5034C393.579 90.8182 393.719 90.1038 393.728 89.3841C393.728 86.7579 390.514 86.6058 387.362 86.6058H386.567V85.9872H400.327V86.6058C396.747 86.6058 395.439 88.5019 394.327 91.3107L386.995 109.471C386.445 110.82 385.981 111.824 384.258 111.824H384.111L377.659 94.4744L371.659 109.512C371.097 110.861 370.633 111.864 368.91 111.864H368.775L359.39 86.6058H356.091V85.9872H368.164V86.6058H364.73L371.696 106.5H371.977L377.231 93.288L374.787 86.6564H371.488V85.9872H383.574V86.6058H380.14L387.105 106.5H387.374L393.313 91.5034Z" fill="#2CB93B"/>
<path d="M474.869 80.2378H419.439V121.812H474.869V80.2378Z" fill="#2CB93B" stroke="#263238" stroke-width="2" stroke-linecap="round" stroke-linejoin="round"/>
<path d="M474.869 97.6178C473.01 97.7056 471.163 97.9193 469.346 98.2566C460.926 99.7776 458.727 109.806 449.207 109.806C440.775 109.806 440.054 100.386 427.969 99.1692C425.028 98.7849 422.017 99.2275 419.415 100.427V121.812H474.869V97.6178Z" fill="#263238" stroke="#263238" stroke-linecap="round" stroke-linejoin="round"/>
<path d="M437.855 89.7491C437.857 90.7728 437.493 91.774 436.809 92.626C436.126 93.478 435.152 94.1424 434.013 94.5351C432.874 94.9277 431.62 95.031 430.41 94.8318C429.2 94.6326 428.088 94.1398 427.216 93.416C426.343 92.6921 425.75 91.7698 425.51 90.7657C425.269 89.7616 425.394 88.7209 425.867 87.7756C426.34 86.8302 427.141 86.0227 428.168 85.4552C429.195 84.8877 430.401 84.5859 431.635 84.5879C433.284 84.5879 434.866 85.1316 436.033 86.0996C437.199 87.0675 437.855 88.3803 437.855 89.7491Z" fill="white" stroke="#263238" stroke-linecap="round" stroke-linejoin="round"/>
<path d="M477.399 66.9646H354.013V70.909H477.399V66.9646Z" fill="white" stroke="#263238" stroke-linecap="round" stroke-linejoin="round"/>
<path d="M469.7 208.712H416.286C414.186 208.712 412.172 209.404 410.687 210.636C409.202 211.868 408.368 213.54 408.368 215.282V238.99C408.368 240.732 409.202 242.404 410.687 243.636C412.172 244.868 414.186 245.56 416.286 245.56H417.924C416.262 248.602 413.036 253.267 407.94 256.035C407.94 256.035 418.779 255.406 430.071 245.56H469.676C471.776 245.56 473.79 244.868 475.275 243.636C476.76 242.404 477.594 240.732 477.594 238.99V215.282C477.594 213.543 476.763 211.875 475.284 210.643C473.804 209.412 471.796 208.717 469.7 208.712Z" fill="#263238" stroke="#263238" stroke-linecap="round" stroke-linejoin="round"/>
<path d="M433.81 226.294C433.812 225.624 433.575 224.967 433.127 224.409C432.68 223.85 432.042 223.415 431.296 223.157C430.55 222.9 429.728 222.832 428.935 222.962C428.142 223.092 427.414 223.415 426.842 223.889C426.271 224.364 425.882 224.968 425.725 225.626C425.568 226.284 425.65 226.966 425.96 227.585C426.27 228.204 426.796 228.733 427.469 229.104C428.142 229.476 428.932 229.673 429.741 229.671C430.819 229.668 431.852 229.312 432.615 228.679C433.377 228.046 433.807 227.189 433.81 226.294Z" fill="#2CB93B" stroke="#263238" stroke-linecap="round" stroke-linejoin="round"/>
<path d="M447.655 226.294C447.655 225.627 447.417 224.974 446.969 224.418C446.522 223.863 445.887 223.43 445.143 223.175C444.4 222.919 443.581 222.852 442.792 222.983C442.003 223.113 441.278 223.435 440.709 223.907C440.139 224.379 439.752 224.981 439.595 225.636C439.438 226.291 439.518 226.97 439.826 227.587C440.134 228.204 440.656 228.731 441.325 229.102C441.994 229.473 442.781 229.671 443.586 229.671C444.664 229.668 445.697 229.312 446.46 228.679C447.222 228.046 447.652 227.189 447.655 226.294Z" fill="#2CB93B" stroke="#263238" stroke-linecap="round" stroke-linejoin="round"/>
<path d="M461.513 226.294C461.515 225.624 461.278 224.968 460.831 224.41C460.384 223.852 459.747 223.416 459.002 223.158C458.256 222.9 457.435 222.832 456.642 222.961C455.85 223.091 455.122 223.413 454.55 223.886C453.977 224.359 453.588 224.963 453.429 225.62C453.271 226.277 453.351 226.958 453.659 227.578C453.968 228.197 454.491 228.727 455.162 229.1C455.834 229.472 456.623 229.671 457.431 229.671C458.511 229.668 459.545 229.312 460.309 228.68C461.074 228.047 461.506 227.19 461.513 226.294Z" fill="#2CB93B" stroke="#263238" stroke-linecap="round" stroke-linejoin="round"/>
<path d="M175.968 77.7028H263.952C266.046 77.7028 268.054 78.393 269.534 79.6214C271.014 80.8498 271.846 82.516 271.846 84.2533V134.862H168.111V84.2533C168.111 82.5212 168.937 80.8597 170.41 79.6321C171.882 78.4045 173.881 77.7109 175.968 77.7028Z" fill="#2CB93B" stroke="#263238" stroke-linecap="round" stroke-linejoin="round"/>
<path d="M271.797 126.699H168.111V134.832H271.797V126.699Z" fill="#263238" stroke="#263238" stroke-linecap="round" stroke-linejoin="round"/>
<path d="M267.056 129.478H172.864V132.053H267.056V129.478Z" fill="white" stroke="#263238" stroke-linecap="round" stroke-linejoin="round"/>
<path d="M219.96 115.525C227.87 115.525 234.282 110.204 234.282 103.641C234.282 97.0776 227.87 91.7569 219.96 91.7569C212.05 91.7569 205.638 97.0776 205.638 103.641C205.638 110.204 212.05 115.525 219.96 115.525Z" fill="#263238" stroke="#263238" stroke-linecap="round" stroke-linejoin="round"/>
<path d="M213.496 96.2489L228.954 103.651L213.496 111.053V96.2489Z" fill="white" stroke="#263238" stroke-linecap="round" stroke-linejoin="round"/>
<path d="M226.95 155.649H128.542C126.639 155.649 125.096 156.929 125.096 158.508V189.628C125.096 191.207 126.639 192.488 128.542 192.488H226.95C228.853 192.488 230.396 191.207 230.396 189.628V158.508C230.396 156.929 228.853 155.649 226.95 155.649Z" fill="#263238" stroke="#263238" stroke-linecap="round" stroke-linejoin="round"/>
<path d="M137.634 160.668L138.147 161.378C135.825 162.453 133.662 164.339 133.662 166.549C133.633 166.929 133.695 167.31 133.845 167.67C133.994 168.029 134.229 168.36 134.536 168.644C134.842 168.927 135.213 169.157 135.627 169.32C136.042 169.482 136.491 169.575 136.95 169.592C137.292 169.592 137.524 169.45 137.524 169.166C137.524 168.882 137.353 168.79 137.011 168.74C136.549 168.636 136.147 168.4 135.876 168.073C135.606 167.746 135.484 167.35 135.532 166.955C135.541 166.64 135.627 166.33 135.785 166.044C135.943 165.757 136.169 165.501 136.45 165.289C136.731 165.078 137.062 164.916 137.42 164.813C137.779 164.711 138.16 164.67 138.538 164.694C138.95 164.695 139.357 164.765 139.736 164.899C140.115 165.033 140.457 165.229 140.743 165.474C141.029 165.72 141.253 166.011 141.401 166.33C141.549 166.649 141.618 166.989 141.605 167.33C141.599 167.759 141.489 168.183 141.282 168.576C141.074 168.969 140.773 169.324 140.396 169.618C140.02 169.912 139.576 170.141 139.091 170.289C138.606 170.438 138.089 170.504 137.573 170.484C136.931 170.518 136.287 170.44 135.683 170.255C135.079 170.07 134.529 169.782 134.068 169.409C133.608 169.036 133.246 168.587 133.008 168.091C132.77 167.595 132.66 167.063 132.685 166.529C132.648 163.964 135.031 161.895 137.634 160.668ZM148.131 160.668L148.644 161.378C146.31 162.453 144.159 164.339 144.159 166.549C144.128 166.93 144.189 167.311 144.338 167.671C144.487 168.031 144.722 168.363 145.029 168.647C145.335 168.93 145.707 169.16 146.122 169.322C146.538 169.485 146.988 169.576 147.447 169.592C147.789 169.592 148.021 169.45 148.021 169.166C148.021 168.882 147.85 168.79 147.508 168.74C147.046 168.636 146.644 168.4 146.373 168.073C146.103 167.746 145.981 167.35 146.029 166.955C146.036 166.64 146.121 166.329 146.278 166.042C146.436 165.755 146.662 165.497 146.943 165.286C147.225 165.074 147.556 164.912 147.916 164.81C148.275 164.709 148.656 164.669 149.035 164.694C149.447 164.695 149.854 164.765 150.233 164.899C150.612 165.033 150.954 165.229 151.24 165.474C151.526 165.72 151.75 166.011 151.898 166.33C152.046 166.649 152.115 166.989 152.102 167.33C152.095 167.759 151.983 168.182 151.775 168.574C151.567 168.967 151.266 169.321 150.89 169.615C150.514 169.909 150.07 170.137 149.586 170.286C149.102 170.436 148.586 170.503 148.07 170.484C147.428 170.517 146.785 170.438 146.182 170.252C145.579 170.066 145.03 169.778 144.57 169.405C144.109 169.033 143.748 168.585 143.509 168.089C143.27 167.594 143.158 167.062 143.182 166.529C143.133 163.964 145.516 161.895 148.131 160.668Z" fill="#2CB93B"/>
<path d="M158.176 168.172H218.103" stroke="white" stroke-linecap="round" stroke-linejoin="round"/>
<path d="M158.176 172.441H218.103" stroke="white" stroke-linecap="round" stroke-linejoin="round"/>
<path d="M158.176 176.71H218.103" stroke="white" stroke-linecap="round" stroke-linejoin="round"/>
<path d="M158.176 180.989H218.103" stroke="white" stroke-linecap="round" stroke-linejoin="round"/>
<path d="M207.5 249.606C219.869 247.93 228.259 238.252 226.24 227.988C224.221 217.725 212.558 210.762 200.189 212.438C187.82 214.113 179.429 223.791 181.448 234.055C183.467 244.319 195.131 251.281 207.5 249.606Z" fill="#263238" stroke="#263238" stroke-linecap="round" stroke-linejoin="round"/>
<path d="M218.238 241.528C225.216 234.934 224.432 224.895 216.485 219.104C208.539 213.314 196.44 213.965 189.462 220.558C182.483 227.152 183.268 237.191 191.214 242.982C199.16 248.773 211.259 248.122 218.238 241.528Z" fill="white" stroke="#263238" stroke-linecap="round" stroke-linejoin="round"/>
<path d="M203.854 219.531V231.02H213.215" stroke="#263238" stroke-width="2" stroke-linecap="round" stroke-linejoin="round"/>
<path d="M345.826 231.06C345.826 231.06 358.84 254.108 358.84 255.325C358.84 256.542 347.292 261.754 345.093 262.849C343.387 263.656 341.628 264.383 339.826 265.029L341.146 275.707C341.146 275.707 361.028 271.945 369.362 268.183C377.696 264.421 377.402 260.172 375.472 253.865C373.541 247.558 360.698 223.181 360.698 223.181L345.826 231.06Z" fill="white"/>
<g style="mix-blend-mode:multiply" opacity="0.5">
<path d="M369.325 268.183C377.659 264.421 377.366 260.172 375.435 253.865C373.504 247.558 360.661 223.181 360.661 223.181L358.584 224.277L357.924 225.291C357.924 225.291 369.912 249.708 370.633 257.84C371.121 263.305 357.863 270.119 349.101 274.013C355.602 272.584 364.449 270.383 369.325 268.183Z" fill="#FC6681"/>
</g>
<path d="M345.826 231.06C345.826 231.06 358.84 254.108 358.84 255.325C358.84 256.542 347.292 261.754 345.093 262.849C343.387 263.656 341.628 264.383 339.826 265.029L341.146 275.707C341.146 275.707 361.028 271.945 369.362 268.183C377.696 264.421 377.402 260.172 375.472 253.865C373.541 247.558 360.698 223.181 360.698 223.181L345.826 231.06Z" stroke="#263238" stroke-linecap="round" stroke-linejoin="round"/>
<path d="M251.928 225.97C251.928 225.97 242.433 254.838 242.152 259.939C241.87 265.039 261.007 275.098 261.703 275.707C262.4 276.315 260.616 258.164 260.616 258.164L267.105 231.8L251.928 225.97Z" fill="white"/>
<g style="mix-blend-mode:multiply" opacity="0.5">
<path d="M256.278 228.333L256.07 227.552L251.927 225.97C251.927 225.97 242.433 254.839 242.152 259.939C241.87 265.039 261.007 275.098 261.703 275.707C261.985 275.95 261.875 273.232 261.642 269.876C255.948 265.871 247.773 260.233 246.82 257.86" fill="#FC6681"/>
</g>
<path d="M251.928 225.97C251.928 225.97 242.433 254.838 242.152 259.939C241.87 265.039 261.007 275.098 261.703 275.707C262.4 276.315 260.616 258.164 260.616 258.164L267.105 231.8L251.928 225.97Z" stroke="#263238" stroke-linecap="round" stroke-linejoin="round"/>
<path d="M296.518 196.97C296.518 196.97 292.852 199.16 285.704 199.403C278.555 199.646 278.213 195.347 269.329 195.347C258.563 195.347 245.06 223.607 245.06 223.607C245.06 223.607 251.781 229.073 258.367 231.375C262.011 232.699 265.842 233.636 269.769 234.163L270.795 252.729H343.309L344.176 234.163L366.844 221.965C366.844 221.965 355.724 205.467 350.323 199.281C344.922 193.096 335.842 195.398 333.068 196.97C330.294 198.541 322.07 198.916 319.04 198.551C315.086 197.825 311.179 196.935 307.333 195.885C307.333 195.885 302.665 192.66 296.518 196.97Z" fill="#FC6681" stroke="#263238" stroke-linecap="round" stroke-linejoin="round"/>
<path d="M270.502 203.52L270.209 234.335" stroke="#263238" stroke-width="0.5" stroke-linecap="round" stroke-linejoin="round"/>
<path d="M273.129 206.319C273.129 206.319 274.156 221.356 278.017 229.732" stroke="#263238" stroke-width="0.5" stroke-linecap="round" stroke-linejoin="round"/>
<path d="M278.689 230.939C279.523 232.983 280.549 234.969 281.756 236.881" stroke="#263238" stroke-width="0.5" stroke-linecap="round" stroke-linejoin="round"/>
<path d="M275.463 204.615C276.85 210.083 278.809 215.44 281.317 220.626" stroke="#263238" stroke-width="0.5" stroke-linecap="round" stroke-linejoin="round"/>
<path d="M338.494 207.282C338.494 207.282 334.987 219.176 331.907 224.52" stroke="#263238" stroke-width="0.5" stroke-linecap="round" stroke-linejoin="round"/>
<path d="M344.176 234.214L344.03 210.192" stroke="#263238" stroke-width="0.5" stroke-linecap="round" stroke-linejoin="round"/>
<path d="M342.575 210.679C342.575 210.679 339.936 225.889 333.508 233.849" stroke="#263238" stroke-width="0.5" stroke-linecap="round" stroke-linejoin="round"/>
<path d="M339.362 230.817C339.362 230.817 336.429 235.431 334.388 237.854" stroke="#263238" stroke-width="0.5" stroke-linecap="round" stroke-linejoin="round"/>
<path d="M292.425 198.795C292.425 198.795 294.478 209.229 297.398 214.562C300.319 219.896 305.439 220.991 309.826 219.419C314.213 217.848 317.427 210.07 317.158 200.153" stroke="#263238" stroke-width="0.5" stroke-linecap="round" stroke-linejoin="round"/>
<path d="M282.05 176.953C282.05 176.953 279.264 172.958 277.076 175.016C274.889 177.075 278.836 181.81 281.023 183.382C283.211 184.954 284.824 183.99 284.689 182.297C284.555 180.604 282.05 176.953 282.05 176.953Z" fill="#2CB93B" stroke="#263238" stroke-linecap="round" stroke-linejoin="round"/>
<path opacity="0.5" d="M282.05 176.953C282.05 176.953 279.264 172.958 277.076 175.016C274.889 177.075 278.836 181.81 281.023 183.382C283.211 184.954 284.824 183.99 284.689 182.297C284.555 180.604 282.05 176.953 282.05 176.953Z" fill="white"/>
<path d="M282.05 176.953C282.05 176.953 279.264 172.958 277.076 175.016C274.889 177.075 278.836 181.81 281.023 183.382C283.211 184.954 284.824 183.99 284.689 182.297C284.555 180.604 282.05 176.953 282.05 176.953Z" stroke="#263238" stroke-linecap="round" stroke-linejoin="round"/>
<path d="M326.274 176.953C326.274 176.953 329.048 172.958 331.248 175.016C333.447 177.075 329.488 181.81 327.3 183.382C325.113 184.954 323.488 183.99 323.634 182.297C323.781 180.604 326.274 176.953 326.274 176.953Z" fill="#2CB93B" stroke="#263238" stroke-linecap="round" stroke-linejoin="round"/>
<path opacity="0.5" d="M326.274 176.953C326.274 176.953 329.048 172.958 331.248 175.016C333.447 177.075 329.488 181.81 327.3 183.382C325.113 184.954 323.488 183.99 323.634 182.297C323.781 180.604 326.274 176.953 326.274 176.953Z" fill="white"/>
<path d="M326.274 176.953C326.274 176.953 329.048 172.958 331.248 175.016C333.447 177.075 329.488 181.81 327.3 183.382C325.113 184.954 323.488 183.99 323.634 182.297C323.781 180.604 326.274 176.953 326.274 176.953Z" stroke="#263238" stroke-linecap="round" stroke-linejoin="round"/>
<path d="M295.198 196.128C296.579 201.306 298.338 206.409 300.465 211.409C303.105 216.864 308.066 216.864 310.119 213.346C312.172 209.827 313.48 196.716 313.48 196.716C313.48 196.716 299.732 198.308 295.198 196.128Z" fill="white" stroke="#263238" stroke-linecap="round" stroke-linejoin="round"/>
<path d="M282.343 178.292C282.343 178.292 286.143 189.446 293.341 196.006C300.539 202.567 303.117 204.118 306.942 203.642C310.767 203.165 314.836 199.038 320.531 190.46C326.225 181.881 326.641 175.3 327.117 174.692C327.594 174.084 325.895 161.956 317.757 156.734C309.618 151.512 300.502 149.22 292.608 154.919C284.714 160.618 279.704 169.916 282.343 178.292Z" fill="white"/>
<g style="mix-blend-mode:multiply" opacity="0.5">
<path d="M317.72 156.693C309.532 151.481 300.465 149.18 292.571 154.878C284.677 160.577 279.703 169.916 282.343 178.292C282.343 178.292 283.064 180.441 284.494 183.362C284.49 182.988 284.551 182.615 284.677 182.256C286.424 177.663 291.581 168.77 308.934 172.846C322.718 176.071 321.032 186.13 319.748 191.494L320.494 190.379C326.201 181.77 326.604 175.219 327.08 174.611C327.557 174.002 325.907 161.916 317.72 156.693Z" fill="#2CB93B"/>
</g>
<path d="M282.343 178.292C282.343 178.292 286.143 189.446 293.341 196.006C300.539 202.567 303.117 204.118 306.942 203.642C310.767 203.165 314.836 199.038 320.531 190.46C326.225 181.881 326.641 175.3 327.117 174.692C327.594 174.084 325.895 161.956 317.757 156.734C309.618 151.512 300.502 149.22 292.608 154.919C284.714 160.618 279.704 169.916 282.343 178.292Z" stroke="#263238" stroke-linecap="round" stroke-linejoin="round"/>
<path d="M306.905 184.112C306.452 186.48 306.207 188.873 306.172 191.271C306.319 193.694 307.199 194.424 305.879 194.668C304.559 194.911 303.105 193.208 303.105 193.208" stroke="#263238" stroke-linecap="round" stroke-linejoin="round"/>
<path d="M292.278 186.059C293.125 186.567 294.137 186.85 295.182 186.872C296.227 186.893 297.255 186.652 298.131 186.181" stroke="#263238" stroke-linecap="round" stroke-linejoin="round"/>
<path d="M310.852 186.059C311.698 186.566 312.708 186.849 313.75 186.87C314.793 186.892 315.819 186.652 316.693 186.181" stroke="#263238" stroke-linecap="round" stroke-linejoin="round"/>
<path d="M301.614 181.972C301.614 181.972 298.828 176.264 289.626 178.93" stroke="#263238" stroke-linecap="round" stroke-linejoin="round"/>
<path d="M309.276 181.273C309.276 181.273 311.61 175.686 319.944 178.961" stroke="#263238" stroke-linecap="round" stroke-linejoin="round"/>
<path d="M303.386 186.475C303.386 189.598 299.072 192.123 293.744 192.123C288.416 192.123 284.09 189.598 284.09 186.475C284.09 183.351 288.123 182.054 293.451 182.054C298.779 182.054 303.386 183.362 303.386 186.475Z" stroke="#263238" stroke-linecap="round" stroke-linejoin="round"/>
<path d="M325.614 186.475C325.614 189.598 321.288 192.123 315.96 192.123C310.632 192.123 306.319 189.598 306.319 186.475C306.319 183.351 310.339 182.054 315.667 182.054C320.995 182.054 325.614 183.362 325.614 186.475Z" stroke="#263238" stroke-linecap="round" stroke-linejoin="round"/>
<path d="M202.4 283.748L201.801 406.675C201.801 407.062 201.986 407.434 202.316 407.707C202.646 407.981 203.094 408.135 203.561 408.135C204.016 408.135 204.453 407.988 204.779 407.725C205.106 407.462 205.295 407.103 205.308 406.726L209.536 283.92L202.4 283.748Z" fill="white" stroke="#263238" stroke-linecap="round" stroke-linejoin="round"/>
<path d="M192.428 312.484L191.854 439.569C191.852 439.761 191.897 439.952 191.985 440.129C192.072 440.307 192.202 440.469 192.366 440.605C192.529 440.74 192.724 440.848 192.938 440.921C193.153 440.994 193.382 441.031 193.614 441.029C194.068 441.03 194.505 440.884 194.833 440.623C195.161 440.362 195.354 440.007 195.373 439.63L199.589 312.647L192.428 312.484Z" fill="white" stroke="#263238" stroke-linecap="round" stroke-linejoin="round"/>
<path d="M407.207 283.748L407.806 406.675C407.807 406.866 407.763 407.056 407.676 407.233C407.589 407.41 407.461 407.571 407.298 407.707C407.136 407.842 406.943 407.95 406.73 408.024C406.517 408.097 406.289 408.135 406.058 408.135C405.602 408.135 405.163 407.988 404.835 407.725C404.507 407.462 404.315 407.104 404.299 406.726L400.083 283.92L407.207 283.748Z" fill="white" stroke="#263238" stroke-linecap="round" stroke-linejoin="round"/>
<path d="M417.191 312.484L417.79 439.569C417.791 439.761 417.747 439.952 417.659 440.129C417.571 440.307 417.441 440.469 417.278 440.605C417.114 440.74 416.919 440.848 416.705 440.921C416.491 440.994 416.261 441.031 416.03 441.029C415.577 441.029 415.141 440.884 414.815 440.623C414.489 440.362 414.298 440.006 414.282 439.63L410.054 312.647L417.191 312.484Z" fill="white" stroke="#263238" stroke-linecap="round" stroke-linejoin="round"/>
<path d="M261.862 317.767L261.508 430.565C261.469 430.846 261.564 431.129 261.771 431.354C261.978 431.579 262.283 431.729 262.62 431.771C262.949 431.733 263.249 431.593 263.458 431.378C263.667 431.163 263.769 430.891 263.744 430.615L266.396 317.899L261.862 317.767Z" fill="white" stroke="#263238" stroke-linecap="round" stroke-linejoin="round"/>
<path d="M347.903 314.137L348.233 412.576C348.262 412.815 348.178 413.053 348.001 413.241C347.823 413.43 347.565 413.555 347.28 413.59C346.996 413.555 346.739 413.43 346.563 413.241C346.388 413.052 346.308 412.814 346.339 412.576L344.078 314.218L347.903 314.137Z" fill="white" stroke="#263238" stroke-linecap="round" stroke-linejoin="round"/>
<path d="M260.53 314.137L260.86 412.576C260.888 412.815 260.805 413.053 260.628 413.241C260.45 413.43 260.192 413.555 259.907 413.59C259.623 413.555 259.366 413.43 259.19 413.241C259.015 413.052 258.935 412.814 258.966 412.576L256.705 314.218L260.53 314.137Z" fill="white" stroke="#263238" stroke-linecap="round" stroke-linejoin="round"/>
<path d="M345.447 317.767L345.826 430.565C345.865 430.846 345.77 431.129 345.563 431.354C345.356 431.579 345.051 431.729 344.714 431.771C344.386 431.731 344.088 431.59 343.88 431.376C343.671 431.162 343.568 430.89 343.59 430.615L340.938 317.899L345.447 317.767Z" fill="white" stroke="#263238" stroke-linecap="round" stroke-linejoin="round"/>
<path d="M303.056 325.666C333.089 325.666 357.435 321.049 357.435 315.354C357.435 309.659 333.089 305.042 303.056 305.042C273.023 305.042 248.677 309.659 248.677 315.354C248.677 321.049 273.023 325.666 303.056 325.666Z" fill="white" stroke="#263238" stroke-linecap="round" stroke-linejoin="round"/>
<path d="M276.575 402.893C276.575 402.893 273.728 406.279 275.769 407.963C277.809 409.646 279.838 408.977 279.63 410.67C279.422 412.363 276.172 418.103 273.325 424.187C270.477 430.271 276.38 436.355 281.879 434.671C287.378 432.988 286.767 416.075 287.573 413.033C288.38 409.991 289.003 409.484 288.795 406.614C288.587 403.744 288.392 400.702 285.74 400.358C283.088 400.013 277.797 401.716 276.575 402.893Z" fill="white" stroke="#263238" stroke-linecap="round" stroke-linejoin="round"/>
<path d="M285.312 430.007C281.646 428.851 276.025 429.084 272.86 429.348C273.923 433.171 277.993 435.858 281.879 434.671C283.504 434.175 284.567 432.37 285.312 430.007Z" fill="#FC6681" stroke="#263238" stroke-linecap="round" stroke-linejoin="round"/>
<path d="M270.27 395.46C270.27 395.46 276.172 403.744 277.797 405.935C279.422 408.125 284.934 407.456 285.545 404.414C286.156 401.372 283.296 392.925 283.296 392.925L271.076 395.46H270.27Z" fill="white" stroke="#263238" stroke-linecap="round" stroke-linejoin="round"/>
<path d="M256.217 382.278C256.217 382.278 254.579 384.478 255.398 385.999C256.217 387.52 258.453 391.911 259.883 394.111C261.312 396.312 267.826 397.66 275.353 396.646C282.881 395.632 287.17 392.753 287.378 390.218C287.585 387.683 286.156 384.306 285.129 380.25C284.103 376.194 281.463 376.366 277.797 376.366C274.131 376.366 259.272 379.915 256.217 382.278Z" fill="#FC6681" stroke="#263238" stroke-linecap="round" stroke-linejoin="round"/>
<path d="M278.213 332.592C278.323 328.435 281.219 326.386 281.439 323.537C281.784 319.77 281.408 315.982 280.327 312.312L274.755 305.995C258.722 306.167 247.235 306.39 247.052 306.441C246.441 306.603 246.025 309.483 245.622 311.846C245.622 311.846 238.815 312.566 240.037 328.283C240.209 330.473 247.076 355.813 247.577 358.703C250.632 376.356 257.439 385.198 257.439 385.198C257.439 385.198 258.05 387.399 265.993 386.892C273.936 386.385 281.879 381.994 281.879 381.994C281.879 381.994 277.797 347.63 278.213 332.592Z" fill="#263238" stroke="#263238" stroke-linecap="round" stroke-linejoin="round"/>
<path d="M244.522 309.27C244.522 309.27 236.103 310.284 230.946 315.172C225.789 320.059 230.164 323.283 240.184 322.411C250.204 321.539 261.765 313.032 262.253 312.576C262.742 312.119 251.805 306.34 244.522 309.27Z" fill="white" stroke="#263238" stroke-linecap="round" stroke-linejoin="round"/>
<path d="M259.467 312.312C264.832 312.541 270.154 313.221 275.353 314.34C282.282 316.033 294.502 319.41 297.349 319.41C300.197 319.41 299.39 310.619 299.39 308.935C299.39 307.252 262.73 306.228 258.245 306.228C253.76 306.228 259.467 312.312 259.467 312.312Z" fill="white" stroke="#263238" stroke-linecap="round" stroke-linejoin="round"/>
<path d="M299.39 308.935C299.39 308.935 296.127 310.284 294.905 315.354C293.683 320.424 292.058 323.131 294.502 324.48C296.946 325.829 307.541 326.843 309.166 325.494C310.791 324.145 315.276 317.382 316.095 312.991C316.913 308.601 299.39 308.935 299.39 308.935Z" fill="#FC6681" stroke="#263238" stroke-linecap="round" stroke-linejoin="round"/>
<path d="M313.235 310.619C311.341 312.422 309.829 314.48 308.763 316.703C307.899 319.03 307.217 321.401 306.722 323.801C310.621 324.687 314.432 325.82 318.123 327.187C324.649 329.55 335.647 331.243 346.229 333.271C356.812 335.299 359.671 337.327 363.337 337.327C367.003 337.327 371.488 334.955 377.195 329.215C382.901 323.476 378.001 311.298 372.307 307.577C366.612 303.855 336.05 300.823 331.981 301.837C327.911 302.851 313.235 310.619 313.235 310.619Z" fill="#263238" stroke="#263238" stroke-linecap="round" stroke-linejoin="round"/>
<path d="M236.811 322.503C236.007 319.469 234.376 316.629 232.046 314.198C231.667 314.492 231.3 314.796 230.946 315.131C226.412 319.41 229.247 322.452 236.811 322.503Z" fill="#FC6681" stroke="#263238" stroke-linecap="round" stroke-linejoin="round"/>
<path d="M277.59 325.18C277.59 325.18 273.386 362.505 264.807 368.315" stroke="white" stroke-width="0.5" stroke-linecap="round" stroke-linejoin="round"/>
<path d="M274.62 360.609C274.62 360.609 271.284 372.777 262.534 377.614" stroke="white" stroke-width="0.5" stroke-linecap="round" stroke-linejoin="round"/>
<path d="M328.718 318.396C328.718 318.396 315.679 319.075 324.233 323.801C332.787 328.526 348.27 331.578 348.27 331.578" stroke="white" stroke-width="0.5" stroke-linecap="round" stroke-linejoin="round"/>
<path d="M423.374 305.609L418.975 302.324L408.808 284.072C408.326 283.242 407.568 282.542 406.625 282.056C405.682 281.569 404.591 281.316 403.48 281.324H206.005C204.892 281.314 203.798 281.566 202.853 282.053C201.907 282.54 201.148 283.24 200.665 284.072L187.992 306.806L185.903 306.167V311.369L186.001 311.308C186.125 312.002 186.55 312.635 187.195 313.088C187.84 313.542 188.662 313.785 189.508 313.772H419.965C420.855 313.789 421.719 313.518 422.373 313.017C423.027 312.516 423.421 311.823 423.472 311.085L423.374 305.609Z" fill="#263238" stroke="#263238" stroke-linecap="round" stroke-linejoin="round"/>
<path d="M419.965 309.017H189.508C188.937 309.035 188.37 308.934 187.859 308.721C187.349 308.508 186.912 308.191 186.59 307.8C186.267 307.409 186.07 306.956 186.016 306.484C185.962 306.012 186.053 305.537 186.282 305.102L200.665 279.316C201.145 278.483 201.904 277.781 202.85 277.294C203.797 276.807 204.891 276.555 206.005 276.568H403.48C404.591 276.557 405.683 276.81 406.627 277.297C407.571 277.784 408.328 278.485 408.808 279.316L423.191 305.102C423.419 305.537 423.51 306.012 423.456 306.484C423.402 306.956 423.205 307.409 422.882 307.8C422.56 308.191 422.123 308.508 421.613 308.721C421.102 308.934 420.535 309.035 419.965 309.017Z" fill="white" stroke="#263238" stroke-linecap="round" stroke-linejoin="round"/>
<g style="mix-blend-mode:multiply" opacity="0.5">
<path d="M201.178 291.697C201.178 291.697 195.96 294.668 199.223 295.753C202.485 296.838 239.988 296.027 244.559 294.942C249.129 293.857 254.335 283.849 254.335 282.227C254.335 280.604 247.76 279.438 245.341 279.347C242.921 279.256 210.954 280.868 210.954 280.868L201.178 291.697Z" fill="#FC6681"/>
</g>
<g style="mix-blend-mode:multiply" opacity="0.5">
<path d="M387.728 296.838C395.112 296.838 401.097 294.777 401.097 292.235C401.097 289.692 395.112 287.631 387.728 287.631C380.345 287.631 374.36 289.692 374.36 292.235C374.36 294.777 380.345 296.838 387.728 296.838Z" fill="#FC6681"/>
</g>
<g style="mix-blend-mode:multiply" opacity="0.5">
<path d="M302.616 302.527C329.092 302.527 350.555 299.195 350.555 295.084C350.555 290.974 329.092 287.641 302.616 287.641C276.14 287.641 254.677 290.974 254.677 295.084C254.677 299.195 276.14 302.527 302.616 302.527Z" fill="#FC6681"/>
</g>
<path d="M377.952 274.125C377.952 274.125 377.072 271.215 374.152 272.188C371.231 273.161 371.525 279.59 372.099 283.231C372.673 286.871 376.633 285.167 376.633 285.167V282.987C376.633 282.987 375.178 283.95 374.445 282.622C373.712 281.294 373.859 274.611 374.592 274.733C375.325 274.855 376.779 276.913 376.779 276.913C376.779 276.913 377.219 276.68 377.952 274.125Z" fill="#FC6681" stroke="#263238" stroke-linecap="round" stroke-linejoin="round"/>
<path d="M375.85 274.612V290.552C375.85 292.427 381.044 293.949 387.459 293.949C393.875 293.949 399.056 292.427 399.056 290.552V274.612H375.85Z" fill="#FC6681" stroke="#263238" stroke-linecap="round" stroke-linejoin="round"/>
<path d="M399.056 274.612C399.056 276.234 393.863 277.542 387.459 277.542C381.056 277.542 375.85 276.234 375.85 274.612C375.85 272.989 381.044 271.681 387.459 271.681C393.875 271.681 399.056 272.999 399.056 274.612Z" fill="white" stroke="#263238" stroke-linecap="round" stroke-linejoin="round"/>
<path d="M397.541 274.611C397.541 276.021 393.02 277.157 387.459 277.157C381.899 277.157 377.366 276.021 377.366 274.611C377.366 273.202 381.887 272.066 387.459 272.066C393.032 272.066 397.541 273.202 397.541 274.611Z" fill="white" stroke="#263238" stroke-linecap="round" stroke-linejoin="round"/>
<path d="M379.675 276.234C384.755 277.464 390.152 277.464 395.231 276.234C390.152 275.004 384.755 275.004 379.675 276.234Z" fill="#263238" stroke="#263238" stroke-linecap="round" stroke-linejoin="round"/>
<path d="M199.736 281.892L199.882 287.347L244.18 287.712V281.405L199.736 281.892Z" fill="white" stroke="#263238" stroke-linecap="round" stroke-linejoin="round"/>
<path d="M244.18 287.712L250.62 276.193V272.796L243.887 282.5L244.18 287.712Z" fill="white" stroke="#263238" stroke-linecap="round" stroke-linejoin="round"/>
<path d="M199.736 286.861L199.882 292.326L244.18 292.691V286.384L199.736 286.861Z" fill="white" stroke="#263238" stroke-linecap="round" stroke-linejoin="round"/>
<path d="M244.18 292.691L250.62 281.162V277.765L243.887 287.469L244.18 292.691Z" fill="white" stroke="#263238" stroke-linecap="round" stroke-linejoin="round"/>
<path d="M216.844 268.061C216.844 268.061 217.87 266.368 216.404 265.638C214.938 264.907 213.337 266.652 212.457 267.209C211.577 267.767 193.161 277.887 192.575 279.469C191.988 281.05 192.575 284.539 196.522 284.924C200.469 285.309 203.976 283.109 205.736 282.744C207.496 282.379 208.18 282.257 208.18 282.257L220.314 268.669L216.844 268.061Z" fill="white" stroke="#263238" stroke-linecap="round" stroke-linejoin="round"/>
<path d="M196.522 284.934C200.469 285.299 203.976 283.119 205.736 282.754C207.496 282.389 208.18 282.267 208.18 282.267L208.62 281.77L197.218 279.844C196.599 279.359 195.802 279.06 194.954 278.994C194.106 278.928 193.256 279.099 192.538 279.479C191.988 281.04 192.575 284.559 196.522 284.934Z" fill="white" stroke="#263238" stroke-linecap="round" stroke-linejoin="round"/>
<path d="M197.255 279.864H231.471C242.152 279.864 245.365 279.377 245.365 279.377L251.94 268.092C251.94 268.092 231.166 269.187 224.75 268.822C222.099 268.758 219.459 268.514 216.856 268.092L197.255 279.864Z" fill="white" stroke="#263238" stroke-linecap="round" stroke-linejoin="round"/>
<path d="M197.255 279.864L197.842 282.044C197.842 282.044 225.618 282.166 232.925 282.166C240.233 282.166 245.793 282.409 245.793 282.409L245.353 279.367L197.255 279.864Z" fill="white" stroke="#263238" stroke-linecap="round" stroke-linejoin="round"/>
<path d="M245.793 282.379L251.927 270.728V268.061L245.353 279.347L245.793 282.379Z" fill="white" stroke="#263238" stroke-linecap="round" stroke-linejoin="round"/>
<path d="M344.482 296.007H260.714C260.528 296.008 260.344 295.979 260.172 295.921C260 295.863 259.844 295.777 259.712 295.669C259.58 295.561 259.476 295.432 259.404 295.289C259.333 295.147 259.296 294.995 259.296 294.841C259.296 294.687 259.333 294.534 259.404 294.392C259.476 294.25 259.58 294.121 259.712 294.013C259.844 293.904 260 293.819 260.172 293.761C260.344 293.703 260.528 293.673 260.714 293.675H344.482C344.667 293.673 344.85 293.703 345.021 293.761C345.193 293.819 345.348 293.905 345.479 294.013C345.61 294.122 345.713 294.251 345.783 294.393C345.853 294.535 345.889 294.687 345.887 294.841C345.889 294.994 345.853 295.147 345.783 295.289C345.713 295.431 345.61 295.56 345.479 295.668C345.348 295.777 345.193 295.863 345.021 295.921C344.85 295.979 344.667 296.008 344.482 296.007Z" fill="white" stroke="#263238" stroke-linecap="round" stroke-linejoin="round"/>
<path d="M345.191 293.654H259.993C259.681 293.655 259.381 293.556 259.154 293.379C258.926 293.202 258.789 292.96 258.771 292.701L254.139 246.514C254.118 246.371 254.135 246.225 254.187 246.088C254.239 245.951 254.325 245.824 254.441 245.716C254.557 245.609 254.698 245.523 254.857 245.465C255.016 245.406 255.188 245.377 255.361 245.378H349.834C350.008 245.377 350.18 245.406 350.338 245.465C350.497 245.523 350.639 245.609 350.755 245.716C350.87 245.824 350.957 245.951 351.009 246.088C351.061 246.225 351.077 246.371 351.056 246.514L346.425 292.701C346.406 292.961 346.267 293.205 346.038 293.383C345.808 293.56 345.504 293.657 345.191 293.654Z" fill="white" stroke="#263238" stroke-linecap="round" stroke-linejoin="round"/>
<path d="M310.632 270.312C310.632 273.07 307.027 275.301 302.592 275.301C298.156 275.301 294.539 273.07 294.539 270.312C294.539 267.554 298.143 265.333 302.592 265.333C307.04 265.333 310.632 267.564 310.632 270.312Z" fill="white" stroke="#263238" stroke-linecap="round" stroke-linejoin="round"/>
<path d="M393.887 234.234C395.194 233.388 396.113 232.197 396.49 230.857C396.765 229.853 396.735 228.808 396.405 227.815" stroke="#263238" stroke-linecap="round" stroke-linejoin="round"/>
<path d="M384.136 270.393C384.136 270.393 392.262 266.337 389.61 261.703C386.958 257.069 377.989 253.997 377.989 246.777C377.989 240.551 385.969 238.249 391.174 235.755" stroke="#263238" stroke-linecap="round" stroke-linejoin="round"/>
<path d="M391.639 270.261C391.639 270.261 396.172 267.757 396.172 263.782C396.172 261.115 392.739 259.371 388.205 255.082" stroke="#263238" stroke-linecap="round" stroke-linejoin="round"/>
<path d="M385.7 252.486C385.7 252.486 382.73 250.549 384.918 246.909" stroke="#263238" stroke-linecap="round" stroke-linejoin="round"/>
<path d="M316.901 146.27C318.355 146.016 321.472 145.022 323.573 140.976C323.606 140.915 323.623 140.849 323.625 140.782C323.626 140.716 323.612 140.649 323.582 140.587C323.553 140.525 323.509 140.468 323.453 140.42C323.397 140.372 323.33 140.334 323.256 140.307C323.106 140.256 322.939 140.254 322.788 140.304C322.638 140.353 322.516 140.449 322.449 140.571C320.518 144.282 317.757 145.103 316.608 145.286C318.664 143.222 319.799 140.632 319.822 137.955C319.822 130.918 311.964 125.219 302.274 125.219C292.583 125.219 284.726 130.918 284.726 137.955C284.733 140.524 285.764 143.02 287.659 145.053C285.814 144.972 282.697 145.621 278.75 149.443C278.638 149.54 278.575 149.669 278.575 149.803C278.575 149.938 278.638 150.067 278.75 150.163C278.864 150.241 279.006 150.284 279.154 150.285C279.243 150.285 279.33 150.269 279.411 150.237C279.491 150.206 279.562 150.16 279.618 150.102C284.665 145.225 288.001 146.046 288.673 146.27C287.532 146.79 286.463 147.412 285.484 148.125C279.85 152.333 276.416 160.293 276.856 166.925C277.351 171.323 279.272 175.528 282.416 179.093C286.508 176.663 289.901 173.512 292.351 169.865C294.177 167.187 295.81 164.42 297.239 161.581C297.239 164.552 297.704 168.141 299.585 170.707C300.943 172.733 302.932 174.42 305.344 175.59C307.756 176.76 310.502 177.371 313.296 177.359C314.261 177.37 315.224 177.292 316.168 177.126C316.251 177.108 316.329 177.077 316.396 177.033C316.463 176.99 316.519 176.935 316.559 176.872C321.276 177.703 325.968 177.633 326.689 176.801C327.85 175.473 329.5 171.325 330.05 166.255C331.052 157.657 324.526 150.194 316.901 146.27ZM300.722 170.088C298.351 166.874 298.425 161.632 298.706 158.62L298.865 158.275C298.977 161.373 299.929 164.409 301.649 167.16C303.368 169.911 305.812 172.305 308.799 174.165C310.449 175.111 312.279 175.821 314.213 176.264C311.219 176.436 305.06 175.959 300.722 170.088Z" fill="#263238"/>
<path d="M300.93 154.128C300.93 154.128 299.928 160.273 309.337 166.296C318.746 172.319 327.667 169.946 327.667 169.946" stroke="white" stroke-width="0.5" stroke-linecap="round" stroke-linejoin="round"/>
<path d="M302.311 152.1C302.311 152.1 312.221 164.075 325.907 160.952" stroke="white" stroke-width="0.5" stroke-linecap="round" stroke-linejoin="round"/>
<path d="M297.41 148.115C295.847 147.457 294.097 147.167 292.349 147.278C290.601 147.389 288.924 147.896 287.5 148.744C282.233 151.654 279.594 158.529 279.594 158.529" stroke="white" stroke-width="0.5" stroke-linecap="round" stroke-linejoin="round"/>
<path d="M297.667 151.451C297.667 151.451 293.402 150.508 290.763 152.698C289.476 153.666 288.376 154.791 287.5 156.034" stroke="white" stroke-width="0.5" stroke-linecap="round" stroke-linejoin="round"/>
</svg>
