<svg width="374" height="87" viewBox="0 0 374 87" fill="none" xmlns="http://www.w3.org/2000/svg">
<g filter="url(#filter0_d)">
<path d="M4 21C4 9.9543 12.9543 1 24 1H350C361.046 1 370 9.95431 370 21V60C370 71.0457 361.046 80 350 80H24C12.9543 80 4 71.0457 4 60V21Z" fill="#E4E4E4"/>
</g>
<path d="M28.1918 30.1818V45.5227C28.1811 47.8239 27.1158 49.049 25.2195 49.049C23.451 49.049 22.2685 47.973 22.2365 46.2045H18.3054C18.3054 50.2315 21.2458 52.2983 25.0703 52.2983C29.2784 52.2983 32.1016 49.7415 32.1122 45.5227V30.1818H28.1918ZM40.932 52.3303C43.4995 52.3303 45.0335 51.1264 45.7367 49.7521H45.8645V52H49.5719V41.0483C49.5719 36.723 46.0456 35.4233 42.9242 35.4233C39.4831 35.4233 36.8411 36.9574 35.9888 39.9403L39.5897 40.4517C39.9732 39.3331 41.0598 38.3743 42.9455 38.3743C44.7353 38.3743 45.7154 39.2905 45.7154 40.8991V40.9631C45.7154 42.071 44.5541 42.1243 41.6671 42.4332C38.4924 42.7741 35.4561 43.7223 35.4561 47.4084C35.4561 50.6257 37.8105 52.3303 40.932 52.3303ZM41.9334 49.4964C40.3247 49.4964 39.1742 48.7614 39.1742 47.3445C39.1742 45.8636 40.4632 45.2457 42.1891 45.0007C43.2012 44.8622 45.2253 44.6065 45.726 44.2017V46.13C45.726 47.9517 44.2559 49.4964 41.9334 49.4964ZM55.2542 58.1364C58.2585 58.1364 59.995 56.5916 60.9218 53.9815L67.495 35.6577L63.3721 35.6364L59.5902 47.9943H59.4197L55.6484 35.6364H51.5575L57.4914 52.3409L57.1612 53.2251C56.4474 55.0895 55.3181 55.2173 53.6349 54.7273L52.74 57.7315C53.262 57.9446 54.1995 58.1364 55.2542 58.1364ZM74.4051 52.3303C76.9726 52.3303 78.5067 51.1264 79.2098 49.7521H79.3376V52H83.045V41.0483C83.045 36.723 79.5188 35.4233 76.3973 35.4233C72.9563 35.4233 70.3142 36.9574 69.4619 39.9403L73.0628 40.4517C73.4463 39.3331 74.533 38.3743 76.4186 38.3743C78.2084 38.3743 79.1885 39.2905 79.1885 40.8991V40.9631C79.1885 42.071 78.0273 42.1243 75.1402 42.4332C71.9655 42.7741 68.9293 43.7223 68.9293 47.4084C68.9293 50.6257 71.2837 52.3303 74.4051 52.3303ZM75.4065 49.4964C73.7979 49.4964 72.6473 48.7614 72.6473 47.3445C72.6473 45.8636 73.9364 45.2457 75.6622 45.0007C76.6743 44.8622 78.6984 44.6065 79.1992 44.2017V46.13C79.1992 47.9517 77.729 49.4964 75.4065 49.4964ZM99.8495 39.9616C99.3168 37.1918 97.1009 35.4233 93.2657 35.4233C89.3239 35.4233 86.6393 37.3622 86.6499 40.3878C86.6393 42.7741 88.1095 44.3509 91.2522 45.0007L94.0434 45.5866C95.5455 45.9169 96.2487 46.5241 96.2487 47.451C96.2487 48.5696 95.0342 49.4112 93.2018 49.4112C91.4333 49.4112 90.2827 48.6442 89.9525 47.174L86.1918 47.5362C86.6712 50.5405 89.1961 52.3196 93.2124 52.3196C97.3033 52.3196 100.19 50.1996 100.201 47.0994C100.19 44.7663 98.6883 43.3388 95.5988 42.6676L92.8076 42.071C91.1457 41.6982 90.4852 41.1229 90.4958 40.1747C90.4852 39.0668 91.7103 38.2997 93.319 38.2997C95.0981 38.2997 96.0356 39.2692 96.3339 40.3452L99.8495 39.9616ZM103.375 52H107.231V35.6364H103.375V52ZM105.313 33.3139C106.539 33.3139 107.54 32.3764 107.54 31.2259C107.54 30.0646 106.539 29.1271 105.313 29.1271C104.078 29.1271 103.076 30.0646 103.076 31.2259C103.076 32.3764 104.078 33.3139 105.313 33.3139ZM115.047 42.4119C115.047 40.0469 116.474 38.6832 118.509 38.6832C120.501 38.6832 121.694 39.9936 121.694 42.1776V52H125.551V41.581C125.562 37.6605 123.324 35.4233 119.947 35.4233C117.497 35.4233 115.814 36.5952 115.068 38.4169H114.876V35.6364H111.19V52H115.047V42.4119ZM136.581 58.4773C141.002 58.4773 144.262 56.4531 144.262 52.2663V35.6364H140.459V38.3423H140.246C139.66 37.1598 138.435 35.4233 135.548 35.4233C131.766 35.4233 128.794 38.3849 128.794 43.7649C128.794 49.1023 131.766 51.7656 135.537 51.7656C138.339 51.7656 139.649 50.2635 140.246 49.0597H140.438V52.1598C140.438 54.5675 138.84 55.5582 136.645 55.5582C134.323 55.5582 133.3 54.4609 132.831 53.5021L129.358 54.3438C130.061 56.6342 132.416 58.4773 136.581 58.4773ZM136.613 48.7401C134.067 48.7401 132.725 46.7585 132.725 43.7436C132.725 40.7713 134.046 38.5874 136.613 38.5874C139.096 38.5874 140.459 40.6435 140.459 43.7436C140.459 46.8651 139.074 48.7401 136.613 48.7401ZM152.065 42.4119C152.065 40.0469 153.535 38.6832 155.602 38.6832C157.626 38.6832 158.819 39.9723 158.819 42.1776V52H162.676V41.581C162.676 37.6286 160.438 35.4233 157.04 35.4233C154.526 35.4233 152.928 36.5632 152.171 38.4169H151.98V30.1818H148.208V52H152.065V42.4119ZM173.844 52.3196C177.658 52.3196 180.279 50.4553 180.961 47.6108L177.36 47.206C176.838 48.5909 175.56 49.3153 173.898 49.3153C171.405 49.3153 169.753 47.6747 169.722 44.8729H181.121V43.6903C181.121 37.9482 177.669 35.4233 173.642 35.4233C168.954 35.4233 165.897 38.8643 165.897 43.9141C165.897 49.049 168.912 52.3196 173.844 52.3196ZM169.732 42.2734C169.849 40.1854 171.394 38.4276 173.695 38.4276C175.911 38.4276 177.403 40.0469 177.424 42.2734H169.732ZM198.331 52.3196C200.26 52.3196 202.401 51.723 203.924 50.402L205.32 52H209.496L206.3 48.2607C207.365 46.8331 208.196 44.7131 208.196 41.7195H204.883C204.883 43.1577 204.542 44.4467 203.967 45.5227L199.983 40.8565L201.357 39.8445C203.179 38.5234 204.255 36.9361 204.255 34.8693C204.255 32.206 202.156 29.9155 198.715 29.9155C195.263 29.9155 192.994 32.206 192.994 35.3061C192.994 37.2557 193.974 38.843 195.231 40.3984C192.802 42.071 191.14 43.6371 191.14 46.2045C191.14 49.6776 193.868 52.3196 198.331 52.3196ZM201.826 47.9943C200.792 48.7401 199.61 49.1449 198.449 49.1449C196.307 49.1449 194.922 47.7599 194.922 46.0341C194.922 45.2777 195.498 44.1378 196.946 43.0724L197.298 42.8168L201.826 47.9943ZM198.012 38.5021C197.096 37.3729 196.435 36.3608 196.435 35.3594C196.435 34.1768 197.373 33.0795 198.768 33.0795C200.142 33.0795 200.984 34.1023 200.984 35.0398C200.984 36.1477 200.387 36.9254 199.248 37.6605L198.012 38.5021ZM237.978 37.5433C237.307 32.696 233.578 29.8835 228.742 29.8835C223.042 29.8835 218.749 34.0384 218.749 41.0909C218.749 48.1328 222.989 52.2983 228.742 52.2983C233.93 52.2983 237.371 48.9425 237.978 44.777L233.994 44.7557C233.493 47.3125 231.405 48.7507 228.795 48.7507C225.258 48.7507 222.722 46.098 222.722 41.0909C222.722 36.169 225.237 33.4311 228.806 33.4311C231.458 33.4311 233.536 34.9332 233.994 37.5433H237.978ZM248.558 52.3196C253.352 52.3196 256.399 48.9425 256.399 43.8821C256.399 38.8111 253.352 35.4233 248.558 35.4233C243.764 35.4233 240.717 38.8111 240.717 43.8821C240.717 48.9425 243.764 52.3196 248.558 52.3196ZM248.58 49.2301C245.927 49.2301 244.627 46.8651 244.627 43.8714C244.627 40.8778 245.927 38.4808 248.58 38.4808C251.19 38.4808 252.489 40.8778 252.489 43.8714C252.489 46.8651 251.19 49.2301 248.58 49.2301ZM259.666 52H263.522V42.0497C263.522 40.0362 264.865 38.6726 266.527 38.6726C268.157 38.6726 269.275 39.7699 269.275 41.4531V52H273.057V41.794C273.057 39.951 274.155 38.6726 276.019 38.6726C277.574 38.6726 278.81 39.5888 278.81 41.6129V52H282.677V41.0163C282.677 37.3622 280.568 35.4233 277.564 35.4233C275.188 35.4233 273.377 36.5952 272.652 38.4169H272.482C271.853 36.5632 270.266 35.4233 268.061 35.4233C265.866 35.4233 264.226 36.5526 263.544 38.4169H263.352V35.6364H259.666V52ZM286.583 58.1364H290.44V49.4219H290.599C291.207 50.6151 292.474 52.2876 295.287 52.2876C299.144 52.2876 302.031 49.2301 302.031 43.8395C302.031 38.3849 299.058 35.4233 295.276 35.4233C292.389 35.4233 291.185 37.1598 290.599 38.3423H290.376V35.6364H286.583V58.1364ZM290.365 43.8182C290.365 40.6435 291.729 38.5874 294.211 38.5874C296.778 38.5874 298.099 40.7713 298.099 43.8182C298.099 46.8864 296.757 49.1236 294.211 49.1236C291.75 49.1236 290.365 46.9929 290.365 43.8182ZM310.035 52.3303C312.603 52.3303 314.137 51.1264 314.84 49.7521H314.968V52H318.675V41.0483C318.675 36.723 315.149 35.4233 312.028 35.4233C308.587 35.4233 305.944 36.9574 305.092 39.9403L308.693 40.4517C309.077 39.3331 310.163 38.3743 312.049 38.3743C313.839 38.3743 314.819 39.2905 314.819 40.8991V40.9631C314.819 42.071 313.658 42.1243 310.77 42.4332C307.596 42.7741 304.56 43.7223 304.56 47.4084C304.56 50.6257 306.914 52.3303 310.035 52.3303ZM311.037 49.4964C309.428 49.4964 308.278 48.7614 308.278 47.3445C308.278 45.8636 309.567 45.2457 311.292 45.0007C312.305 44.8622 314.329 44.6065 314.829 44.2017V46.13C314.829 47.9517 313.359 49.4964 311.037 49.4964ZM326.403 42.4119C326.403 40.0469 327.831 38.6832 329.865 38.6832C331.858 38.6832 333.051 39.9936 333.051 42.1776V52H336.907V41.581C336.918 37.6605 334.681 35.4233 331.304 35.4233C328.853 35.4233 327.17 36.5952 326.424 38.4169H326.233V35.6364H322.547V52H326.403V42.4119ZM342.632 58.1364C345.637 58.1364 347.373 56.5916 348.3 53.9815L354.873 35.6577L350.75 35.6364L346.968 47.9943H346.798L343.026 35.6364H338.936L344.869 52.3409L344.539 53.2251C343.825 55.0895 342.696 55.2173 341.013 54.7273L340.118 57.7315C340.64 57.9446 341.578 58.1364 342.632 58.1364Z" fill="#276678"/>
<defs>
<filter id="filter0_d" x="0" y="0" width="374" height="87" filterUnits="userSpaceOnUse" color-interpolation-filters="sRGB">
<feFlood flood-opacity="0" result="BackgroundImageFix"/>
<feColorMatrix in="SourceAlpha" type="matrix" values="0 0 0 0 0 0 0 0 0 0 0 0 0 0 0 0 0 0 127 0" result="hardAlpha"/>
<feOffset dy="3"/>
<feGaussianBlur stdDeviation="2"/>
<feColorMatrix type="matrix" values="0 0 0 0 0 0 0 0 0 0 0 0 0 0 0 0 0 0 0.25 0"/>
<feBlend mode="normal" in2="BackgroundImageFix" result="effect1_dropShadow"/>
<feBlend mode="normal" in="SourceGraphic" in2="effect1_dropShadow" result="shape"/>
</filter>
</defs>
</svg>
