<svg width="762" height="1225" viewBox="0 0 762 1225" fill="none" xmlns="http://www.w3.org/2000/svg">
<ellipse cx="195.5" cy="612.5" rx="566.5" ry="612.5" fill="#276678"/>
<path d="M184.909 287.5H194.909C193.636 278.295 185.523 271.818 175 271.818C162.705 271.818 153.227 280.682 153.227 295.773C153.227 310.5 162.091 319.636 175.205 319.636C186.955 319.636 195.341 312.205 195.341 299.955V294.091H175.864V301.5H185.864C185.727 307.273 181.795 310.932 175.25 310.932C167.864 310.932 163.205 305.409 163.205 295.682C163.205 286 168.045 280.523 175.159 280.523C180.227 280.523 183.659 283.136 184.909 287.5ZM202.537 319H212.219V299.25C212.219 294.955 215.355 292 219.628 292C220.969 292 222.81 292.227 223.719 292.523V283.932C222.855 283.727 221.651 283.591 220.673 283.591C216.764 283.591 213.56 285.864 212.287 290.182H211.923V284.091H202.537V319ZM242.995 319.682C251.631 319.682 257.449 315.477 258.813 309L249.858 308.409C248.881 311.068 246.381 312.455 243.154 312.455C238.313 312.455 235.245 309.25 235.245 304.045V304.023H259.017V301.364C259.017 289.5 251.835 283.636 242.608 283.636C232.335 283.636 225.676 290.932 225.676 301.705C225.676 312.773 232.245 319.682 242.995 319.682ZM235.245 298.023C235.449 294.045 238.472 290.864 242.767 290.864C246.972 290.864 249.881 293.864 249.904 298.023H235.245ZM281.23 319.682C289.867 319.682 295.685 315.477 297.049 309L288.094 308.409C287.117 311.068 284.617 312.455 281.39 312.455C276.549 312.455 273.48 309.25 273.48 304.045V304.023H297.253V301.364C297.253 289.5 290.071 283.636 280.844 283.636C270.571 283.636 263.912 290.932 263.912 301.705C263.912 312.773 270.48 319.682 281.23 319.682ZM273.48 298.023C273.685 294.045 276.708 290.864 281.003 290.864C285.208 290.864 288.117 293.864 288.14 298.023H273.48ZM322.125 284.091H315.557V275.727H305.875V284.091H301.103V291.364H305.875V309.545C305.83 316.386 310.489 319.773 317.512 319.477C320.012 319.386 321.785 318.886 322.762 318.568L321.239 311.364C320.762 311.455 319.739 311.682 318.83 311.682C316.898 311.682 315.557 310.955 315.557 308.273V291.364H322.125V284.091ZM328.418 319H338.1V284.091H328.418V319ZM333.282 279.591C336.168 279.591 338.532 277.386 338.532 274.682C338.532 272 336.168 269.795 333.282 269.795C330.418 269.795 328.055 272 328.055 274.682C328.055 277.386 330.418 279.591 333.282 279.591ZM355.523 298.818C355.546 294.318 358.228 291.682 362.137 291.682C366.023 291.682 368.364 294.227 368.342 298.5V319H378.023V296.773C378.023 288.636 373.251 283.636 365.978 283.636C360.796 283.636 357.046 286.182 355.478 290.25H355.069V284.091H345.842V319H355.523V298.818ZM401.367 332.818C411.345 332.818 418.436 328.273 418.436 319.341V284.091H408.822V289.955H408.458C407.163 287.114 404.322 283.636 398.481 283.636C390.822 283.636 384.345 289.591 384.345 301.477C384.345 313.091 390.64 318.5 398.504 318.5C404.072 318.5 407.186 315.705 408.458 312.818H408.867V319.205C408.867 324 405.799 325.864 401.595 325.864C397.322 325.864 395.163 324 394.367 321.886L385.413 323.091C386.572 328.591 391.958 332.818 401.367 332.818ZM401.572 311.227C396.822 311.227 394.231 307.455 394.231 301.432C394.231 295.5 396.776 291.341 401.572 291.341C406.276 291.341 408.913 295.318 408.913 301.432C408.913 307.591 406.231 311.227 401.572 311.227ZM455.171 294.045C454.308 287.614 449.126 283.636 440.308 283.636C431.376 283.636 425.49 287.773 425.512 294.5C425.49 299.727 428.785 303.114 435.603 304.477L441.649 305.682C444.694 306.295 446.081 307.409 446.126 309.159C446.081 311.227 443.831 312.705 440.444 312.705C436.99 312.705 434.694 311.227 434.103 308.386L424.581 308.886C425.49 315.568 431.171 319.682 440.421 319.682C449.467 319.682 455.944 315.068 455.967 308.182C455.944 303.136 452.649 300.114 445.876 298.727L439.558 297.455C436.308 296.75 435.103 295.636 435.126 293.955C435.103 291.864 437.467 290.5 440.467 290.5C443.831 290.5 445.831 292.341 446.308 294.591L455.171 294.045Z" fill="white"/>
<path d="M148.406 462H158.949V459.733H151.039V444.545H148.406V462ZM167.262 462.264C170.953 462.264 173.365 459.562 173.365 455.514C173.365 451.44 170.953 448.739 167.262 448.739C163.572 448.739 161.16 451.44 161.16 455.514C161.16 459.562 163.572 462.264 167.262 462.264ZM167.271 460.125C164.859 460.125 163.734 458.02 163.734 455.506C163.734 453 164.859 450.869 167.271 450.869C169.666 450.869 170.791 453 170.791 455.506C170.791 458.02 169.666 460.125 167.271 460.125ZM176.209 462H178.757V454.006C178.757 452.293 180.078 451.057 181.885 451.057C182.414 451.057 183.01 451.151 183.215 451.21V448.773C182.959 448.739 182.456 448.713 182.132 448.713C180.598 448.713 179.286 449.582 178.809 450.989H178.672V448.909H176.209V462ZM190.593 462.264C193.449 462.264 195.468 460.858 196.048 458.727L193.636 458.293C193.176 459.528 192.068 460.159 190.619 460.159C188.437 460.159 186.971 458.744 186.903 456.222H196.21V455.318C196.21 450.588 193.38 448.739 190.414 448.739C186.767 448.739 184.363 451.517 184.363 455.54C184.363 459.605 186.733 462.264 190.593 462.264ZM186.912 454.312C187.014 452.455 188.36 450.844 190.431 450.844C192.409 450.844 193.704 452.31 193.713 454.312H186.912ZM199.037 462H201.586V453.929C201.586 452.165 202.821 450.938 204.27 450.938C205.685 450.938 206.665 451.875 206.665 453.298V462H209.205V453.656C209.205 452.08 210.168 450.938 211.83 450.938C213.176 450.938 214.284 451.688 214.284 453.46V462H216.833V453.222C216.833 450.23 215.162 448.739 212.793 448.739C210.909 448.739 209.495 449.642 208.864 451.04H208.728C208.157 449.608 206.955 448.739 205.208 448.739C203.478 448.739 202.191 449.599 201.645 451.04H201.483V448.909H199.037V462ZM226.6 462H229.148V448.909H226.6V462ZM227.887 446.889C228.765 446.889 229.498 446.207 229.498 445.372C229.498 444.537 228.765 443.847 227.887 443.847C227 443.847 226.276 444.537 226.276 445.372C226.276 446.207 227 446.889 227.887 446.889ZM232.576 466.909H235.125V459.963H235.278C235.738 460.798 236.676 462.256 239.062 462.256C242.233 462.256 244.534 459.716 244.534 455.48C244.534 451.236 242.199 448.739 239.037 448.739C236.608 448.739 235.73 450.222 235.278 451.031H235.065V448.909H232.576V466.909ZM235.074 455.455C235.074 452.719 236.267 450.903 238.491 450.903C240.801 450.903 241.96 452.855 241.96 455.455C241.96 458.08 240.767 460.082 238.491 460.082C236.301 460.082 235.074 458.207 235.074 455.455ZM257.199 452.105C256.67 450.068 255.076 448.739 252.247 448.739C249.289 448.739 247.193 450.298 247.193 452.616C247.193 454.474 248.318 455.71 250.772 456.256L252.988 456.741C254.25 457.023 254.838 457.585 254.838 458.403C254.838 459.418 253.755 460.21 252.085 460.21C250.559 460.21 249.579 459.554 249.272 458.267L246.809 458.642C247.235 460.96 249.162 462.264 252.102 462.264C255.264 462.264 257.454 460.585 257.454 458.216C257.454 456.366 256.278 455.224 253.875 454.67L251.795 454.193C250.355 453.852 249.733 453.366 249.741 452.48C249.733 451.474 250.824 450.759 252.272 450.759C253.858 450.759 254.591 451.636 254.889 452.514L257.199 452.105ZM268.549 456.571C268.557 458.795 266.904 459.852 265.472 459.852C263.895 459.852 262.804 458.71 262.804 456.929V448.909H260.256V457.236C260.256 460.483 262.037 462.17 264.551 462.17C266.52 462.17 267.858 461.131 268.463 459.733H268.6V462H271.105V448.909H268.549V456.571ZM274.529 462H277.078V453.929C277.078 452.165 278.314 450.938 279.762 450.938C281.177 450.938 282.157 451.875 282.157 453.298V462H284.697V453.656C284.697 452.08 285.66 450.938 287.322 450.938C288.669 450.938 289.777 451.688 289.777 453.46V462H292.325V453.222C292.325 450.23 290.654 448.739 288.285 448.739C286.402 448.739 284.987 449.642 284.356 451.04H284.22C283.649 449.608 282.447 448.739 280.7 448.739C278.97 448.739 277.683 449.599 277.137 451.04H276.975V448.909H274.529V462ZM306.993 462.256C309.379 462.256 310.316 460.798 310.777 459.963H310.99V462H313.478V444.545H310.93V451.031H310.777C310.316 450.222 309.447 448.739 307.01 448.739C303.848 448.739 301.521 451.236 301.521 455.48C301.521 459.716 303.814 462.256 306.993 462.256ZM307.555 460.082C305.279 460.082 304.095 458.08 304.095 455.455C304.095 452.855 305.254 450.903 307.555 450.903C309.779 450.903 310.973 452.719 310.973 455.455C310.973 458.207 309.754 460.082 307.555 460.082ZM322.63 462.264C326.32 462.264 328.732 459.562 328.732 455.514C328.732 451.44 326.32 448.739 322.63 448.739C318.939 448.739 316.527 451.44 316.527 455.514C316.527 459.562 318.939 462.264 322.63 462.264ZM322.638 460.125C320.226 460.125 319.101 458.02 319.101 455.506C319.101 453 320.226 450.869 322.638 450.869C325.033 450.869 326.158 453 326.158 455.506C326.158 458.02 325.033 460.125 322.638 460.125ZM334.125 444.545H331.576V462H334.125V444.545ZM343.067 462.264C346.757 462.264 349.169 459.562 349.169 455.514C349.169 451.44 346.757 448.739 343.067 448.739C339.377 448.739 336.965 451.44 336.965 455.514C336.965 459.562 339.377 462.264 343.067 462.264ZM343.076 460.125C340.664 460.125 339.539 458.02 339.539 455.506C339.539 453 340.664 450.869 343.076 450.869C345.471 450.869 346.596 453 346.596 455.506C346.596 458.02 345.471 460.125 343.076 460.125ZM352.014 462H354.562V454.006C354.562 452.293 355.883 451.057 357.69 451.057C358.218 451.057 358.815 451.151 359.02 451.21V448.773C358.764 448.739 358.261 448.713 357.937 448.713C356.403 448.713 355.091 449.582 354.613 450.989H354.477V448.909H352.014V462ZM377.386 452.105C376.858 450.068 375.264 448.739 372.434 448.739C369.477 448.739 367.38 450.298 367.38 452.616C367.38 454.474 368.505 455.71 370.96 456.256L373.176 456.741C374.437 457.023 375.025 457.585 375.025 458.403C375.025 459.418 373.943 460.21 372.272 460.21C370.747 460.21 369.767 459.554 369.46 458.267L366.997 458.642C367.423 460.96 369.349 462.264 372.289 462.264C375.451 462.264 377.642 460.585 377.642 458.216C377.642 456.366 376.466 455.224 374.062 454.67L371.983 454.193C370.542 453.852 369.92 453.366 369.929 452.48C369.92 451.474 371.011 450.759 372.46 450.759C374.045 450.759 374.778 451.636 375.076 452.514L377.386 452.105ZM380.444 462H382.992V448.909H380.444V462ZM381.73 446.889C382.608 446.889 383.341 446.207 383.341 445.372C383.341 444.537 382.608 443.847 381.73 443.847C380.844 443.847 380.12 444.537 380.12 445.372C380.12 446.207 380.844 446.889 381.73 446.889ZM392.531 448.909H389.846V445.773H387.298V448.909H385.38V450.955H387.298V458.685C387.289 461.062 389.105 462.213 391.116 462.17C391.926 462.162 392.471 462.009 392.77 461.898L392.309 459.793C392.139 459.827 391.824 459.903 391.414 459.903C390.588 459.903 389.846 459.631 389.846 458.156V450.955H392.531V448.909ZM405.511 462.29C407.676 462.29 408.895 461.19 409.38 460.21H409.483V462H411.971V453.307C411.971 449.497 408.971 448.739 406.892 448.739C404.522 448.739 402.341 449.693 401.488 452.08L403.883 452.625C404.258 451.696 405.213 450.801 406.926 450.801C408.571 450.801 409.414 451.662 409.414 453.145V453.205C409.414 454.134 408.46 454.116 406.108 454.389C403.627 454.679 401.088 455.327 401.088 458.301C401.088 460.875 403.022 462.29 405.511 462.29ZM406.065 460.244C404.625 460.244 403.585 459.597 403.585 458.335C403.585 456.972 404.795 456.486 406.27 456.29C407.096 456.179 409.056 455.957 409.423 455.591V457.278C409.423 458.83 408.187 460.244 406.065 460.244ZM415.365 462H417.914V453.929C417.914 452.165 419.15 450.938 420.598 450.938C422.013 450.938 422.993 451.875 422.993 453.298V462H425.533V453.656C425.533 452.08 426.496 450.938 428.158 450.938C429.505 450.938 430.613 451.688 430.613 453.46V462H433.161V453.222C433.161 450.23 431.49 448.739 429.121 448.739C427.238 448.739 425.823 449.642 425.192 451.04H425.056C424.485 449.608 423.283 448.739 421.536 448.739C419.806 448.739 418.519 449.599 417.973 451.04H417.811V448.909H415.365V462ZM442.218 462.264C445.074 462.264 447.093 460.858 447.673 458.727L445.261 458.293C444.801 459.528 443.693 460.159 442.244 460.159C440.062 460.159 438.596 458.744 438.528 456.222H447.835V455.318C447.835 450.588 445.005 448.739 442.039 448.739C438.392 448.739 435.988 451.517 435.988 455.54C435.988 459.605 438.358 462.264 442.218 462.264ZM438.537 454.312C438.639 452.455 439.985 450.844 442.056 450.844C444.034 450.844 445.329 452.31 445.338 454.312H438.537ZM456.773 448.909H454.088V445.773H451.54V448.909H449.623V450.955H451.54V458.685C451.532 461.062 453.347 462.213 455.358 462.17C456.168 462.162 456.713 462.009 457.012 461.898L456.551 459.793C456.381 459.827 456.066 459.903 455.657 459.903C454.83 459.903 454.088 459.631 454.088 458.156V450.955H456.773V448.909ZM462.907 459.614H460.453L460.368 460.568C460.172 462.878 459.626 465.205 459.396 466.261H461.203C461.612 465.145 462.515 462.588 462.779 460.543L462.907 459.614ZM100.536 491.264C103.63 491.264 105.632 489.406 105.914 486.858H103.434C103.11 488.273 102.01 489.108 100.553 489.108C98.3967 489.108 97.0075 487.31 97.0075 484.455C97.0075 481.651 98.4222 479.886 100.553 479.886C102.172 479.886 103.161 480.909 103.434 482.136H105.914C105.641 479.494 103.485 477.739 100.51 477.739C96.82 477.739 94.4336 480.517 94.4336 484.514C94.4336 488.46 96.7347 491.264 100.536 491.264ZM114.153 491.264C117.843 491.264 120.255 488.562 120.255 484.514C120.255 480.44 117.843 477.739 114.153 477.739C110.463 477.739 108.051 480.44 108.051 484.514C108.051 488.562 110.463 491.264 114.153 491.264ZM114.162 489.125C111.75 489.125 110.625 487.02 110.625 484.506C110.625 482 111.75 479.869 114.162 479.869C116.556 479.869 117.681 482 117.681 484.506C117.681 487.02 116.556 489.125 114.162 489.125ZM125.648 483.227C125.648 481.139 126.926 479.946 128.699 479.946C130.429 479.946 131.478 481.08 131.478 482.98V491H134.026V482.673C134.026 479.435 132.245 477.739 129.569 477.739C127.6 477.739 126.313 478.651 125.708 480.04H125.546V477.909H123.1V491H125.648V483.227ZM147.253 481.105C146.725 479.068 145.131 477.739 142.301 477.739C139.344 477.739 137.248 479.298 137.248 481.616C137.248 483.474 138.373 484.71 140.827 485.256L143.043 485.741C144.304 486.023 144.892 486.585 144.892 487.403C144.892 488.418 143.81 489.21 142.14 489.21C140.614 489.21 139.634 488.554 139.327 487.267L136.864 487.642C137.29 489.96 139.216 491.264 142.157 491.264C145.319 491.264 147.509 489.585 147.509 487.216C147.509 485.366 146.333 484.224 143.929 483.67L141.85 483.193C140.409 482.852 139.787 482.366 139.796 481.48C139.787 480.474 140.878 479.759 142.327 479.759C143.912 479.759 144.645 480.636 144.944 481.514L147.253 481.105ZM155.953 491.264C158.808 491.264 160.828 489.858 161.407 487.727L158.995 487.293C158.535 488.528 157.427 489.159 155.978 489.159C153.797 489.159 152.331 487.744 152.262 485.222H161.569V484.318C161.569 479.588 158.74 477.739 155.774 477.739C152.126 477.739 149.723 480.517 149.723 484.54C149.723 488.605 152.092 491.264 155.953 491.264ZM152.271 483.312C152.373 481.455 153.72 479.844 155.791 479.844C157.768 479.844 159.064 481.31 159.072 483.312H152.271ZM169.911 491.264C173.005 491.264 175.007 489.406 175.289 486.858H172.809C172.485 488.273 171.385 489.108 169.928 489.108C167.772 489.108 166.382 487.31 166.382 484.455C166.382 481.651 167.797 479.886 169.928 479.886C171.547 479.886 172.536 480.909 172.809 482.136H175.289C175.016 479.494 172.86 477.739 169.885 477.739C166.195 477.739 163.809 480.517 163.809 484.514C163.809 488.46 166.11 491.264 169.911 491.264ZM184.125 477.909H181.44V474.773H178.892V477.909H176.974V479.955H178.892V487.685C178.883 490.062 180.699 491.213 182.71 491.17C183.52 491.162 184.065 491.009 184.363 490.898L183.903 488.793C183.733 488.827 183.417 488.903 183.008 488.903C182.181 488.903 181.44 488.631 181.44 487.156V479.955H184.125V477.909ZM192.445 491.264C195.3 491.264 197.32 489.858 197.9 487.727L195.488 487.293C195.027 488.528 193.919 489.159 192.471 489.159C190.289 489.159 188.823 487.744 188.755 485.222H198.061V484.318C198.061 479.588 195.232 477.739 192.266 477.739C188.618 477.739 186.215 480.517 186.215 484.54C186.215 488.605 188.584 491.264 192.445 491.264ZM188.763 483.312C188.865 481.455 190.212 479.844 192.283 479.844C194.26 479.844 195.556 481.31 195.564 483.312H188.763ZM207 477.909H204.315V474.773H201.767V477.909H199.849V479.955H201.767V487.685C201.758 490.062 203.574 491.213 205.585 491.17C206.395 491.162 206.94 491.009 207.238 490.898L206.778 488.793C206.608 488.827 206.292 488.903 205.883 488.903C205.056 488.903 204.315 488.631 204.315 487.156V479.955H207V477.909ZM218.111 485.571C218.12 487.795 216.466 488.852 215.034 488.852C213.458 488.852 212.367 487.71 212.367 485.929V477.909H209.819V486.236C209.819 489.483 211.6 491.17 214.114 491.17C216.083 491.17 217.421 490.131 218.026 488.733H218.162V491H220.668V477.909H218.111V485.571ZM224.092 491H226.64V483.006C226.64 481.293 227.961 480.057 229.768 480.057C230.297 480.057 230.893 480.151 231.098 480.21V477.773C230.842 477.739 230.339 477.713 230.015 477.713C228.481 477.713 227.169 478.582 226.691 479.989H226.555V477.909H224.092V491ZM243.464 491.29C245.629 491.29 246.848 490.19 247.333 489.21H247.436V491H249.924V482.307C249.924 478.497 246.924 477.739 244.845 477.739C242.475 477.739 240.294 478.693 239.441 481.08L241.836 481.625C242.211 480.696 243.166 479.801 244.879 479.801C246.524 479.801 247.368 480.662 247.368 482.145V482.205C247.368 483.134 246.413 483.116 244.061 483.389C241.581 483.679 239.041 484.327 239.041 487.301C239.041 489.875 240.975 491.29 243.464 491.29ZM244.018 489.244C242.578 489.244 241.538 488.597 241.538 487.335C241.538 485.972 242.748 485.486 244.223 485.29C245.049 485.179 247.01 484.957 247.376 484.591V486.278C247.376 487.83 246.14 489.244 244.018 489.244ZM258.219 491.256C260.605 491.256 261.543 489.798 262.003 488.963H262.216V491H264.705V473.545H262.157V480.031H262.003C261.543 479.222 260.674 477.739 258.236 477.739C255.074 477.739 252.748 480.236 252.748 484.48C252.748 488.716 255.04 491.256 258.219 491.256ZM258.782 489.082C256.506 489.082 255.321 487.08 255.321 484.455C255.321 481.855 256.48 479.903 258.782 479.903C261.006 479.903 262.199 481.719 262.199 484.455C262.199 487.207 260.98 489.082 258.782 489.082ZM268.342 491H270.89V477.909H268.342V491ZM269.629 475.889C270.507 475.889 271.24 475.207 271.24 474.372C271.24 473.537 270.507 472.847 269.629 472.847C268.743 472.847 268.018 473.537 268.018 474.372C268.018 475.207 268.743 475.889 269.629 475.889ZM274.319 495.909H276.867V488.963H277.02C277.48 489.798 278.418 491.256 280.804 491.256C283.975 491.256 286.276 488.716 286.276 484.48C286.276 480.236 283.941 477.739 280.779 477.739C278.35 477.739 277.472 479.222 277.02 480.031H276.807V477.909H274.319V495.909ZM276.816 484.455C276.816 481.719 278.009 479.903 280.233 479.903C282.543 479.903 283.702 481.855 283.702 484.455C283.702 487.08 282.509 489.082 280.233 489.082C278.043 489.082 276.816 487.207 276.816 484.455ZM289.131 491H291.679V477.909H289.131V491ZM290.418 475.889C291.296 475.889 292.029 475.207 292.029 474.372C292.029 473.537 291.296 472.847 290.418 472.847C289.532 472.847 288.807 473.537 288.807 474.372C288.807 475.207 289.532 475.889 290.418 475.889ZM304.917 481.105C304.389 479.068 302.795 477.739 299.966 477.739C297.008 477.739 294.912 479.298 294.912 481.616C294.912 483.474 296.037 484.71 298.491 485.256L300.707 485.741C301.968 486.023 302.556 486.585 302.556 487.403C302.556 488.418 301.474 489.21 299.804 489.21C298.278 489.21 297.298 488.554 296.991 487.267L294.528 487.642C294.954 489.96 296.88 491.264 299.821 491.264C302.983 491.264 305.173 489.585 305.173 487.216C305.173 485.366 303.997 484.224 301.593 483.67L299.514 483.193C298.074 482.852 297.451 482.366 297.46 481.48C297.451 480.474 298.542 479.759 299.991 479.759C301.576 479.759 302.309 480.636 302.608 481.514L304.917 481.105ZM313.489 491.264C316.583 491.264 318.586 489.406 318.867 486.858H316.387C316.063 488.273 314.963 489.108 313.506 489.108C311.35 489.108 309.961 487.31 309.961 484.455C309.961 481.651 311.375 479.886 313.506 479.886C315.125 479.886 316.114 480.909 316.387 482.136H318.867C318.594 479.494 316.438 477.739 313.463 477.739C309.773 477.739 307.387 480.517 307.387 484.514C307.387 488.46 309.688 491.264 313.489 491.264ZM321.592 491H324.14V477.909H321.592V491ZM322.879 475.889C323.757 475.889 324.49 475.207 324.49 474.372C324.49 473.537 323.757 472.847 322.879 472.847C321.993 472.847 321.268 473.537 321.268 474.372C321.268 475.207 321.993 475.889 322.879 475.889ZM330.117 483.227C330.117 481.139 331.395 479.946 333.168 479.946C334.898 479.946 335.946 481.08 335.946 482.98V491H338.495V482.673C338.495 479.435 336.713 477.739 334.037 477.739C332.069 477.739 330.782 478.651 330.176 480.04H330.015V477.909H327.569V491H330.117V483.227ZM347.401 496.182C350.733 496.182 353.307 494.656 353.307 491.29V477.909H350.81V480.031H350.623C350.171 479.222 349.267 477.739 346.83 477.739C343.668 477.739 341.341 480.236 341.341 484.403C341.341 488.58 343.719 490.804 346.813 490.804C349.216 490.804 350.145 489.449 350.605 488.614H350.767V491.188C350.767 493.241 349.361 494.128 347.426 494.128C345.304 494.128 344.478 493.062 344.026 492.312L341.836 493.216C342.526 494.818 344.273 496.182 347.401 496.182ZM347.375 488.69C345.1 488.69 343.915 486.943 343.915 484.369C343.915 481.855 345.074 479.903 347.375 479.903C349.6 479.903 350.793 481.719 350.793 484.369C350.793 487.071 349.574 488.69 347.375 488.69ZM368.718 491.264C371.574 491.264 373.593 489.858 374.173 487.727L371.761 487.293C371.301 488.528 370.193 489.159 368.744 489.159C366.562 489.159 365.096 487.744 365.028 485.222H374.335V484.318C374.335 479.588 371.505 477.739 368.539 477.739C364.892 477.739 362.488 480.517 362.488 484.54C362.488 488.605 364.858 491.264 368.718 491.264ZM365.037 483.312C365.139 481.455 366.485 479.844 368.556 479.844C370.534 479.844 371.829 481.31 371.838 483.312H365.037ZM379.711 473.545H377.162V491H379.711V473.545ZM383.139 491H385.687V477.909H383.139V491ZM384.426 475.889C385.304 475.889 386.037 475.207 386.037 474.372C386.037 473.537 385.304 472.847 384.426 472.847C383.539 472.847 382.815 473.537 382.815 474.372C382.815 475.207 383.539 475.889 384.426 475.889ZM395.226 477.909H392.542V474.773H389.993V477.909H388.076V479.955H389.993V487.685C389.985 490.062 391.8 491.213 393.811 491.17C394.621 491.162 395.167 491.009 395.465 490.898L395.005 488.793C394.834 488.827 394.519 488.903 394.11 488.903C393.283 488.903 392.542 488.631 392.542 487.156V479.955H395.226V477.909ZM399.724 491.162C400.653 491.162 401.429 490.403 401.429 489.457C401.429 488.528 400.653 487.761 399.724 487.761C398.787 487.761 398.02 488.528 398.02 489.457C398.02 490.403 398.787 491.162 399.724 491.162ZM425.205 473.545H422.597V486.364H422.435L413.554 473.545H411.117V491H413.75V478.199H413.912L422.784 491H425.205V473.545ZM437.135 485.571C437.143 487.795 435.49 488.852 434.058 488.852C432.481 488.852 431.39 487.71 431.39 485.929V477.909H428.842V486.236C428.842 489.483 430.623 491.17 433.137 491.17C435.106 491.17 436.444 490.131 437.049 488.733H437.186V491H439.691V477.909H437.135V485.571ZM445.664 483.227C445.664 481.139 446.942 479.946 448.715 479.946C450.445 479.946 451.493 481.08 451.493 482.98V491H454.042V482.673C454.042 479.435 452.26 477.739 449.584 477.739C447.615 477.739 446.328 478.651 445.723 480.04H445.561V477.909H443.115V491H445.664V483.227ZM462.973 491.264C466.067 491.264 468.07 489.406 468.351 486.858H465.871C465.547 488.273 464.448 489.108 462.99 489.108C460.834 489.108 459.445 487.31 459.445 484.455C459.445 481.651 460.86 479.886 462.99 479.886C464.61 479.886 465.598 480.909 465.871 482.136H468.351C468.078 479.494 465.922 477.739 462.948 477.739C459.257 477.739 456.871 480.517 456.871 484.514C456.871 488.46 459.172 491.264 462.973 491.264ZM487.238 481.105C486.709 479.068 485.115 477.739 482.286 477.739C479.328 477.739 477.232 479.298 477.232 481.616C477.232 483.474 478.357 484.71 480.811 485.256L483.027 485.741C484.289 486.023 484.877 486.585 484.877 487.403C484.877 488.418 483.794 489.21 482.124 489.21C480.598 489.21 479.618 488.554 479.311 487.267L476.848 487.642C477.275 489.96 479.201 491.264 482.141 491.264C485.303 491.264 487.493 489.585 487.493 487.216C487.493 485.366 486.317 484.224 483.914 483.67L481.834 483.193C480.394 482.852 479.772 482.366 479.78 481.48C479.772 480.474 480.863 479.759 482.311 479.759C483.897 479.759 484.63 480.636 484.928 481.514L487.238 481.105ZM495.937 491.264C498.792 491.264 500.812 489.858 501.392 487.727L498.98 487.293C498.52 488.528 497.412 489.159 495.963 489.159C493.781 489.159 492.315 487.744 492.247 485.222H501.554V484.318C501.554 479.588 498.724 477.739 495.758 477.739C492.11 477.739 489.707 480.517 489.707 484.54C489.707 488.605 492.076 491.264 495.937 491.264ZM492.255 483.312C492.358 481.455 493.704 479.844 495.775 479.844C497.752 479.844 499.048 481.31 499.056 483.312H492.255ZM509.282 491.256C511.668 491.256 512.605 489.798 513.066 488.963H513.279V491H515.767V473.545H513.219V480.031H513.066C512.605 479.222 511.736 477.739 509.299 477.739C506.137 477.739 503.81 480.236 503.81 484.48C503.81 488.716 506.103 491.256 509.282 491.256ZM509.844 489.082C507.569 489.082 506.384 487.08 506.384 484.455C506.384 481.855 507.543 479.903 509.844 479.903C512.069 479.903 513.262 481.719 513.262 484.455C513.262 487.207 512.043 489.082 509.844 489.082ZM115.138 506.909H112.403L109.096 516.983H108.96L105.644 506.909H102.908L107.664 520H110.391L115.138 506.909ZM125.826 514.571C125.835 516.795 124.181 517.852 122.749 517.852C121.173 517.852 120.082 516.71 120.082 514.929V506.909H117.533V515.236C117.533 518.483 119.315 520.17 121.829 520.17C123.798 520.17 125.136 519.131 125.741 517.733H125.877V520H128.383V506.909H125.826V514.571ZM134.355 502.545H131.807V520H134.355V502.545ZM137.783 524.909H140.332V517.963H140.485C140.945 518.798 141.883 520.256 144.269 520.256C147.44 520.256 149.741 517.716 149.741 513.48C149.741 509.236 147.406 506.739 144.244 506.739C141.815 506.739 140.937 508.222 140.485 509.031H140.272V506.909H137.783V524.909ZM140.281 513.455C140.281 510.719 141.474 508.903 143.698 508.903C146.008 508.903 147.167 510.855 147.167 513.455C147.167 516.08 145.974 518.082 143.698 518.082C141.508 518.082 140.281 516.207 140.281 513.455ZM160.888 514.571C160.897 516.795 159.244 517.852 157.812 517.852C156.235 517.852 155.144 516.71 155.144 514.929V506.909H152.596V515.236C152.596 518.483 154.377 520.17 156.891 520.17C158.86 520.17 160.198 519.131 160.803 517.733H160.94V520H163.445V506.909H160.888V514.571ZM172.98 506.909H170.295V503.773H167.747V506.909H165.83V508.955H167.747V516.685C167.739 519.062 169.554 520.213 171.565 520.17C172.375 520.162 172.92 520.009 173.219 519.898L172.759 517.793C172.588 517.827 172.273 517.903 171.864 517.903C171.037 517.903 170.295 517.631 170.295 516.156V508.955H172.98V506.909ZM179.609 520.29C181.773 520.29 182.992 519.19 183.478 518.21H183.58V520H186.069V511.307C186.069 507.497 183.069 506.739 180.989 506.739C178.62 506.739 176.438 507.693 175.586 510.08L177.981 510.625C178.356 509.696 179.31 508.801 181.023 508.801C182.668 508.801 183.512 509.662 183.512 511.145V511.205C183.512 512.134 182.558 512.116 180.205 512.389C177.725 512.679 175.185 513.327 175.185 516.301C175.185 518.875 177.12 520.29 179.609 520.29ZM180.163 518.244C178.722 518.244 177.683 517.597 177.683 516.335C177.683 514.972 178.893 514.486 180.367 514.29C181.194 514.179 183.154 513.957 183.521 513.591V515.278C183.521 516.83 182.285 518.244 180.163 518.244ZM195.574 506.909H192.889V503.773H190.341V506.909H188.423V508.955H190.341V516.685C190.332 519.062 192.148 520.213 194.159 520.17C194.969 520.162 195.514 520.009 195.812 519.898L195.352 517.793C195.182 517.827 194.866 517.903 194.457 517.903C193.631 517.903 192.889 517.631 192.889 516.156V508.955H195.574V506.909ZM203.894 520.264C206.749 520.264 208.769 518.858 209.349 516.727L206.937 516.293C206.477 517.528 205.369 518.159 203.92 518.159C201.738 518.159 200.272 516.744 200.204 514.222H209.511V513.318C209.511 508.588 206.681 506.739 203.715 506.739C200.067 506.739 197.664 509.517 197.664 513.54C197.664 517.605 200.033 520.264 203.894 520.264ZM200.212 512.312C200.315 510.455 201.661 508.844 203.732 508.844C205.71 508.844 207.005 510.31 207.013 512.312H200.212ZM221.238 512.227C221.238 510.139 222.516 508.946 224.289 508.946C226.019 508.946 227.067 510.08 227.067 511.98V520H229.616V511.673C229.616 508.435 227.835 506.739 225.158 506.739C223.19 506.739 221.903 507.651 221.298 509.04H221.136V506.909H218.69V520H221.238V512.227ZM233.033 520H235.582V506.909H233.033V520ZM234.32 504.889C235.198 504.889 235.931 504.207 235.931 503.372C235.931 502.537 235.198 501.847 234.32 501.847C233.434 501.847 232.71 502.537 232.71 503.372C232.71 504.207 233.434 504.889 234.32 504.889ZM248.82 510.105C248.291 508.068 246.697 506.739 243.868 506.739C240.911 506.739 238.814 508.298 238.814 510.616C238.814 512.474 239.939 513.71 242.393 514.256L244.609 514.741C245.871 515.023 246.459 515.585 246.459 516.403C246.459 517.418 245.376 518.21 243.706 518.21C242.18 518.21 241.2 517.554 240.893 516.267L238.43 516.642C238.857 518.96 240.783 520.264 243.723 520.264C246.885 520.264 249.075 518.585 249.075 516.216C249.075 514.366 247.899 513.224 245.496 512.67L243.416 512.193C241.976 511.852 241.354 511.366 241.362 510.48C241.354 509.474 242.445 508.759 243.893 508.759C245.479 508.759 246.212 509.636 246.51 510.514L248.82 510.105ZM254.425 502.545H251.877V520H254.425V502.545ZM259.533 520.162C260.462 520.162 261.237 519.403 261.237 518.457C261.237 517.528 260.462 516.761 259.533 516.761C258.595 516.761 257.828 517.528 257.828 518.457C257.828 519.403 258.595 520.162 259.533 520.162ZM285.013 502.545H282.406V515.364H282.244L273.363 502.545H270.925V520H273.559V507.199H273.721L282.593 520H285.013V502.545ZM296.943 514.571C296.952 516.795 295.298 517.852 293.866 517.852C292.29 517.852 291.199 516.71 291.199 514.929V506.909H288.651V515.236C288.651 518.483 290.432 520.17 292.946 520.17C294.915 520.17 296.253 519.131 296.858 517.733H296.994V520H299.5V506.909H296.943V514.571ZM305.472 502.545H302.924V520H305.472V502.545ZM311.449 502.545H308.901V520H311.449V502.545ZM318.687 520.29C320.852 520.29 322.07 519.19 322.556 518.21H322.658V520H325.147V511.307C325.147 507.497 322.147 506.739 320.067 506.739C317.698 506.739 315.516 507.693 314.664 510.08L317.059 510.625C317.434 509.696 318.388 508.801 320.102 508.801C321.746 508.801 322.59 509.662 322.59 511.145V511.205C322.59 512.134 321.636 512.116 319.283 512.389C316.803 512.679 314.263 513.327 314.263 516.301C314.263 518.875 316.198 520.29 318.687 520.29ZM319.241 518.244C317.8 518.244 316.761 517.597 316.761 516.335C316.761 514.972 317.971 514.486 319.445 514.29C320.272 514.179 322.232 513.957 322.599 513.591V515.278C322.599 516.83 321.363 518.244 319.241 518.244ZM328.541 520H331.089V511.929C331.089 510.165 332.325 508.938 333.774 508.938C335.189 508.938 336.169 509.875 336.169 511.298V520H338.709V511.656C338.709 510.08 339.672 508.938 341.334 508.938C342.68 508.938 343.788 509.688 343.788 511.46V520H346.337V511.222C346.337 508.23 344.666 506.739 342.297 506.739C340.413 506.739 338.999 507.642 338.368 509.04H338.232C337.661 507.608 336.459 506.739 334.712 506.739C332.982 506.739 331.695 507.599 331.149 509.04H330.987V506.909H328.541V520ZM367.303 506.909H364.567L361.26 516.983H361.124L357.808 506.909H355.072L359.828 520H362.555L367.303 506.909ZM374.871 520.264C377.726 520.264 379.746 518.858 380.325 516.727L377.913 516.293C377.453 517.528 376.345 518.159 374.896 518.159C372.714 518.159 371.249 516.744 371.18 514.222H380.487V513.318C380.487 508.588 377.658 506.739 374.692 506.739C371.044 506.739 368.641 509.517 368.641 513.54C368.641 517.605 371.01 520.264 374.871 520.264ZM371.189 512.312C371.291 510.455 372.638 508.844 374.709 508.844C376.686 508.844 377.982 510.31 377.99 512.312H371.189ZM385.863 502.545H383.315V520H385.863V502.545ZM398.191 512.227C398.191 510.139 399.469 508.946 401.242 508.946C402.972 508.946 404.021 510.08 404.021 511.98V520H406.569V511.673C406.569 508.435 404.788 506.739 402.112 506.739C400.143 506.739 398.856 507.651 398.251 509.04H398.089V506.909H395.643V520H398.191V512.227ZM418.279 514.571C418.288 516.795 416.634 517.852 415.202 517.852C413.626 517.852 412.535 516.71 412.535 514.929V506.909H409.987V515.236C409.987 518.483 411.768 520.17 414.282 520.17C416.251 520.17 417.589 519.131 418.194 517.733H418.33V520H420.836V506.909H418.279V514.571ZM426.808 512.227C426.808 510.139 428.087 508.946 429.859 508.946C431.589 508.946 432.638 510.08 432.638 511.98V520H435.186V511.673C435.186 508.435 433.405 506.739 430.729 506.739C428.76 506.739 427.473 507.651 426.868 509.04H426.706V506.909H424.26V520H426.808V512.227ZM444.118 520.264C447.212 520.264 449.214 518.406 449.496 515.858H447.016C446.692 517.273 445.592 518.108 444.135 518.108C441.979 518.108 440.589 516.31 440.589 513.455C440.589 510.651 442.004 508.886 444.135 508.886C445.754 508.886 446.743 509.909 447.016 511.136H449.496C449.223 508.494 447.067 506.739 444.092 506.739C440.402 506.739 438.016 509.517 438.016 513.514C438.016 517.46 440.317 520.264 444.118 520.264ZM464.214 520.264C467.07 520.264 469.089 518.858 469.669 516.727L467.257 516.293C466.797 517.528 465.689 518.159 464.24 518.159C462.058 518.159 460.592 516.744 460.524 514.222H469.831V513.318C469.831 508.588 467.001 506.739 464.036 506.739C460.388 506.739 457.984 509.517 457.984 513.54C457.984 517.605 460.354 520.264 464.214 520.264ZM460.533 512.312C460.635 510.455 461.982 508.844 464.053 508.844C466.03 508.844 467.325 510.31 467.334 512.312H460.533ZM478.147 525.182C481.479 525.182 484.053 523.656 484.053 520.29V506.909H481.556V509.031H481.369C480.917 508.222 480.013 506.739 477.576 506.739C474.414 506.739 472.087 509.236 472.087 513.403C472.087 517.58 474.465 519.804 477.559 519.804C479.962 519.804 480.891 518.449 481.352 517.614H481.513V520.188C481.513 522.241 480.107 523.128 478.173 523.128C476.05 523.128 475.224 522.062 474.772 521.312L472.582 522.216C473.272 523.818 475.019 525.182 478.147 525.182ZM478.121 517.69C475.846 517.69 474.661 515.943 474.661 513.369C474.661 510.855 475.82 508.903 478.121 508.903C480.346 508.903 481.539 510.719 481.539 513.369C481.539 516.071 480.32 517.69 478.121 517.69ZM493.113 520.264C495.968 520.264 497.988 518.858 498.567 516.727L496.156 516.293C495.695 517.528 494.587 518.159 493.138 518.159C490.957 518.159 489.491 516.744 489.423 514.222H498.729V513.318C498.729 508.588 495.9 506.739 492.934 506.739C489.286 506.739 486.883 509.517 486.883 513.54C486.883 517.605 489.252 520.264 493.113 520.264ZM489.431 512.312C489.533 510.455 490.88 508.844 492.951 508.844C494.928 508.844 496.224 510.31 496.232 512.312H489.431ZM507.668 506.909H504.983V503.773H502.435V506.909H500.517V508.955H502.435V516.685C502.426 519.062 504.241 520.213 506.253 520.17C507.062 520.162 507.608 520.009 507.906 519.898L507.446 517.793C507.276 517.827 506.96 517.903 506.551 517.903C505.724 517.903 504.983 517.631 504.983 516.156V508.955H507.668V506.909ZM201.793 549.256C204.18 549.256 205.117 547.798 205.577 546.963H205.79V549H208.279V531.545H205.731V538.031H205.577C205.117 537.222 204.248 535.739 201.81 535.739C198.648 535.739 196.322 538.236 196.322 542.48C196.322 546.716 198.614 549.256 201.793 549.256ZM202.356 547.082C200.08 547.082 198.896 545.08 198.896 542.455C198.896 539.855 200.055 537.903 202.356 537.903C204.58 537.903 205.773 539.719 205.773 542.455C205.773 545.207 204.555 547.082 202.356 547.082ZM220.209 543.571C220.217 545.795 218.564 546.852 217.132 546.852C215.555 546.852 214.464 545.71 214.464 543.929V535.909H211.916V544.236C211.916 547.483 213.697 549.17 216.212 549.17C218.18 549.17 219.518 548.131 220.124 546.733H220.26V549H222.766V535.909H220.209V543.571ZM226.19 549H228.738V535.909H226.19V549ZM227.477 533.889C228.354 533.889 229.087 533.207 229.087 532.372C229.087 531.537 228.354 530.847 227.477 530.847C226.59 530.847 225.866 531.537 225.866 532.372C225.866 533.207 226.59 533.889 227.477 533.889ZM244.032 549.264C247.722 549.264 250.134 546.562 250.134 542.514C250.134 538.44 247.722 535.739 244.032 535.739C240.342 535.739 237.93 538.44 237.93 542.514C237.93 546.562 240.342 549.264 244.032 549.264ZM244.04 547.125C241.629 547.125 240.504 545.02 240.504 542.506C240.504 540 241.629 537.869 244.04 537.869C246.435 537.869 247.56 540 247.56 542.506C247.56 545.02 246.435 547.125 244.04 547.125ZM252.979 549H255.527V541.006C255.527 539.293 256.848 538.057 258.655 538.057C259.183 538.057 259.78 538.151 259.984 538.21V535.773C259.729 535.739 259.226 535.713 258.902 535.713C257.368 535.713 256.055 536.582 255.578 537.989H255.442V535.909H252.979V549ZM264.738 541.227C264.738 539.139 266.016 537.946 267.789 537.946C269.519 537.946 270.567 539.08 270.567 540.98V549H273.116V540.673C273.116 537.435 271.335 535.739 268.658 535.739C266.69 535.739 265.403 536.651 264.798 538.04H264.636V535.909H262.19V549H264.738V541.227ZM280.343 549.29C282.508 549.29 283.727 548.19 284.212 547.21H284.315V549H286.803V540.307C286.803 536.497 283.803 535.739 281.724 535.739C279.354 535.739 277.173 536.693 276.32 539.08L278.715 539.625C279.09 538.696 280.045 537.801 281.758 537.801C283.403 537.801 284.246 538.662 284.246 540.145V540.205C284.246 541.134 283.292 541.116 280.94 541.389C278.46 541.679 275.92 542.327 275.92 545.301C275.92 547.875 277.854 549.29 280.343 549.29ZM280.897 547.244C279.457 547.244 278.417 546.597 278.417 545.335C278.417 543.972 279.627 543.486 281.102 543.29C281.928 543.179 283.888 542.957 284.255 542.591V544.278C284.255 545.83 283.019 547.244 280.897 547.244ZM290.197 549H292.746V541.006C292.746 539.293 294.067 538.057 295.874 538.057C296.402 538.057 296.999 538.151 297.203 538.21V535.773C296.947 535.739 296.445 535.713 296.121 535.713C294.587 535.713 293.274 536.582 292.797 537.989H292.661V535.909H290.197V549ZM304.582 549.264C307.437 549.264 309.457 547.858 310.036 545.727L307.624 545.293C307.164 546.528 306.056 547.159 304.607 547.159C302.425 547.159 300.96 545.744 300.891 543.222H310.198V542.318C310.198 537.588 307.369 535.739 304.403 535.739C300.755 535.739 298.352 538.517 298.352 542.54C298.352 546.605 300.721 549.264 304.582 549.264ZM300.9 541.312C301.002 539.455 302.349 537.844 304.42 537.844C306.397 537.844 307.692 539.31 307.701 541.312H300.9ZM324.278 549.256C326.664 549.256 327.602 547.798 328.062 546.963H328.275V549H330.763V531.545H328.215V538.031H328.062C327.602 537.222 326.732 535.739 324.295 535.739C321.133 535.739 318.806 538.236 318.806 542.48C318.806 546.716 321.099 549.256 324.278 549.256ZM324.84 547.082C322.565 547.082 321.38 545.08 321.38 542.455C321.38 539.855 322.539 537.903 324.84 537.903C327.065 537.903 328.258 539.719 328.258 542.455C328.258 545.207 327.039 547.082 324.84 547.082ZM338.21 549.29C340.375 549.29 341.594 548.19 342.08 547.21H342.182V549H344.67V540.307C344.67 536.497 341.67 535.739 339.591 535.739C337.222 535.739 335.04 536.693 334.188 539.08L336.582 539.625C336.957 538.696 337.912 537.801 339.625 537.801C341.27 537.801 342.114 538.662 342.114 540.145V540.205C342.114 541.134 341.159 541.116 338.807 541.389C336.327 541.679 333.787 542.327 333.787 545.301C333.787 547.875 335.722 549.29 338.21 549.29ZM338.764 547.244C337.324 547.244 336.284 546.597 336.284 545.335C336.284 543.972 337.494 543.486 338.969 543.29C339.795 543.179 341.756 542.957 342.122 542.591V544.278C342.122 545.83 340.886 547.244 338.764 547.244ZM348.065 553.909H350.613V546.963H350.766C351.227 547.798 352.164 549.256 354.55 549.256C357.721 549.256 360.022 546.716 360.022 542.48C360.022 538.236 357.687 535.739 354.525 535.739C352.096 535.739 351.218 537.222 350.766 538.031H350.553V535.909H348.065V553.909ZM350.562 542.455C350.562 539.719 351.755 537.903 353.979 537.903C356.289 537.903 357.448 539.855 357.448 542.455C357.448 545.08 356.255 547.082 353.979 547.082C351.789 547.082 350.562 545.207 350.562 542.455ZM362.877 549H365.425V535.909H362.877V549ZM364.164 533.889C365.042 533.889 365.775 533.207 365.775 532.372C365.775 531.537 365.042 530.847 364.164 530.847C363.278 530.847 362.553 531.537 362.553 532.372C362.553 533.207 363.278 533.889 364.164 533.889ZM369.058 549H371.547V546.963H371.76C372.22 547.798 373.158 549.256 375.544 549.256C378.714 549.256 381.016 546.716 381.016 542.48C381.016 538.236 378.68 535.739 375.518 535.739C373.089 535.739 372.212 537.222 371.76 538.031H371.607V531.545H369.058V549ZM371.555 542.455C371.555 539.719 372.749 537.903 374.973 537.903C377.283 537.903 378.442 539.855 378.442 542.455C378.442 545.08 377.249 547.082 374.973 547.082C372.783 547.082 371.555 545.207 371.555 542.455ZM392.17 543.571C392.178 545.795 390.525 546.852 389.093 546.852C387.516 546.852 386.425 545.71 386.425 543.929V535.909H383.877V544.236C383.877 547.483 385.658 549.17 388.173 549.17C390.141 549.17 391.479 548.131 392.085 546.733H392.221V549H394.727V535.909H392.17V543.571ZM407.96 539.105C407.432 537.068 405.838 535.739 403.009 535.739C400.051 535.739 397.955 537.298 397.955 539.616C397.955 541.474 399.08 542.71 401.534 543.256L403.75 543.741C405.011 544.023 405.599 544.585 405.599 545.403C405.599 546.418 404.517 547.21 402.847 547.21C401.321 547.21 400.341 546.554 400.034 545.267L397.571 545.642C397.997 547.96 399.923 549.264 402.864 549.264C406.026 549.264 408.216 547.585 408.216 545.216C408.216 543.366 407.04 542.224 404.636 541.67L402.557 541.193C401.116 540.852 400.494 540.366 400.503 539.48C400.494 538.474 401.585 537.759 403.034 537.759C404.619 537.759 405.352 538.636 405.651 539.514L407.96 539.105ZM412.697 549.162C413.626 549.162 414.401 548.403 414.401 547.457C414.401 546.528 413.626 545.761 412.697 545.761C411.759 545.761 410.992 546.528 410.992 547.457C410.992 548.403 411.759 549.162 412.697 549.162Z" fill="#F6F5F5"/>
<path d="M319.184 675.52H311.445V677.727H319.184V675.52ZM330.293 675.52H322.555V677.727H330.293V675.52ZM341.403 675.52H333.664V677.727H341.403V675.52ZM352.512 675.52H344.773V677.727H352.512V675.52ZM355.908 684H358.457V670.909H355.908V684ZM357.195 668.889C358.073 668.889 358.806 668.207 358.806 667.372C358.806 666.537 358.073 665.847 357.195 665.847C356.309 665.847 355.585 666.537 355.585 667.372C355.585 668.207 356.309 668.889 357.195 668.889ZM361.885 688.909H364.433V681.963H364.587C365.047 682.798 365.984 684.256 368.371 684.256C371.541 684.256 373.842 681.716 373.842 677.48C373.842 673.236 371.507 670.739 368.345 670.739C365.916 670.739 365.038 672.222 364.587 673.031H364.374V670.909H361.885V688.909ZM364.382 677.455C364.382 674.719 365.575 672.903 367.8 672.903C370.109 672.903 371.268 674.855 371.268 677.455C371.268 680.08 370.075 682.082 367.8 682.082C365.609 682.082 364.382 680.207 364.382 677.455ZM386.507 674.105C385.979 672.068 384.385 670.739 381.555 670.739C378.598 670.739 376.501 672.298 376.501 674.616C376.501 676.474 377.626 677.71 380.081 678.256L382.297 678.741C383.558 679.023 384.146 679.585 384.146 680.403C384.146 681.418 383.064 682.21 381.393 682.21C379.868 682.21 378.888 681.554 378.581 680.267L376.118 680.642C376.544 682.96 378.47 684.264 381.411 684.264C384.572 684.264 386.763 682.585 386.763 680.216C386.763 678.366 385.587 677.224 383.183 676.67L381.104 676.193C379.663 675.852 379.041 675.366 379.05 674.48C379.041 673.474 380.132 672.759 381.581 672.759C383.166 672.759 383.899 673.636 384.197 674.514L386.507 674.105ZM397.857 678.571C397.866 680.795 396.212 681.852 394.781 681.852C393.204 681.852 392.113 680.71 392.113 678.929V670.909H389.565V679.236C389.565 682.483 391.346 684.17 393.86 684.17C395.829 684.17 397.167 683.131 397.772 681.733H397.908V684H400.414V670.909H397.857V678.571ZM403.838 684H406.386V675.929C406.386 674.165 407.622 672.938 409.071 672.938C410.486 672.938 411.466 673.875 411.466 675.298V684H414.006V675.656C414.006 674.08 414.969 672.938 416.631 672.938C417.977 672.938 419.085 673.688 419.085 675.46V684H421.634V675.222C421.634 672.23 419.963 670.739 417.594 670.739C415.71 670.739 414.295 671.642 413.665 673.04H413.528C412.957 671.608 411.756 670.739 410.009 670.739C408.278 670.739 406.991 671.599 406.446 673.04H406.284V670.909H403.838V684ZM436.301 684.256C438.688 684.256 439.625 682.798 440.085 681.963H440.298V684H442.787V666.545H440.239V673.031H440.085C439.625 672.222 438.756 670.739 436.318 670.739C433.156 670.739 430.83 673.236 430.83 677.48C430.83 681.716 433.122 684.256 436.301 684.256ZM436.864 682.082C434.588 682.082 433.403 680.08 433.403 677.455C433.403 674.855 434.562 672.903 436.864 672.903C439.088 672.903 440.281 674.719 440.281 677.455C440.281 680.207 439.062 682.082 436.864 682.082ZM451.938 684.264C455.629 684.264 458.04 681.562 458.04 677.514C458.04 673.44 455.629 670.739 451.938 670.739C448.248 670.739 445.836 673.44 445.836 677.514C445.836 681.562 448.248 684.264 451.938 684.264ZM451.947 682.125C449.535 682.125 448.41 680.02 448.41 677.506C448.41 675 449.535 672.869 451.947 672.869C454.342 672.869 455.467 675 455.467 677.506C455.467 680.02 454.342 682.125 451.947 682.125ZM463.433 666.545H460.885V684H463.433V666.545ZM472.376 684.264C476.066 684.264 478.478 681.562 478.478 677.514C478.478 673.44 476.066 670.739 472.376 670.739C468.685 670.739 466.273 673.44 466.273 677.514C466.273 681.562 468.685 684.264 472.376 684.264ZM472.384 682.125C469.972 682.125 468.847 680.02 468.847 677.506C468.847 675 469.972 672.869 472.384 672.869C474.779 672.869 475.904 675 475.904 677.506C475.904 680.02 474.779 682.125 472.384 682.125ZM481.322 684H483.871V676.006C483.871 674.293 485.192 673.057 486.999 673.057C487.527 673.057 488.124 673.151 488.328 673.21V670.773C488.072 670.739 487.57 670.713 487.246 670.713C485.712 670.713 484.399 671.582 483.922 672.989H483.786V670.909H481.322V684ZM497.473 675.52H489.734V677.727H497.473V675.52ZM508.582 675.52H500.844V677.727H508.582V675.52ZM519.692 675.52H511.953V677.727H519.692V675.52ZM530.801 675.52H523.062V677.727H530.801V675.52ZM541.911 675.52H534.172V677.727H541.911V675.52Z" fill="#F6F5F5"/>
<g filter="url(#filter0_d)">
<rect x="150" y="756" width="289" height="87" rx="43.5" fill="#F6F5F5"/>
</g>
<path d="M245.517 808H256.69V804.957H249.207V790.545H245.517V808ZM265.027 808.256C268.265 808.256 270.447 806.679 270.958 804.25L267.601 804.028C267.234 805.026 266.297 805.545 265.086 805.545C263.271 805.545 262.12 804.344 262.12 802.392V802.384H271.035V801.386C271.035 796.938 268.342 794.739 264.882 794.739C261.03 794.739 258.532 797.474 258.532 801.514C258.532 805.665 260.995 808.256 265.027 808.256ZM262.12 800.134C262.197 798.642 263.331 797.449 264.941 797.449C266.518 797.449 267.609 798.574 267.618 800.134H262.12ZM280.362 794.909H277.899V791.773H274.269V794.909H272.479V797.636H274.269V804.455C274.252 807.02 275.999 808.29 278.632 808.179C279.57 808.145 280.234 807.957 280.601 807.838L280.03 805.136C279.851 805.17 279.467 805.256 279.127 805.256C278.402 805.256 277.899 804.983 277.899 803.977V797.636H280.362V794.909ZM286.351 790.545H283.623V792.403C283.623 793.844 283.112 794.892 282.541 795.795L284.143 796.741C285.345 795.736 286.351 793.946 286.351 792.386V790.545ZM298.015 798.642C297.691 796.23 295.748 794.739 292.441 794.739C289.092 794.739 286.884 796.29 286.893 798.812C286.884 800.773 288.12 802.043 290.677 802.554L292.944 803.006C294.086 803.236 294.606 803.653 294.623 804.31C294.606 805.085 293.762 805.639 292.492 805.639C291.197 805.639 290.336 805.085 290.115 804.02L286.544 804.207C286.884 806.713 289.015 808.256 292.484 808.256C295.876 808.256 298.305 806.526 298.313 803.943C298.305 802.051 297.069 800.918 294.529 800.398L292.16 799.92C290.941 799.656 290.49 799.239 290.498 798.608C290.49 797.824 291.376 797.312 292.501 797.312C293.762 797.312 294.512 798.003 294.691 798.847L298.015 798.642ZM323.335 796.188H327.085C326.608 792.736 323.565 790.307 319.619 790.307C315.008 790.307 311.455 793.631 311.455 799.29C311.455 804.812 314.778 808.239 319.696 808.239C324.102 808.239 327.247 805.452 327.247 800.858V798.659H319.943V801.438H323.693C323.642 803.602 322.168 804.974 319.713 804.974C316.943 804.974 315.196 802.903 315.196 799.256C315.196 795.625 317.011 793.571 319.679 793.571C321.58 793.571 322.866 794.551 323.335 796.188ZM335.86 808.256C339.832 808.256 342.304 805.537 342.304 801.506C342.304 797.449 339.832 794.739 335.86 794.739C331.889 794.739 329.417 797.449 329.417 801.506C329.417 805.537 331.889 808.256 335.86 808.256ZM335.878 805.443C334.045 805.443 333.108 803.764 333.108 801.48C333.108 799.196 334.045 797.509 335.878 797.509C337.676 797.509 338.613 799.196 338.613 801.48C338.613 803.764 337.676 805.443 335.878 805.443Z" fill="#1687A7"/>
<defs>
<filter id="filter0_d" x="146" y="755" width="297" height="95" filterUnits="userSpaceOnUse" color-interpolation-filters="sRGB">
<feFlood flood-opacity="0" result="BackgroundImageFix"/>
<feColorMatrix in="SourceAlpha" type="matrix" values="0 0 0 0 0 0 0 0 0 0 0 0 0 0 0 0 0 0 127 0" result="hardAlpha"/>
<feOffset dy="3"/>
<feGaussianBlur stdDeviation="2"/>
<feColorMatrix type="matrix" values="0 0 0 0 0 0 0 0 0 0 0 0 0 0 0 0 0 0 0.25 0"/>
<feBlend mode="normal" in2="BackgroundImageFix" result="effect1_dropShadow"/>
<feBlend mode="normal" in="SourceGraphic" in2="effect1_dropShadow" result="shape"/>
</filter>
</defs>
</svg>
