<svg width="583" height="401" viewBox="0 0 583 401" fill="none" xmlns="http://www.w3.org/2000/svg">
<g clip-path="url(#clip0)">
<path d="M8.14594 0C5.9855 0 3.91355 0.858365 2.38589 2.38626C0.858233 3.91416 0 5.98642 0 8.14719V392.853C0 395.014 0.858233 397.086 2.38589 398.614C3.91355 400.142 5.9855 401 8.14594 401H574.861C577.021 401 579.093 400.142 580.621 398.614C582.148 397.086 583.007 395.014 583.007 392.853V8.14719C583.007 5.98642 582.148 3.91416 580.621 2.38626C579.093 0.858365 577.021 0 574.861 0H8.14594Z" fill="url(#paint0_linear)"/>
<path d="M2.67749 19.6483V391.085C2.67749 392.813 3.36365 394.47 4.58503 395.691C5.8064 396.913 7.46294 397.599 9.19022 397.599H573.81C575.537 397.599 577.194 396.913 578.415 395.691C579.637 394.47 580.323 392.813 580.323 391.085V19.6483H2.67749Z" fill="white"/>
<path d="M573.562 1.67361H9.30399C7.57671 1.67361 5.92017 2.35988 4.6988 3.58145C3.47742 4.80301 2.79126 6.4598 2.79126 8.18735V29.4825H580.055V8.18735C580.055 6.46327 579.372 4.80952 578.155 3.58854C576.938 2.36755 575.286 1.67893 573.562 1.67361Z" fill="#EEEEEE"/>
<path d="M24.7725 21.8977C28.4951 21.8977 31.5128 18.8795 31.5128 15.1563C31.5128 11.4332 28.4951 8.41498 24.7725 8.41498C21.05 8.41498 18.0322 11.4332 18.0322 15.1563C18.0322 18.8795 21.05 21.8977 24.7725 21.8977Z" fill="#FF5252"/>
<path d="M43.3133 21.8977C47.0359 21.8977 50.0536 18.8795 50.0536 15.1563C50.0536 11.4332 47.0359 8.41498 43.3133 8.41498C39.5907 8.41498 36.573 11.4332 36.573 15.1563C36.573 18.8795 39.5907 21.8977 43.3133 21.8977Z" fill="#FFFF00"/>
<path d="M61.8475 21.8977C65.5701 21.8977 68.5878 18.8795 68.5878 15.1563C68.5878 11.4332 65.5701 8.41498 61.8475 8.41498C58.1249 8.41498 55.1072 11.4332 55.1072 15.1563C55.1072 18.8795 58.1249 21.8977 61.8475 21.8977Z" fill="#69F0AE"/>
<path d="M580.323 29.4557H2.67749V157.321H580.323V29.4557Z" fill="#3AD29F"/>
<g opacity="0.5">
<path opacity="0.5" d="M215.931 238.799C233.583 238.799 247.892 224.487 247.892 206.833C247.892 189.179 233.583 174.867 215.931 174.867C198.279 174.867 183.97 189.179 183.97 206.833C183.97 224.487 198.279 238.799 215.931 238.799Z" fill="url(#paint1_linear)"/>
</g>
<path d="M215.931 237.956C233.213 237.956 247.223 223.944 247.223 206.659C247.223 189.374 233.213 175.362 215.931 175.362C198.649 175.362 184.639 189.374 184.639 206.659C184.639 223.944 198.649 237.956 215.931 237.956Z" fill="#F5F5F5"/>
<path d="M216.018 238.049C222.131 238.058 228.111 236.268 233.213 232.901C232.062 226.602 227.671 226.207 227.671 226.207H203.481C203.481 226.207 199.338 226.548 198.046 232.346C203.303 236.058 209.582 238.051 216.018 238.049Z" fill="#2CB93B"/>
<path d="M215.69 219.84C223.349 219.84 229.559 213.63 229.559 205.969C229.559 198.309 223.349 192.098 215.69 192.098C208.03 192.098 201.821 198.309 201.821 205.969C201.821 213.63 208.03 219.84 215.69 219.84Z" fill="#333333"/>
<path opacity="0.1" d="M210.844 218.548H220.522V226.274C220.522 227.557 220.013 228.789 219.105 229.696C218.198 230.604 216.967 231.114 215.683 231.114C214.4 231.114 213.169 230.604 212.261 229.696C211.354 228.789 210.844 227.557 210.844 226.274V218.548Z" fill="black"/>
<path d="M211.734 218.194H219.545C219.79 218.194 220.025 218.291 220.198 218.464C220.372 218.637 220.469 218.872 220.469 219.117V225.939C220.469 226.575 220.344 227.204 220.101 227.791C219.857 228.379 219.501 228.912 219.052 229.362C218.602 229.811 218.069 230.168 217.482 230.411C216.894 230.654 216.265 230.779 215.63 230.779C214.994 230.779 214.365 230.654 213.778 230.411C213.191 230.168 212.657 229.811 212.208 229.362C211.758 228.912 211.402 228.379 211.159 227.791C210.915 227.204 210.79 226.575 210.79 225.939V219.117C210.79 218.872 210.888 218.637 211.061 218.464C211.234 218.291 211.469 218.194 211.714 218.194H211.734Z" fill="#BE7C5E"/>
<path opacity="0.1" d="M210.831 222.204C213.953 223.361 217.387 223.361 220.509 222.204V221.012H210.831V222.204Z" fill="black"/>
<path d="M215.69 222.853C223.349 222.853 229.559 216.643 229.559 208.982C229.559 201.321 223.349 195.111 215.69 195.111C208.03 195.111 201.821 201.321 201.821 208.982C201.821 216.643 208.03 222.853 215.69 222.853Z" fill="#BE7C5E"/>
<path d="M207.283 203.258C207.369 202.636 207.693 202.073 208.187 201.685C208.641 201.486 209.143 201.423 209.632 201.504C213.468 201.712 217.27 200.835 221.011 199.924C223.14 199.402 225.429 198.766 226.794 197.052C228.16 195.339 226.373 189.936 224.278 189.293C222.892 188.872 221.299 189.662 219.994 189.039C219.445 188.7 218.937 188.298 218.481 187.841C217.393 187.091 216.155 186.587 214.853 186.361C213.361 185.993 211.741 185.632 210.322 186.227C209.224 186.689 208.414 187.653 207.37 188.236C205.362 189.327 202.946 188.825 200.676 188.818C199.907 188.818 198.99 188.972 198.668 189.682C198.554 190.191 198.554 190.719 198.668 191.228C198.735 192.875 197.37 194.174 196.225 195.359C195.081 196.544 193.996 198.257 194.726 199.744C195 200.313 195.509 200.734 195.79 201.297C196.286 202.267 196.038 203.439 196.212 204.517C196.392 205.331 196.697 206.112 197.116 206.833C197.966 208.487 202.229 217.397 204.197 215.134C205.148 214.036 205.308 210.843 205.683 209.41C206.201 207.357 206.734 205.307 207.283 203.258Z" fill="#333333"/>
<path d="M205.817 210.89C206.53 210.89 207.109 209.808 207.109 208.473C207.109 207.138 206.53 206.056 205.817 206.056C205.104 206.056 204.525 207.138 204.525 208.473C204.525 209.808 205.104 210.89 205.817 210.89Z" fill="#BE7C5E"/>
<g opacity="0.5">
<path opacity="0.5" d="M289.947 308.375C307.599 308.375 321.908 294.063 321.908 276.409C321.908 258.754 307.599 244.443 289.947 244.443C272.295 244.443 257.986 258.754 257.986 276.409C257.986 294.063 272.295 308.375 289.947 308.375Z" fill="url(#paint2_linear)"/>
</g>
<path d="M290.007 307.505C307.289 307.505 321.299 293.493 321.299 276.208C321.299 258.923 307.289 244.911 290.007 244.911C272.725 244.911 258.715 258.923 258.715 276.208C258.715 293.493 272.725 307.505 290.007 307.505Z" fill="#F5F5F5"/>
<path d="M290.034 307.612C296.147 307.621 302.127 305.83 307.23 302.464C306.078 296.164 301.687 295.769 301.687 295.769H277.497C277.497 295.769 273.354 296.111 272.062 301.908C277.32 305.621 283.598 307.614 290.034 307.612Z" fill="#2CB93B"/>
<path d="M289.706 290.648C298.046 290.648 304.807 283.886 304.807 275.545C304.807 267.204 298.046 260.442 289.706 260.442C281.366 260.442 274.606 267.204 274.606 275.545C274.606 283.886 281.366 290.648 289.706 290.648Z" fill="#F55F44"/>
<path opacity="0.1" d="M284.827 288.131H294.512V295.896C294.512 296.532 294.387 297.161 294.144 297.749C293.9 298.336 293.544 298.87 293.095 299.319C292.645 299.768 292.112 300.125 291.525 300.368C290.938 300.611 290.308 300.737 289.673 300.737C289.037 300.737 288.408 300.611 287.821 300.368C287.234 300.125 286.7 299.768 286.251 299.319C285.801 298.87 285.445 298.336 285.202 297.749C284.959 297.161 284.833 296.532 284.833 295.896V288.131H284.827Z" fill="black"/>
<path d="M285.75 287.769H293.582C293.827 287.769 294.062 287.867 294.235 288.04C294.408 288.213 294.505 288.448 294.505 288.693V295.515C294.505 296.799 293.996 298.03 293.088 298.937C292.18 299.845 290.95 300.355 289.666 300.355C289.031 300.355 288.401 300.23 287.814 299.987C287.227 299.743 286.693 299.387 286.244 298.937C285.795 298.488 285.438 297.954 285.195 297.367C284.952 296.78 284.827 296.151 284.827 295.515V288.693C284.827 288.572 284.851 288.452 284.897 288.34C284.943 288.228 285.011 288.126 285.097 288.04C285.183 287.954 285.285 287.886 285.397 287.84C285.509 287.793 285.629 287.769 285.75 287.769Z" fill="#FDA57D"/>
<path opacity="0.1" d="M284.847 291.786C287.969 292.943 291.403 292.943 294.525 291.786V290.594H284.847V291.786Z" fill="black"/>
<path d="M289.706 292.429C297.366 292.429 303.575 286.218 303.575 278.558C303.575 270.897 297.366 264.687 289.706 264.687C282.047 264.687 275.837 270.897 275.837 278.558C275.837 286.218 282.047 292.429 289.706 292.429Z" fill="#FDA57D"/>
<path d="M289.686 265.765C292.769 265.765 295.268 263.265 295.268 260.181C295.268 257.098 292.769 254.598 289.686 254.598C286.603 254.598 284.104 257.098 284.104 260.181C284.104 263.265 286.603 265.765 289.686 265.765Z" fill="#F55F44"/>
<path d="M289.686 258.347C291.708 258.347 293.347 256.708 293.347 254.685C293.347 252.663 291.708 251.023 289.686 251.023C287.664 251.023 286.025 252.663 286.025 254.685C286.025 256.708 287.664 258.347 289.686 258.347Z" fill="#F55F44"/>
<path d="M287.263 263.241C285.954 262.654 284.921 261.585 284.379 260.256C283.836 258.927 283.827 257.44 284.351 256.104L284.238 256.339C283.937 257.008 283.772 257.729 283.751 258.462C283.729 259.195 283.853 259.925 284.113 260.611C284.374 261.296 284.767 261.923 285.27 262.457C285.773 262.99 286.377 263.419 287.046 263.719C287.714 264.02 288.436 264.185 289.169 264.207C289.902 264.228 290.632 264.105 291.317 263.844C292.002 263.583 292.629 263.19 293.163 262.687C293.696 262.183 294.125 261.58 294.425 260.911L294.526 260.67C293.877 261.95 292.761 262.931 291.409 263.409C290.057 263.888 288.572 263.828 287.263 263.241Z" fill="#F55F44"/>
<path opacity="0.1" d="M279.827 265.939C279.827 265.939 285.67 277.808 302.163 270.913L298.321 264.888L291.5 262.451L279.827 265.939Z" fill="black"/>
<path d="M279.827 265.765C279.827 265.765 285.67 277.634 302.163 270.739L298.321 264.714L291.5 262.277L279.827 265.765Z" fill="#F55F44"/>
<path d="M284.318 261.42C287.913 261.137 291.526 261.137 295.121 261.42C295.121 261.42 287.156 262.19 284.318 261.42Z" fill="#333333"/>
<path d="M290.523 250.796C290.247 250.785 289.971 250.805 289.699 250.856H289.914C290.819 250.882 291.682 251.242 292.337 251.867C292.992 252.492 293.392 253.338 293.46 254.24C293.528 255.143 293.26 256.039 292.706 256.756C292.153 257.472 291.353 257.958 290.463 258.119C291.434 258.128 292.368 257.751 293.061 257.071C293.754 256.39 294.148 255.462 294.157 254.491C294.166 253.52 293.789 252.585 293.109 251.892C292.428 251.199 291.5 250.805 290.529 250.796H290.523Z" fill="#F55F44"/>
<path d="M275.831 280.961C276.544 280.961 277.122 279.879 277.122 278.544C277.122 277.21 276.544 276.128 275.831 276.128C275.117 276.128 274.539 277.21 274.539 278.544C274.539 279.879 275.117 280.961 275.831 280.961Z" fill="#FDA57D"/>
<path d="M303.575 280.961C304.289 280.961 304.867 279.879 304.867 278.544C304.867 277.21 304.289 276.128 303.575 276.128C302.862 276.128 302.283 277.21 302.283 278.544C302.283 279.879 302.862 280.961 303.575 280.961Z" fill="#FDA57D"/>
<path d="M278.95 266.113L281.654 264.72L282.27 266.956L280.61 268.088L278.95 266.113Z" fill="#F55F44"/>
<g opacity="0.5">
<path opacity="0.5" d="M289.914 237.226C307.565 237.226 321.875 222.914 321.875 205.26C321.875 187.605 307.565 173.294 289.914 173.294C272.262 173.294 257.952 187.605 257.952 205.26C257.952 222.914 272.262 237.226 289.914 237.226Z" fill="url(#paint3_linear)"/>
</g>
<path d="M289.914 236.382C307.196 236.382 321.206 222.37 321.206 205.086C321.206 187.801 307.196 173.789 289.914 173.789C272.632 173.789 258.622 187.801 258.622 205.086C258.622 222.37 272.632 236.382 289.914 236.382Z" fill="#F5F5F5"/>
<path d="M277.705 205.367C277.705 205.367 274.157 222.846 272.223 221.876C272.223 221.876 290.898 238.009 307.384 221.876C307.384 221.876 304.479 209.558 300.289 205.367H277.705Z" fill="#333333"/>
<path d="M290.001 236.476C296.119 236.476 302.102 234.674 307.203 231.295C306.052 224.995 301.661 224.6 301.661 224.6H277.444C277.444 224.6 273.301 224.942 272.009 230.739C277.268 234.468 283.554 236.472 290.001 236.476Z" fill="#2CB93B"/>
<path d="M289.673 218.267C297.332 218.267 303.541 212.057 303.541 204.396C303.541 196.735 297.332 190.525 289.673 190.525C282.013 190.525 275.804 196.735 275.804 204.396C275.804 212.057 282.013 218.267 289.673 218.267Z" fill="#333333"/>
<path opacity="0.1" d="M284.8 216.982H294.479V224.727C294.479 226.011 293.969 227.242 293.061 228.15C292.154 229.058 290.923 229.568 289.639 229.568C288.356 229.568 287.125 229.058 286.217 228.15C285.31 227.242 284.8 226.011 284.8 224.727V216.982Z" fill="black"/>
<path d="M285.723 216.62H293.555C293.8 216.62 294.035 216.718 294.208 216.891C294.381 217.064 294.478 217.299 294.478 217.544V224.366C294.478 225.001 294.353 225.631 294.11 226.218C293.867 226.805 293.51 227.339 293.061 227.788C292.612 228.238 292.078 228.594 291.491 228.838C290.904 229.081 290.275 229.206 289.639 229.206C289.004 229.206 288.374 229.081 287.787 228.838C287.2 228.594 286.667 228.238 286.217 227.788C285.768 227.339 285.411 226.805 285.168 226.218C284.925 225.631 284.8 225.001 284.8 224.366V217.571C284.796 217.447 284.817 217.324 284.862 217.209C284.907 217.094 284.974 216.989 285.061 216.9C285.147 216.812 285.25 216.741 285.364 216.693C285.477 216.645 285.6 216.62 285.723 216.62Z" fill="#BE7C5E"/>
<path opacity="0.1" d="M284.807 220.637C287.929 221.794 291.363 221.794 294.485 220.637V219.445H284.807V220.637Z" fill="black"/>
<path d="M289.673 221.28C297.332 221.28 303.541 215.069 303.541 207.409C303.541 199.748 297.332 193.538 289.673 193.538C282.013 193.538 275.804 199.748 275.804 207.409C275.804 215.069 282.013 221.28 289.673 221.28Z" fill="#BE7C5E"/>
<path d="M276.413 202.14H302.879C302.879 202.14 300.623 191.429 290.623 192.139C280.623 192.848 276.413 202.14 276.413 202.14Z" fill="#333333"/>
<path d="M276.092 209.236C276.805 209.236 277.383 208.154 277.383 206.82C277.383 205.485 276.805 204.403 276.092 204.403C275.378 204.403 274.8 205.485 274.8 206.82C274.8 208.154 275.378 209.236 276.092 209.236Z" fill="#BE7C5E"/>
<path d="M303.187 209.236C303.9 209.236 304.479 208.154 304.479 206.82C304.479 205.485 303.9 204.403 303.187 204.403C302.473 204.403 301.895 205.485 301.895 206.82C301.895 208.154 302.473 209.236 303.187 209.236Z" fill="#BE7C5E"/>
<path opacity="0.1" d="M276.413 202.508H302.879C302.879 202.508 300.603 191.797 290.603 192.467C280.603 193.136 276.413 202.508 276.413 202.508Z" fill="black"/>
<g opacity="0.5">
<path opacity="0.5" d="M366.112 237.085C383.764 237.085 398.073 222.774 398.073 205.119C398.073 187.465 383.764 173.153 366.112 173.153C348.46 173.153 334.151 187.465 334.151 205.119C334.151 222.774 348.46 237.085 366.112 237.085Z" fill="url(#paint4_linear)"/>
</g>
<path d="M366.172 236.215C383.454 236.215 397.464 222.203 397.464 204.918C397.464 187.634 383.454 173.622 366.172 173.622C348.89 173.622 334.88 187.634 334.88 204.918C334.88 222.203 348.89 236.215 366.172 236.215Z" fill="#F5F5F5"/>
<path d="M366.199 236.336C372.312 236.345 378.292 234.554 383.394 231.188C382.243 224.888 377.852 224.493 377.852 224.493H353.662C353.662 224.493 349.519 224.834 348.227 230.632C353.485 234.345 359.763 236.337 366.199 236.336Z" fill="#2CB93B"/>
<path d="M365.871 219.358C374.211 219.358 380.971 212.597 380.971 204.256C380.971 195.915 374.211 189.153 365.871 189.153C357.531 189.153 350.771 195.915 350.771 204.256C350.771 212.597 357.531 219.358 365.871 219.358Z" fill="#72351C"/>
<path opacity="0.1" d="M360.998 216.841H370.677V224.587C370.677 225.87 370.167 227.102 369.259 228.009C368.352 228.917 367.121 229.427 365.837 229.427C364.554 229.427 363.323 228.917 362.415 228.009C361.508 227.102 360.998 225.87 360.998 224.587V216.841Z" fill="black"/>
<path d="M361.922 216.48H369.753C369.998 216.48 370.233 216.577 370.406 216.75C370.579 216.924 370.677 217.159 370.677 217.404V224.225C370.677 224.861 370.552 225.49 370.308 226.077C370.065 226.665 369.709 227.198 369.259 227.648C368.81 228.097 368.276 228.454 367.689 228.697C367.102 228.94 366.473 229.065 365.837 229.065C365.202 229.065 364.573 228.94 363.985 228.697C363.398 228.454 362.865 228.097 362.415 227.648C361.966 227.198 361.61 226.665 361.366 226.077C361.123 225.49 360.998 224.861 360.998 224.225V217.404C360.998 217.159 361.095 216.924 361.269 216.75C361.442 216.577 361.677 216.48 361.922 216.48Z" fill="#FDA57D"/>
<path opacity="0.1" d="M361.011 220.49C364.134 221.647 367.568 221.647 370.69 220.49V219.298H361.011V220.49Z" fill="black"/>
<path d="M365.871 221.139C373.531 221.139 379.74 214.929 379.74 207.268C379.74 199.607 373.531 193.397 365.871 193.397C358.211 193.397 352.002 199.607 352.002 207.268C352.002 214.929 358.211 221.139 365.871 221.139Z" fill="#FDA57D"/>
<path opacity="0.1" d="M355.991 194.649C355.991 194.649 361.835 206.518 378.328 199.623L374.485 193.598L367.678 191.128L355.991 194.649Z" fill="black"/>
<path d="M355.991 194.475C355.991 194.475 361.835 206.344 378.328 199.449L374.485 193.424L367.678 190.98L355.991 194.475Z" fill="#72351C"/>
<path d="M355.938 193.672C356.339 192.448 357.027 191.34 357.946 190.438C360.677 187.76 365.148 187.171 367.444 184.098C367.569 184.316 367.646 184.557 367.672 184.807C367.698 185.056 367.671 185.308 367.594 185.546C367.516 185.785 367.39 186.004 367.222 186.191C367.054 186.377 366.849 186.527 366.621 186.629C368.816 186.629 371.366 186.421 372.611 184.621C372.922 185.334 373.025 186.121 372.906 186.89C372.788 187.659 372.453 188.379 371.942 188.965C373.89 189.052 375.958 190.378 376.092 192.313C376.091 192.964 375.927 193.605 375.613 194.176C375.3 194.747 374.847 195.23 374.298 195.58C373.19 196.257 371.96 196.712 370.677 196.918C366.922 197.762 353.522 201.169 355.938 193.672Z" fill="#72351C"/>
<path d="M379.74 207.389H379.372L372.216 213.762C365.322 210.535 360.262 213.762 360.262 213.762L352.759 207.656L352.002 207.75C352.049 211.429 353.556 214.938 356.19 217.506C358.824 220.074 362.37 221.491 366.048 221.444C369.727 221.397 373.236 219.89 375.803 217.256C378.371 214.621 379.787 211.074 379.74 207.395V207.389ZM365.851 216.199C363.174 216.199 360.965 215.65 360.965 214.98C360.965 214.311 363.154 213.762 365.851 213.762C368.548 213.762 370.737 214.311 370.737 214.98C370.737 215.65 368.548 216.205 365.851 216.205V216.199Z" fill="#72351C"/>
<path d="M351.995 209.671C352.709 209.671 353.287 208.589 353.287 207.255C353.287 205.92 352.709 204.838 351.995 204.838C351.282 204.838 350.704 205.92 350.704 207.255C350.704 208.589 351.282 209.671 351.995 209.671Z" fill="#FDA57D"/>
<path d="M379.74 209.671C380.453 209.671 381.032 208.589 381.032 207.255C381.032 205.92 380.453 204.838 379.74 204.838C379.026 204.838 378.448 205.92 378.448 207.255C378.448 208.589 379.026 209.671 379.74 209.671Z" fill="#FDA57D"/>
<g opacity="0.5">
<path opacity="0.5" d="M215.697 306.286C233.348 306.286 247.658 291.975 247.658 274.32C247.658 256.666 233.348 242.354 215.697 242.354C198.045 242.354 183.735 256.666 183.735 274.32C183.735 291.975 198.045 306.286 215.697 306.286Z" fill="url(#paint5_linear)"/>
</g>
<path d="M215.757 305.409C233.039 305.409 247.049 291.397 247.049 274.113C247.049 256.828 233.039 242.816 215.757 242.816C198.475 242.816 184.465 256.828 184.465 274.113C184.465 291.397 198.475 305.409 215.757 305.409Z" fill="#F5F5F5"/>
<path d="M215.784 305.53C221.896 305.539 227.877 303.748 232.979 300.382C231.828 294.082 227.437 293.687 227.437 293.687H203.253C203.253 293.687 199.11 294.029 197.818 299.826C203.074 303.538 209.35 305.53 215.784 305.53Z" fill="#2CB93B"/>
<path d="M215.456 288.559C223.795 288.559 230.556 281.798 230.556 273.457C230.556 265.116 223.795 258.354 215.456 258.354C207.116 258.354 200.355 265.116 200.355 273.457C200.355 281.798 207.116 288.559 215.456 288.559Z" fill="#333333"/>
<path opacity="0.1" d="M210.583 286.035H220.262V293.781C220.262 295.065 219.752 296.296 218.844 297.203C217.937 298.111 216.706 298.621 215.422 298.621C214.139 298.621 212.908 298.111 212 297.203C211.093 296.296 210.583 295.065 210.583 293.781V286.035Z" fill="black"/>
<path d="M211.513 285.674H219.344C219.589 285.674 219.824 285.771 219.998 285.945C220.171 286.118 220.268 286.353 220.268 286.598V293.42C220.268 294.055 220.143 294.685 219.9 295.272C219.657 295.859 219.3 296.393 218.851 296.842C218.401 297.291 217.868 297.648 217.281 297.891C216.694 298.134 216.064 298.26 215.429 298.26C214.145 298.26 212.914 297.75 212.007 296.842C211.099 295.934 210.589 294.703 210.589 293.42V286.598C210.589 286.353 210.687 286.118 210.86 285.945C211.033 285.771 211.268 285.674 211.513 285.674Z" fill="#FDB797"/>
<path opacity="0.1" d="M210.603 289.691C213.725 290.848 217.159 290.848 220.282 289.691V288.499H210.603V289.691Z" fill="black"/>
<path d="M215.456 290.333C223.115 290.333 229.325 284.123 229.325 276.462C229.325 268.802 223.115 262.591 215.456 262.591C207.796 262.591 201.587 268.802 201.587 276.462C201.587 284.123 207.796 290.333 215.456 290.333Z" fill="#FDB797"/>
<path opacity="0.1" d="M205.576 263.85C205.576 263.85 211.42 275.719 227.912 268.824L224.07 262.799L217.263 260.355L205.576 263.85Z" fill="black"/>
<path d="M205.576 263.669C205.576 263.669 211.42 275.539 227.912 268.643L224.07 262.618L217.263 260.175L205.576 263.669Z" fill="#333333"/>
<path d="M205.523 262.873C205.923 261.649 206.612 260.541 207.531 259.639C210.262 256.961 214.733 256.372 217.029 253.299C217.153 253.517 217.231 253.758 217.257 254.008C217.283 254.257 217.256 254.509 217.178 254.747C217.101 254.986 216.974 255.205 216.807 255.392C216.639 255.578 216.434 255.728 216.205 255.83C218.401 255.83 220.951 255.622 222.196 253.822C222.507 254.535 222.609 255.322 222.491 256.091C222.372 256.86 222.038 257.58 221.527 258.166C223.474 258.253 225.543 259.579 225.677 261.514C225.676 262.165 225.512 262.806 225.198 263.377C224.884 263.948 224.432 264.431 223.883 264.781C222.774 265.458 221.544 265.913 220.262 266.119C216.533 266.963 203.106 270.384 205.523 262.873Z" fill="#333333"/>
<path d="M201.58 278.866C202.294 278.866 202.872 277.784 202.872 276.449C202.872 275.114 202.294 274.032 201.58 274.032C200.867 274.032 200.288 275.114 200.288 276.449C200.288 277.784 200.867 278.866 201.58 278.866Z" fill="#FDB797"/>
<path d="M229.325 278.866C230.038 278.866 230.616 277.784 230.616 276.449C230.616 275.114 230.038 274.032 229.325 274.032C228.611 274.032 228.033 275.114 228.033 276.449C228.033 277.784 228.611 278.866 229.325 278.866Z" fill="#FDB797"/>
<g opacity="0.5">
<path opacity="0.5" d="M367.303 309.828C384.955 309.828 399.265 295.516 399.265 277.862C399.265 260.207 384.955 245.895 367.303 245.895C349.652 245.895 335.342 260.207 335.342 277.862C335.342 295.516 349.652 309.828 367.303 309.828Z" fill="url(#paint6_linear)"/>
</g>
<path d="M367.303 308.984C384.585 308.984 398.595 294.972 398.595 277.687C398.595 260.403 384.585 246.391 367.303 246.391C350.021 246.391 336.011 260.403 336.011 277.687C336.011 294.972 350.021 308.984 367.303 308.984Z" fill="#F5F5F5"/>
<path d="M367.39 309.078C373.503 309.087 379.483 307.296 384.586 303.93C383.435 297.63 379.044 297.235 379.044 297.235H354.854C354.854 297.235 350.71 297.577 349.418 303.374C354.676 307.087 360.954 309.08 367.39 309.078Z" fill="#2CB93B"/>
<path opacity="0.1" d="M362.19 289.577H371.868V297.322C371.868 298.606 371.359 299.837 370.451 300.745C369.543 301.653 368.313 302.163 367.029 302.163C365.746 302.163 364.515 301.653 363.607 300.745C362.7 299.837 362.19 298.606 362.19 297.322V289.577Z" fill="black"/>
<path d="M363.113 289.202H370.945C371.19 289.202 371.425 289.299 371.598 289.473C371.771 289.646 371.868 289.881 371.868 290.126V296.968C371.868 298.251 371.359 299.482 370.451 300.39C369.543 301.298 368.313 301.808 367.029 301.808C365.746 301.808 364.515 301.298 363.607 300.39C362.7 299.482 362.19 298.251 362.19 296.968V290.146C362.19 289.901 362.287 289.666 362.46 289.493C362.633 289.319 362.868 289.222 363.113 289.222V289.202Z" fill="#FDB797"/>
<path opacity="0.1" d="M362.203 293.232C365.326 294.389 368.759 294.389 371.882 293.232V292.04H362.203V293.232Z" fill="black"/>
<path d="M367.062 293.881C374.722 293.881 380.931 287.671 380.931 280.01C380.931 272.35 374.722 266.139 367.062 266.139C359.403 266.139 353.194 272.35 353.194 280.01C353.194 287.671 359.403 293.881 367.062 293.881Z" fill="#FDB797"/>
<path d="M353.475 281.838C354.188 281.838 354.767 280.756 354.767 279.421C354.767 278.087 354.188 277.005 353.475 277.005C352.761 277.005 352.183 278.087 352.183 279.421C352.183 280.756 352.761 281.838 353.475 281.838Z" fill="#FDB797"/>
<path d="M380.57 281.838C381.283 281.838 381.862 280.756 381.862 279.421C381.862 278.087 381.283 277.005 380.57 277.005C379.856 277.005 379.278 278.087 379.278 279.421C379.278 280.756 379.856 281.838 380.57 281.838Z" fill="#FDB797"/>
<path d="M363.053 280.077H360.095C359.274 280.077 358.609 280.741 358.609 281.56C358.609 282.379 359.274 283.043 360.095 283.043H363.053C363.874 283.043 364.539 282.379 364.539 281.56C364.539 280.741 363.874 280.077 363.053 280.077Z" stroke="#333333" stroke-width="2" stroke-miterlimit="10"/>
<path d="M371.072 283.043H374.03C374.851 283.043 375.516 282.379 375.516 281.56C375.516 280.741 374.851 280.077 374.03 280.077H371.072C370.251 280.077 369.586 280.741 369.586 281.56C369.586 282.379 370.251 283.043 371.072 283.043Z" stroke="#333333" stroke-width="2" stroke-miterlimit="10"/>
<path d="M364.305 280.365C364.305 280.365 366.186 279.341 369.659 280.365" stroke="#333333" stroke-width="2" stroke-miterlimit="10"/>
<path d="M376.647 269.955L380.048 277.862C380.048 277.862 384.211 272.62 376.647 269.955Z" fill="#858585"/>
<path d="M375.516 281.564L380.597 277.025" stroke="#333333" stroke-width="2" stroke-linecap="round" stroke-linejoin="round"/>
<path d="M357.471 269.955L354.07 277.862C354.07 277.862 349.907 272.62 357.471 269.955Z" fill="#858585"/>
<path d="M358.609 281.564L353.461 277.025" stroke="#333333" stroke-width="2" stroke-linecap="round" stroke-linejoin="round"/>
<g opacity="0.5">
<path opacity="0.5" d="M215.931 378.152C233.583 378.152 247.892 363.84 247.892 346.186C247.892 328.531 233.583 314.219 215.931 314.219C198.279 314.219 183.97 328.531 183.97 346.186C183.97 363.84 198.279 378.152 215.931 378.152Z" fill="url(#paint7_linear)"/>
</g>
<path d="M215.931 377.308C233.213 377.308 247.223 363.296 247.223 346.011C247.223 328.727 233.213 314.715 215.931 314.715C198.649 314.715 184.639 328.727 184.639 346.011C184.639 363.296 198.649 377.308 215.931 377.308Z" fill="#F5F5F5"/>
<path d="M233.267 348.83C233.267 360.351 225.75 373.184 216.473 373.184C207.196 373.184 199.679 360.351 199.679 348.83C199.679 337.309 207.196 331.424 216.473 331.424C225.75 331.424 233.267 337.302 233.267 348.83Z" fill="#FDD835"/>
<path d="M216.018 377.402C222.131 377.411 228.111 375.62 233.213 372.254C232.062 365.954 227.671 365.559 227.671 365.559H203.481C203.481 365.559 199.338 365.901 198.046 371.698C203.303 375.411 209.582 377.404 216.018 377.402Z" fill="#2CB93B"/>
<path opacity="0.1" d="M210.844 357.908H220.522V365.653C220.522 366.937 220.013 368.168 219.105 369.076C218.198 369.983 216.967 370.493 215.683 370.493C214.4 370.493 213.169 369.983 212.261 369.076C211.354 368.168 210.844 366.937 210.844 365.653V357.908Z" fill="black"/>
<path d="M211.734 357.546H219.545C219.79 357.546 220.025 357.643 220.198 357.817C220.372 357.99 220.469 358.225 220.469 358.47V365.292C220.469 366.575 219.959 367.806 219.052 368.714C218.144 369.622 216.913 370.132 215.63 370.132C214.346 370.132 213.115 369.622 212.208 368.714C211.3 367.806 210.79 366.575 210.79 365.292V358.47C210.79 358.225 210.888 357.99 211.061 357.817C211.234 357.643 211.469 357.546 211.714 357.546H211.734Z" fill="#FDB797"/>
<path opacity="0.1" d="M210.831 361.556C213.953 362.713 217.387 362.713 220.509 361.556V360.364H210.831V361.556Z" fill="black"/>
<path d="M215.69 362.205C223.349 362.205 229.559 355.995 229.559 348.334C229.559 340.674 223.349 334.463 215.69 334.463C208.03 334.463 201.821 340.674 201.821 348.334C201.821 355.995 208.03 362.205 215.69 362.205Z" fill="#FDB797"/>
<path d="M202.102 350.162C202.816 350.162 203.394 349.08 203.394 347.745C203.394 346.411 202.816 345.329 202.102 345.329C201.389 345.329 200.81 346.411 200.81 347.745C200.81 349.08 201.389 350.162 202.102 350.162Z" fill="#FDB797"/>
<path d="M229.197 350.162C229.911 350.162 230.489 349.08 230.489 347.745C230.489 346.411 229.911 345.329 229.197 345.329C228.484 345.329 227.906 346.411 227.906 347.745C227.906 349.08 228.484 350.162 229.197 350.162Z" fill="#FDB797"/>
<path opacity="0.1" d="M203.394 340.81C203.394 340.81 211.245 351.521 229.217 347.879C229.217 347.879 231.225 345.436 226.339 337.931C221.453 330.427 207.832 331.645 203.394 340.81Z" fill="black"/>
<path d="M203.394 340.636C203.394 340.636 211.245 351.347 229.217 347.705C229.217 347.705 231.225 345.262 226.339 337.757C221.453 330.253 207.832 331.471 203.394 340.636Z" fill="#FDD835"/>
<g opacity="0.5">
<path opacity="0.5" d="M291.861 381.82C309.513 381.82 323.823 367.509 323.823 349.854C323.823 332.2 309.513 317.888 291.861 317.888C274.21 317.888 259.9 332.2 259.9 349.854C259.9 367.509 274.21 381.82 291.861 381.82Z" fill="url(#paint8_linear)"/>
</g>
<path d="M291.928 380.943C309.21 380.943 323.22 366.931 323.22 349.647C323.22 332.362 309.21 318.35 291.928 318.35C274.646 318.35 260.636 332.362 260.636 349.647C260.636 366.931 274.646 380.943 291.928 380.943Z" fill="#F5F5F5"/>
<path d="M309.137 352.733C309.137 363.143 301.661 368.264 291.948 368.264C282.236 368.264 273.977 363.143 273.977 352.733C273.977 342.323 281.848 333.888 291.554 333.888C301.259 333.888 309.137 342.323 309.137 352.733Z" fill="#333333"/>
<path d="M291.948 381.064C298.065 381.068 304.048 379.271 309.151 375.896C307.999 369.596 303.608 369.201 303.608 369.201H279.418C279.418 369.201 275.275 369.543 273.983 375.34C279.236 379.059 285.512 381.058 291.948 381.064Z" fill="#2CB93B"/>
<path opacity="0.1" d="M286.748 361.569H296.426V369.315C296.426 369.951 296.301 370.58 296.058 371.167C295.815 371.754 295.458 372.288 295.009 372.737C294.56 373.187 294.026 373.543 293.439 373.787C292.852 374.03 292.222 374.155 291.587 374.155C290.303 374.155 289.073 373.645 288.165 372.737C287.257 371.83 286.748 370.599 286.748 369.315V361.569Z" fill="black"/>
<path d="M287.671 361.215H295.503C295.748 361.215 295.983 361.312 296.156 361.485C296.329 361.658 296.426 361.893 296.426 362.139V368.96C296.426 369.596 296.301 370.225 296.058 370.812C295.815 371.4 295.458 371.933 295.009 372.383C294.56 372.832 294.026 373.189 293.439 373.432C292.852 373.675 292.222 373.8 291.587 373.8C290.303 373.8 289.073 373.29 288.165 372.383C287.257 371.475 286.748 370.244 286.748 368.96V362.132C286.749 361.888 286.847 361.655 287.02 361.483C287.193 361.311 287.427 361.215 287.671 361.215Z" fill="#FDA57D"/>
<path opacity="0.1" d="M286.768 365.225C289.89 366.382 293.324 366.382 296.447 365.225V364.033H286.768V365.225Z" fill="black"/>
<path d="M291.621 365.874C299.28 365.874 305.489 359.664 305.489 352.003C305.489 344.342 299.28 338.132 291.621 338.132C283.961 338.132 277.752 344.342 277.752 352.003C277.752 359.664 283.961 365.874 291.621 365.874Z" fill="#FDA57D"/>
<path opacity="0.1" d="M275.636 352.907C275.636 352.907 284.271 351.862 290.817 343.481C290.817 343.481 299.452 352.994 305.476 351.943C305.476 351.943 308.963 348.281 305.476 344.612C301.989 340.944 299.284 336.325 294.659 336.934C290.034 337.543 284.365 337.804 281.942 339.986C279.519 342.169 275.636 352.907 275.636 352.907Z" fill="black"/>
<path d="M275.636 352.733C275.636 352.733 284.271 351.688 290.817 343.307C290.817 343.307 299.452 352.82 305.476 351.769C305.476 351.769 308.963 348.107 305.476 344.438C301.989 340.77 299.284 336.15 294.659 336.76C290.034 337.369 284.365 337.63 281.942 339.812C279.519 341.995 275.636 352.733 275.636 352.733Z" fill="#333333"/>
<path d="M277.745 354.406C278.458 354.406 279.037 353.324 279.037 351.99C279.037 350.655 278.458 349.573 277.745 349.573C277.032 349.573 276.453 350.655 276.453 351.99C276.453 353.324 277.032 354.406 277.745 354.406Z" fill="#FDA57D"/>
<path d="M305.489 354.406C306.203 354.406 306.781 353.324 306.781 351.99C306.781 350.655 306.203 349.573 305.489 349.573C304.776 349.573 304.198 350.655 304.198 351.99C304.198 353.324 304.776 354.406 305.489 354.406Z" fill="#FDA57D"/>
<path d="M291.835 93.0534H2.67749V157.321H291.835V93.0534Z" fill="url(#paint9_linear)"/>
<path d="M290.496 93.0534H2.67749V29.4557H228.916L290.496 93.0534Z" fill="url(#paint10_linear)"/>
<path d="M580.323 93.0534H291.835V157.321H580.323V93.0534Z" fill="url(#paint11_linear)"/>
<path d="M383.535 87.0284H198.796V99.0785H383.535V87.0284Z" fill="#E0E0E0"/>
<path d="M43.5074 38.1586H20.0803V50.2087H43.5074V38.1586Z" fill="#E0E0E0"/>
<path d="M562.25 38.1586H540.831V40.1669H562.25V38.1586Z" fill="#E0E0E0"/>
<path d="M562.25 43.5142H540.831V45.5225H562.25V43.5142Z" fill="#E0E0E0"/>
<path d="M562.25 48.2003H540.831V50.2087H562.25V48.2003Z" fill="#E0E0E0"/>
</g>
<defs>
<linearGradient id="paint0_linear" x1="291.5" y1="401" x2="291.5" y2="0" gradientUnits="userSpaceOnUse">
<stop stop-color="#808080" stop-opacity="0.25"/>
<stop offset="0.54" stop-color="#808080" stop-opacity="0.12"/>
<stop offset="1" stop-color="#808080" stop-opacity="0.1"/>
</linearGradient>
<linearGradient id="paint1_linear" x1="20805.4" y1="22980.2" x2="20805.4" y2="16874.6" gradientUnits="userSpaceOnUse">
<stop stop-color="#808080" stop-opacity="0.25"/>
<stop offset="0.54" stop-color="#808080" stop-opacity="0.12"/>
<stop offset="1" stop-color="#808080" stop-opacity="0.1"/>
</linearGradient>
<linearGradient id="paint2_linear" x1="27947.9" y1="29694.9" x2="27947.9" y2="23588.7" gradientUnits="userSpaceOnUse">
<stop stop-color="#808080" stop-opacity="0.25"/>
<stop offset="0.54" stop-color="#808080" stop-opacity="0.12"/>
<stop offset="1" stop-color="#808080" stop-opacity="0.1"/>
</linearGradient>
<linearGradient id="paint3_linear" x1="27944.7" y1="22829" x2="27944.7" y2="16722.8" gradientUnits="userSpaceOnUse">
<stop stop-color="#808080" stop-opacity="0.25"/>
<stop offset="0.54" stop-color="#808080" stop-opacity="0.12"/>
<stop offset="1" stop-color="#808080" stop-opacity="0.1"/>
</linearGradient>
<linearGradient id="paint4_linear" x1="35297.8" y1="22814.8" x2="35297.8" y2="16709.3" gradientUnits="userSpaceOnUse">
<stop stop-color="#808080" stop-opacity="0.25"/>
<stop offset="0.54" stop-color="#808080" stop-opacity="0.12"/>
<stop offset="1" stop-color="#808080" stop-opacity="0.1"/>
</linearGradient>
<linearGradient id="paint5_linear" x1="20782.8" y1="29492.7" x2="20782.8" y2="23386.5" gradientUnits="userSpaceOnUse">
<stop stop-color="#808080" stop-opacity="0.25"/>
<stop offset="0.54" stop-color="#808080" stop-opacity="0.12"/>
<stop offset="1" stop-color="#808080" stop-opacity="0.1"/>
</linearGradient>
<linearGradient id="paint6_linear" x1="35412.8" y1="29834.5" x2="35412.8" y2="23728.9" gradientUnits="userSpaceOnUse">
<stop stop-color="#808080" stop-opacity="0.25"/>
<stop offset="0.54" stop-color="#808080" stop-opacity="0.12"/>
<stop offset="1" stop-color="#808080" stop-opacity="0.1"/>
</linearGradient>
<linearGradient id="paint7_linear" x1="20805.4" y1="36428.4" x2="20805.4" y2="30322.2" gradientUnits="userSpaceOnUse">
<stop stop-color="#808080" stop-opacity="0.25"/>
<stop offset="0.54" stop-color="#808080" stop-opacity="0.12"/>
<stop offset="1" stop-color="#808080" stop-opacity="0.1"/>
</linearGradient>
<linearGradient id="paint8_linear" x1="28132.7" y1="36781.7" x2="28132.7" y2="30676.2" gradientUnits="userSpaceOnUse">
<stop stop-color="#808080" stop-opacity="0.25"/>
<stop offset="0.54" stop-color="#808080" stop-opacity="0.12"/>
<stop offset="1" stop-color="#808080" stop-opacity="0.1"/>
</linearGradient>
<linearGradient id="paint9_linear" x1="2.67749" y1="125.187" x2="291.835" y2="125.187" gradientUnits="userSpaceOnUse">
<stop stop-color="white" stop-opacity="0.05"/>
<stop offset="0.99" stop-color="white" stop-opacity="0.07"/>
</linearGradient>
<linearGradient id="paint10_linear" x1="2.67749" y1="61.2546" x2="290.496" y2="61.2546" gradientUnits="userSpaceOnUse">
<stop stop-color="white" stop-opacity="0.02"/>
<stop offset="0.99" stop-color="white" stop-opacity="0.05"/>
</linearGradient>
<linearGradient id="paint11_linear" x1="291.835" y1="125.187" x2="580.323" y2="125.187" gradientUnits="userSpaceOnUse">
<stop stop-color="white" stop-opacity="0.02"/>
<stop offset="0.99" stop-color="white" stop-opacity="0.04"/>
</linearGradient>
<clipPath id="clip0">
<rect width="583" height="401" fill="white"/>
</clipPath>
</defs>
</svg>
